{"glyphs":{"0":{"ha":725,"x_min":69,"x_max":626,"o":"m 340 972 l 357 972 q 549 908 471 972 q 626 708 626 844 l 626 279 q 551 70 626 140 q 353 -3 476 0 l 344 -3 q 144 70 219 0 q 69 279 69 140 l 69 708 q 110 861 69 800 q 340 972 182 972 m 360 906 l 338 906 q 197 860 256 906 q 139 704 139 815 l 139 281 q 340 64 139 64 l 357 64 q 558 281 558 64 l 558 704 q 500 860 558 815 q 360 906 442 906 z "},"1":{"ha":532,"x_min":24,"x_max":381,"o":"m 381 913 l 381 29 q 379 3 381 7 q 365 0 378 0 l 325 0 q 313 5 315 0 q 311 18 311 10 l 311 890 l 72 701 q 42 704 54 688 l 29 719 q 24 735 24 726 q 36 753 24 743 l 275 947 q 339 972 307 972 l 342 972 q 381 913 381 971 z "},"2":{"ha":694,"x_min":82,"x_max":613,"o":"m 340 972 q 526 909 461 972 q 592 742 592 846 q 556 608 592 683 q 485 483 519 532 q 268 211 404 368 l 226 161 q 173 94 192 119 q 150 65 154 69 q 158 67 153 67 l 585 67 q 613 40 613 67 l 613 28 q 585 0 613 0 l 157 0 q 122 3 135 0 q 95 22 108 6 q 82 66 82 38 q 142 169 82 94 l 200 236 q 228 269 213 251 q 293 349 264 311 l 331 393 q 365 437 339 404 q 400 482 390 469 q 431 524 410 494 q 462 569 453 553 q 485 610 471 585 q 507 654 500 636 q 524 735 524 697 q 469 864 524 822 q 340 906 415 906 q 156 781 207 906 q 131 764 147 764 l 118 764 q 90 789 90 764 q 92 799 90 796 q 187 926 119 881 q 340 972 254 972 z "},"3":{"ha":743,"x_min":72,"x_max":635,"o":"m 75 214 q 72 234 72 226 q 86 242 72 242 l 128 244 l 133 244 q 140 229 138 244 q 353 68 183 68 q 506 117 446 68 q 565 260 565 165 q 505 415 565 356 q 324 474 444 474 l 242 474 q 226 476 228 474 q 224 489 224 479 l 224 508 q 224 520 224 511 q 225 533 224 529 q 243 540 226 540 l 321 540 q 490 587 431 540 q 549 713 549 633 q 495 849 549 792 q 347 906 442 906 q 237 876 286 906 q 176 786 188 847 q 165 776 175 776 l 119 776 q 111 800 107 776 q 190 923 124 874 q 347 972 256 972 q 547 898 478 972 q 615 715 615 824 q 580 591 615 647 q 472 507 544 535 q 596 415 557 479 q 635 275 635 351 q 608 144 635 199 q 539 60 582 90 q 347 0 457 0 q 167 57 236 0 q 75 214 97 114 z "},"4":{"ha":771,"x_min":44,"x_max":714,"o":"m 476 972 q 531 913 531 972 l 531 378 l 689 378 q 714 351 714 378 l 714 339 q 689 311 714 311 l 531 311 l 531 28 q 503 0 531 0 l 490 0 q 464 28 464 0 l 464 311 l 106 311 q 49 342 60 311 q 46 363 46 350 q 58 392 46 375 l 419 933 q 476 972 446 972 m 464 378 l 464 882 q 306 640 418 814 q 131 378 193 467 l 464 378 z "},"5":{"ha":789,"x_min":93,"x_max":664,"o":"m 94 182 q 118 207 94 207 l 136 207 q 161 190 153 207 q 246 92 189 122 q 367 63 303 63 q 533 122 468 63 q 597 297 597 181 l 597 315 q 575 489 597 444 q 540 543 561 515 q 394 599 499 599 q 328 590 358 599 q 288 575 297 581 q 260 558 278 569 q 229 535 243 546 q 208 518 215 524 q 171 504 189 504 q 121 565 121 504 l 121 918 q 164 972 121 968 q 190 972 172 972 l 611 972 q 631 965 622 972 q 639 946 639 957 l 639 932 q 631 913 639 921 q 611 906 622 906 l 189 906 l 189 579 q 269 635 208 603 q 390 667 329 667 q 494 652 450 667 q 567 617 539 638 q 615 562 594 597 q 644 500 635 526 q 658 431 653 474 q 664 369 664 389 l 664 299 q 579 69 664 144 q 367 -6 494 -6 q 206 39 282 -6 q 96 171 131 83 q 94 182 94 176 z "},"6":{"ha":811,"x_min":121,"x_max":671,"o":"m 121 693 q 198 900 121 828 q 389 972 275 972 q 573 926 503 972 q 664 793 643 879 q 658 772 665 781 q 639 761 651 763 l 624 760 q 597 781 603 760 q 529 873 582 840 q 391 906 476 906 q 247 851 306 906 q 188 692 188 796 l 188 525 q 287 586 228 563 q 404 610 346 610 q 596 543 521 610 q 671 363 671 476 l 671 253 q 594 69 671 143 q 399 -4 518 -4 l 388 -4 q 201 69 281 -4 q 121 260 121 142 l 121 693 m 404 543 q 188 444 289 543 l 188 264 q 250 117 188 171 q 386 64 313 64 l 399 64 q 544 117 485 64 q 604 253 604 171 l 604 361 q 546 494 604 444 q 404 543 488 543 z "},"7":{"ha":631,"x_min":50,"x_max":593,"o":"m 78 972 l 543 972 q 593 928 593 972 q 578 876 592 903 l 171 15 q 146 0 164 0 l 129 0 q 101 25 101 0 q 104 39 101 31 l 517 904 l 78 904 q 58 912 67 904 q 50 931 50 919 l 50 946 q 58 965 50 957 q 78 972 67 972 z "},"8":{"ha":782,"x_min":83,"x_max":668,"o":"m 642 719 q 612 590 642 650 q 515 501 582 531 q 630 410 592 478 q 668 244 668 342 q 602 76 668 147 q 374 0 536 4 q 83 253 83 7 q 119 410 83 343 q 231 501 156 478 q 110 719 110 554 q 181 907 110 844 q 374 972 251 969 q 569 907 497 969 q 642 719 642 844 m 374 463 q 199 405 247 463 q 151 252 151 347 q 212 112 151 157 q 374 67 272 67 q 538 112 476 67 q 600 251 600 157 q 374 463 600 463 m 374 906 q 230 856 283 903 q 176 723 176 810 q 224 583 176 636 q 374 529 271 529 q 526 581 478 529 q 575 720 575 632 q 520 856 575 808 q 374 906 465 903 z "},"9":{"ha":753,"x_min":96,"x_max":646,"o":"m 367 972 l 376 972 q 565 900 485 972 q 646 708 646 828 l 646 261 q 569 65 646 129 q 369 0 493 0 q 170 61 244 0 q 96 235 96 122 l 96 251 q 104 272 96 264 q 124 279 113 279 l 136 279 q 156 272 147 279 q 164 251 164 264 l 164 238 q 220 112 164 156 q 370 68 276 68 q 522 115 464 68 q 579 263 579 161 l 579 438 q 376 358 497 358 q 176 424 256 358 q 96 601 96 489 l 96 715 q 172 899 96 826 q 367 972 249 972 m 378 906 l 367 906 q 222 852 281 906 q 163 715 163 799 l 163 603 q 225 473 163 521 q 380 425 288 425 q 579 519 472 425 l 579 704 q 516 852 579 799 q 378 906 453 906 z "},"\r":{"ha":417,"x_min":0,"x_max":0,"o":""}," ":{"ha":694,"x_min":0,"x_max":0,"o":""},"!":{"ha":297,"x_min":69,"x_max":228,"o":"m 142 972 l 156 972 q 175 965 167 972 q 183 946 183 957 l 183 281 q 175 262 183 269 q 156 254 167 254 l 142 254 q 115 281 115 254 l 115 946 q 142 972 115 972 m 83 142 q 90 148 83 142 q 147 154 97 154 q 213 141 197 154 q 228 86 228 128 l 228 68 q 213 8 228 21 q 147 -4 197 -4 q 83 8 97 -4 q 69 68 69 21 l 69 86 q 83 142 69 131 m 179 82 q 173 101 179 96 q 148 106 167 106 q 124 101 129 106 q 118 82 118 97 l 118 68 q 124 49 118 53 q 149 44 129 44 q 174 49 168 44 q 179 68 179 53 l 179 82 z "},"\"":{"ha":268,"x_min":49,"x_max":225,"o":"m 183 1014 l 199 1014 q 225 988 225 1014 l 225 793 q 199 767 225 767 l 183 767 q 157 793 157 767 l 157 988 q 183 1014 157 1014 m 75 1014 l 89 1014 q 117 988 117 1014 l 117 793 q 89 767 117 767 l 75 767 q 49 793 49 767 l 49 988 q 75 1014 49 1014 z "},"#":{"ha":835,"x_min":44,"x_max":799,"o":"m 161 696 l 339 696 l 438 954 q 463 972 447 972 l 478 972 q 501 961 493 972 q 504 936 510 950 l 413 696 l 590 696 l 690 954 q 715 972 700 972 l 731 972 q 753 961 744 972 q 756 936 761 950 l 664 696 l 772 696 q 799 668 799 696 l 799 656 q 772 628 799 628 l 638 628 l 540 372 l 683 372 q 702 364 694 372 q 710 344 710 356 l 710 332 q 702 313 710 321 q 683 304 694 304 l 514 304 l 406 18 q 378 0 397 0 l 363 0 q 343 11 349 0 q 342 36 338 22 l 443 304 l 263 304 l 154 18 q 128 0 146 0 l 114 0 q 92 11 99 0 q 89 36 85 22 l 192 304 l 71 304 q 52 313 60 304 q 44 332 44 321 l 44 344 q 52 364 44 356 q 71 372 60 372 l 217 372 l 314 628 l 161 628 q 142 636 150 628 q 135 656 135 644 l 135 668 q 142 688 135 679 q 161 696 150 696 m 468 372 l 565 628 l 386 628 l 289 372 l 468 372 z "},"$":{"ha":779,"x_min":54,"x_max":657,"o":"m 363 1014 l 379 1014 q 406 988 406 1014 l 406 971 q 577 894 508 961 q 651 713 646 826 q 644 693 651 701 q 625 685 636 685 l 613 685 q 585 717 586 685 q 531 846 579 799 q 406 901 482 893 l 406 517 q 435 503 415 511 q 600 391 543 451 q 657 241 657 331 q 592 83 657 151 q 406 1 528 15 l 406 -142 q 398 -161 406 -153 q 379 -169 390 -169 l 363 -169 q 344 -161 351 -169 q 336 -142 336 -153 l 336 -1 q 142 69 225 3 q 54 272 58 135 q 62 292 54 283 q 81 301 69 301 l 93 301 q 121 279 121 301 q 142 177 121 221 q 197 111 163 133 q 336 65 263 68 l 336 471 q 150 595 207 536 q 93 744 93 654 q 157 897 93 833 q 336 971 221 961 l 336 988 q 363 1014 336 1014 m 406 436 l 406 68 q 543 125 497 79 q 589 239 589 171 q 531 361 589 314 q 446 415 486 396 q 406 436 406 435 m 336 901 q 209 849 253 893 q 165 744 165 804 q 209 638 165 683 q 336 550 253 593 l 336 901 z "},"%":{"ha":844,"x_min":69,"x_max":775,"o":"m 515 1017 l 532 1017 q 554 1008 547 1017 q 558 985 561 999 l 376 -6 q 350 -28 372 -28 l 336 -28 q 315 -19 322 -28 q 308 4 307 -10 l 488 994 q 515 1017 492 1017 m 493 289 q 634 432 493 432 q 775 289 775 432 l 775 143 q 634 0 775 0 q 493 143 493 0 l 493 289 m 708 297 q 634 365 708 365 q 560 297 560 365 l 560 135 q 634 67 560 67 q 708 135 708 67 l 708 297 m 69 829 q 210 972 69 972 q 351 829 351 972 l 351 683 q 210 540 351 540 q 69 683 69 540 l 69 829 m 285 838 q 210 906 285 906 q 136 838 136 906 l 136 675 q 210 607 136 607 q 285 675 285 607 l 285 838 z "},"&":{"ha":779,"x_min":69,"x_max":704,"o":"m 124 764 q 124 809 124 764 q 178 913 124 854 q 331 972 233 972 q 488 915 429 972 q 546 774 546 857 q 364 519 546 635 l 356 519 l 328 561 l 326 567 l 328 569 q 425 640 394 610 q 481 764 481 697 q 442 869 481 831 q 338 907 403 907 q 233 871 272 907 q 193 767 193 835 q 301 549 193 699 l 678 21 q 671 0 692 0 l 606 1 q 588 13 594 1 q 573 38 581 25 q 501 140 565 50 q 356 341 436 231 q 243 500 276 451 q 124 764 124 674 m 135 300 l 135 233 q 340 60 135 60 q 476 83 415 60 q 493 81 488 88 l 524 43 q 522 32 531 35 q 340 -4 442 -4 q 69 235 69 -4 l 69 289 q 72 336 69 325 q 76 363 74 347 q 81 386 78 378 q 89 406 85 394 q 118 443 96 421 q 204 497 136 458 q 219 497 215 503 l 246 458 q 246 453 250 456 q 150 378 167 413 q 135 300 135 346 m 461 513 l 688 513 q 704 485 704 513 l 704 472 q 688 446 704 446 l 461 446 q 444 472 444 446 l 444 485 q 461 513 444 513 z "},"'":{"ha":194,"x_min":61,"x_max":129,"o":"m 89 1014 l 103 1014 q 129 988 129 1014 l 129 793 q 103 767 129 767 l 89 767 q 69 774 78 767 q 61 793 61 782 l 61 988 q 69 1006 61 999 q 89 1014 78 1014 z "},"(":{"ha":454,"x_min":60,"x_max":436,"o":"m 407 958 q 426 950 418 958 q 433 931 433 942 l 433 918 q 426 899 433 907 q 407 890 418 890 q 225 819 306 890 q 153 691 181 779 q 126 476 126 603 q 410 65 126 65 q 436 39 436 65 l 436 26 q 410 -1 436 -1 q 60 478 60 -1 q 407 958 60 958 z "},")":{"ha":503,"x_min":60,"x_max":436,"o":"m 89 958 q 436 478 436 958 q 86 -1 436 -1 q 60 26 60 -1 l 60 39 q 86 65 60 65 q 369 476 369 65 q 236 847 369 758 q 89 890 172 890 q 70 899 78 890 q 63 918 63 907 l 63 931 q 70 950 63 942 q 89 958 78 958 z "},"*":{"ha":492,"x_min":56,"x_max":413,"o":"m 149 708 q 126 699 136 699 q 101 719 117 699 l 101 718 q 101 757 85 735 l 154 807 l 82 807 q 63 815 71 807 q 56 835 56 824 l 56 847 q 82 874 56 874 l 150 874 l 100 924 q 100 963 83 940 l 110 971 q 149 971 126 988 l 200 917 l 200 988 q 208 1006 200 999 q 228 1014 217 1014 l 240 1014 q 260 1006 251 1014 q 268 988 268 999 l 268 917 l 319 968 q 342 978 331 978 q 367 960 350 978 q 367 921 383 938 l 318 874 l 386 874 q 413 847 413 874 l 413 835 q 405 815 413 824 q 386 807 397 807 l 308 807 l 363 750 q 372 728 372 739 q 354 703 372 719 q 315 703 332 686 l 268 751 l 268 688 q 260 669 268 676 q 240 661 251 661 l 228 661 q 208 669 217 661 q 200 688 200 676 l 200 760 l 149 708 m 254 832 l 254 843 l 243 856 q 242 857 242 856 l 226 857 l 215 846 l 215 833 l 228 819 l 240 819 l 254 832 z "},"+":{"ha":665,"x_min":35,"x_max":631,"o":"m 63 508 l 300 508 l 300 747 q 326 774 300 774 l 338 774 q 367 747 364 771 l 367 508 l 604 508 q 631 482 631 508 l 631 469 q 623 450 631 458 q 604 442 615 442 l 367 442 l 367 204 q 339 176 364 176 l 325 176 q 300 204 300 179 l 300 442 l 63 442 q 42 450 50 442 q 35 469 35 458 l 35 482 q 63 508 35 508 z "},",":{"ha":151,"x_min":3,"x_max":149,"o":"m 108 193 l 126 193 q 149 167 153 193 q 69 -171 125 61 q 43 -189 65 -189 l 26 -189 q 3 -162 -1 -189 l 82 175 q 108 193 88 193 z "},"-":{"ha":488,"x_min":43,"x_max":444,"o":"m 71 481 l 417 481 q 444 454 444 481 l 444 440 q 417 414 444 414 l 71 414 q 43 440 43 414 l 43 454 q 71 481 43 481 z "},".":{"ha":278,"x_min":57,"x_max":215,"o":"m 71 142 q 78 148 71 142 q 135 154 85 154 q 200 141 185 154 q 215 86 215 128 l 215 68 q 200 8 215 21 q 135 -4 185 -4 q 71 8 85 -4 q 57 68 57 21 l 57 86 q 71 142 57 131 m 167 82 q 160 101 167 96 q 135 106 154 106 q 111 101 117 106 q 106 82 106 97 l 106 68 q 111 49 106 53 q 136 44 117 44 q 161 49 156 44 q 167 68 167 53 l 167 82 z "},"/":{"ha":421,"x_min":-15,"x_max":417,"o":"m 393 971 q 417 947 417 971 q 414 935 417 942 l 51 18 q 31 0 40 0 l 14 0 q -8 9 -1 0 q -15 24 -15 18 q -12 36 -15 31 l 349 953 q 375 971 358 971 l 393 971 z "},":":{"ha":276,"x_min":56,"x_max":214,"o":"m 69 601 q 76 607 69 601 q 133 613 83 613 q 199 599 183 613 q 214 544 214 586 l 214 526 q 199 467 214 479 q 133 454 183 454 q 69 467 83 454 q 56 526 56 479 l 56 544 q 69 601 56 589 m 69 142 q 76 148 69 142 q 133 154 83 154 q 199 141 183 154 q 214 86 214 128 l 214 68 q 199 8 214 21 q 133 -4 183 -4 q 69 8 83 -4 q 56 68 56 21 l 56 86 q 69 142 56 131 m 165 82 q 159 101 165 96 q 134 106 153 106 q 110 101 115 106 q 104 82 104 97 l 104 68 q 110 49 104 53 q 135 44 115 44 q 160 49 154 44 q 165 68 165 53 l 165 82 m 165 540 q 159 559 165 554 q 134 564 153 564 q 110 560 115 564 q 104 540 104 556 l 104 526 q 110 507 104 511 q 135 503 115 503 q 160 507 154 503 q 165 526 165 511 l 165 540 z "},";":{"ha":238,"x_min":3,"x_max":221,"o":"m 108 193 l 126 193 q 149 167 153 193 q 69 -171 125 61 q 43 -189 65 -189 l 26 -189 q 3 -162 -1 -189 l 82 175 q 108 193 88 193 m 76 517 q 83 523 76 517 q 140 529 90 529 q 206 516 190 529 q 221 461 221 503 l 221 443 q 206 383 221 396 q 140 371 190 371 q 76 383 90 371 q 63 443 63 396 l 63 461 q 76 517 63 506 m 172 457 q 166 476 172 471 q 141 481 160 481 q 117 476 122 481 q 111 457 111 472 l 111 443 q 117 424 111 428 q 142 419 122 419 q 167 424 161 419 q 172 443 172 428 l 172 457 z "},"<":{"ha":794,"x_min":69,"x_max":721,"o":"m 667 700 q 682 704 674 704 q 697 700 690 704 q 717 669 717 694 q 697 636 717 643 l 149 444 l 700 261 q 719 231 719 254 q 717 215 719 224 q 692 193 707 193 q 667 197 678 193 l 97 393 q 69 444 69 404 q 99 494 69 483 l 667 700 z "},"=":{"ha":804,"x_min":104,"x_max":700,"o":"m 132 619 l 674 619 q 700 593 700 619 l 700 581 q 674 553 700 553 l 132 553 q 104 581 104 553 l 104 593 q 132 619 104 619 m 132 447 l 674 447 q 700 421 700 447 l 700 408 q 692 389 700 397 q 674 381 685 381 l 132 381 q 112 389 119 381 q 104 408 104 397 l 104 421 q 132 447 104 447 z "},">":{"ha":789,"x_min":68,"x_max":719,"o":"m 690 494 q 719 444 719 483 q 692 393 719 404 l 122 197 q 97 193 111 193 q 76 208 82 193 q 69 231 69 224 q 89 261 69 254 l 640 444 l 92 636 q 72 669 72 643 q 92 700 72 694 q 107 704 99 704 q 122 700 115 704 l 690 494 z "},"?":{"ha":614,"x_min":53,"x_max":535,"o":"m 288 953 q 474 880 413 953 q 535 711 535 807 q 472 549 535 615 q 306 468 410 482 q 303 469 304 468 l 303 271 q 276 244 303 244 l 264 244 q 236 271 236 244 l 236 476 q 250 519 236 508 q 300 533 264 531 q 420 588 372 540 q 468 710 468 635 q 422 835 468 785 q 288 886 375 886 q 119 786 163 886 q 94 769 111 769 l 82 769 q 54 792 54 769 q 56 804 54 797 q 147 917 83 881 q 288 953 210 953 m 201 142 q 208 148 201 142 q 265 154 215 154 q 331 141 315 154 q 346 86 346 128 l 346 68 q 331 8 346 21 q 265 -4 315 -4 q 201 8 215 -4 q 188 68 188 21 l 188 86 q 201 142 188 131 m 297 82 q 291 101 297 96 q 266 106 285 106 q 242 101 247 106 q 236 82 236 97 l 236 68 q 242 49 236 53 q 267 44 247 44 q 292 49 286 44 q 297 68 297 53 l 297 82 z "},"@":{"ha":668,"x_min":28,"x_max":629,"o":"m 28 476 q 114 666 28 596 q 327 736 200 736 q 542 669 454 736 q 629 474 629 603 l 629 240 q 597 155 629 189 q 522 121 565 121 q 443 151 478 121 q 324 111 394 111 q 211 151 254 111 q 168 268 168 192 l 168 449 q 213 565 168 525 q 331 606 258 606 q 449 565 404 606 q 494 449 494 524 l 494 226 q 504 202 494 213 q 528 192 514 192 q 553 205 543 192 q 564 232 564 218 l 564 444 q 497 615 564 561 q 331 669 431 669 q 163 617 232 669 q 93 475 93 565 l 93 236 q 164 94 93 149 q 325 38 236 38 q 499 79 414 38 q 521 15 518 32 q 324 -29 432 -29 q 112 44 196 -29 q 28 235 28 117 l 28 476 m 426 449 q 331 538 426 538 q 236 449 236 538 l 236 268 q 332 178 236 178 q 426 226 394 178 l 426 449 z "},"A":{"ha":817,"x_min":22,"x_max":771,"o":"m 342 936 q 395 974 354 974 q 450 935 436 974 l 769 38 q 771 28 771 33 q 743 0 771 0 l 726 0 q 700 18 708 0 l 397 881 l 93 18 q 67 0 85 0 l 50 0 q 22 28 22 0 q 24 38 22 33 l 342 936 m 276 428 l 517 428 q 536 420 528 428 q 544 400 544 413 l 544 388 q 536 367 544 375 q 517 360 528 360 l 276 360 q 250 388 250 360 l 250 400 q 276 428 250 428 z "},"B":{"ha":706,"x_min":71,"x_max":671,"o":"m 131 972 l 281 972 q 524 926 447 972 q 631 718 631 861 q 593 592 628 651 q 481 504 558 532 q 595 447 550 489 q 656 361 640 404 q 671 258 671 318 q 642 138 671 199 q 560 44 614 76 q 335 0 481 0 l 133 0 q 84 13 97 0 q 71 64 71 26 l 71 911 q 83 960 71 947 q 131 972 94 972 m 279 903 l 140 903 l 140 68 l 357 68 q 601 267 601 68 q 534 409 601 349 q 344 469 467 469 l 251 469 q 229 470 236 469 q 213 478 222 471 q 204 505 204 486 q 219 529 204 524 q 260 535 233 535 l 347 535 q 512 592 463 535 q 561 719 561 649 q 514 842 561 793 q 279 903 457 903 z "},"C":{"ha":783,"x_min":56,"x_max":731,"o":"m 230 945 q 255 957 230 945 q 317 974 279 968 q 392 981 356 981 q 467 974 429 981 q 549 948 504 968 q 631 897 594 928 q 694 810 667 865 q 729 683 722 756 q 701 653 729 653 l 689 653 q 661 678 664 653 q 632 781 654 736 q 581 849 610 825 q 514 888 551 872 q 410 911 458 911 q 331 906 363 911 q 261 882 300 900 q 193 834 222 864 q 144 750 164 804 q 124 625 124 696 l 124 353 q 146 228 124 282 q 199 144 168 174 q 272 96 231 114 q 397 67 339 67 q 497 77 456 67 q 578 114 538 88 q 664 315 664 168 q 672 346 664 339 q 692 353 679 353 l 703 353 q 731 325 731 353 q 703 176 731 240 q 640 80 676 113 q 556 28 604 47 q 424 -1 481 -1 q 327 6 368 -1 q 235 36 286 13 q 147 96 185 60 q 82 198 108 132 q 56 349 56 264 l 56 631 q 81 785 56 718 q 144 887 107 851 q 230 945 181 922 z "},"D":{"ha":800,"x_min":58,"x_max":671,"o":"m 113 972 l 338 972 q 611 872 543 972 q 658 762 646 822 q 671 610 671 701 l 671 343 q 597 83 671 165 q 346 0 522 0 l 114 0 q 58 57 58 0 l 58 917 q 70 960 58 947 q 113 972 82 972 m 338 904 l 128 904 l 128 68 l 346 68 q 540 131 478 68 q 603 335 603 193 l 603 614 q 547 835 603 767 q 338 904 492 904 z "},"E":{"ha":694,"x_min":86,"x_max":654,"o":"m 142 972 l 626 972 q 646 964 638 972 q 654 944 654 956 l 654 932 q 646 912 654 919 q 626 904 638 904 l 156 904 l 156 68 l 626 68 q 646 60 638 68 q 654 40 654 53 l 654 28 q 646 8 654 17 q 626 0 638 0 l 140 0 q 97 15 107 0 q 86 56 86 29 l 86 918 q 99 959 86 946 q 142 972 111 972 m 239 539 l 536 539 q 556 531 549 539 q 564 511 564 522 l 564 499 q 536 471 564 471 l 239 471 q 211 499 211 471 l 211 511 q 219 531 211 522 q 239 539 226 539 z "},"F":{"ha":672,"x_min":85,"x_max":628,"o":"m 138 972 l 600 972 q 620 964 613 972 q 628 944 628 956 l 628 932 q 600 904 628 904 l 154 904 l 154 28 q 147 8 154 17 q 126 0 139 0 l 113 0 q 92 8 100 0 q 85 28 85 17 l 85 917 q 94 958 85 943 q 138 972 104 972 m 210 539 l 522 539 q 542 531 533 539 q 550 511 550 522 l 550 499 q 542 478 550 486 q 522 471 533 471 l 210 471 q 183 499 183 471 l 183 511 q 191 531 183 522 q 210 539 199 539 z "},"G":{"ha":807,"x_min":56,"x_max":731,"o":"m 230 945 q 255 957 230 945 q 317 974 279 968 q 392 981 356 981 q 467 974 429 981 q 549 948 504 968 q 631 897 594 928 q 694 810 667 865 q 729 683 722 756 q 701 653 729 653 l 689 653 q 661 678 664 653 q 632 781 654 736 q 581 849 610 825 q 514 888 551 872 q 410 911 458 911 q 331 906 363 911 q 261 882 300 900 q 193 834 222 864 q 144 750 164 804 q 124 625 124 696 l 124 353 q 144 228 124 282 q 194 144 165 174 q 263 96 224 114 q 333 72 303 78 q 394 67 364 67 q 456 72 425 67 q 525 94 486 76 q 593 140 564 111 q 642 219 622 168 q 663 339 663 271 l 663 419 l 433 419 q 406 447 406 419 l 406 460 q 413 479 406 471 q 433 488 421 488 l 675 488 q 731 428 731 488 l 731 338 q 705 188 731 253 q 643 89 679 124 q 558 33 607 54 q 394 -1 479 -1 q 242 29 306 -1 q 142 96 179 60 q 81 198 106 132 q 56 349 56 264 l 56 631 q 81 785 56 718 q 144 887 107 851 q 230 945 181 922 z "},"H":{"ha":760,"x_min":64,"x_max":667,"o":"m 626 972 l 639 972 q 659 964 651 972 q 667 944 667 956 l 667 28 q 659 8 667 17 q 639 0 651 0 l 626 0 q 607 8 615 0 q 599 28 599 17 l 599 944 q 607 964 599 956 q 626 972 615 972 m 92 972 l 104 972 q 124 964 117 972 q 132 944 132 956 l 132 28 q 124 8 132 17 q 104 0 117 0 l 92 0 q 72 8 81 0 q 64 28 64 17 l 64 944 q 72 964 64 956 q 92 972 81 972 m 188 546 l 546 546 q 565 538 557 546 q 574 518 574 529 l 574 504 q 565 485 574 493 q 546 476 557 476 l 188 476 q 168 485 176 476 q 160 504 160 493 l 160 518 q 168 538 160 529 q 188 546 176 546 z "},"I":{"ha":278,"x_min":103,"x_max":171,"o":"m 131 972 l 143 972 q 163 964 154 972 q 171 944 171 956 l 171 28 q 163 8 171 17 q 143 0 154 0 l 131 0 q 110 8 118 0 q 103 28 103 17 l 103 944 q 110 964 103 956 q 131 972 118 972 z "},"J":{"ha":676,"x_min":46,"x_max":593,"o":"m 103 972 l 538 972 q 593 921 593 972 l 593 303 q 522 82 593 164 q 324 0 450 0 q 158 41 232 0 q 49 169 83 82 q 46 179 46 175 q 65 207 46 200 q 92 213 82 213 q 110 196 103 213 q 158 124 126 153 q 225 83 189 94 q 324 68 282 68 q 524 301 524 68 l 524 903 l 103 903 q 76 931 76 903 l 76 944 q 84 964 76 956 q 103 972 92 972 z "},"K":{"ha":735,"x_min":83,"x_max":706,"o":"m 644 972 l 660 972 q 681 964 672 972 q 683 932 693 950 l 440 496 l 701 40 q 706 25 706 32 q 678 0 706 0 l 663 0 q 642 8 647 0 l 403 426 l 192 38 q 136 -4 167 -4 q 83 51 83 -4 l 83 944 q 91 964 83 956 q 111 972 99 972 l 125 972 q 145 964 138 972 q 153 944 153 956 l 153 111 l 428 614 l 625 964 q 644 972 631 972 z "},"L":{"ha":693,"x_min":71,"x_max":631,"o":"m 99 972 l 113 972 q 132 964 124 972 q 140 944 140 956 l 140 68 l 604 68 q 631 40 631 68 l 631 28 q 623 8 631 17 q 604 0 615 0 l 128 0 q 71 60 71 0 l 71 944 q 79 964 71 956 q 99 972 88 972 z "},"M":{"ha":903,"x_min":63,"x_max":803,"o":"m 747 976 q 786 962 769 976 q 803 917 803 947 l 803 28 q 795 8 803 17 q 775 0 788 0 l 763 0 q 742 8 750 0 q 735 28 735 17 l 735 854 l 493 257 q 443 217 478 221 q 386 256 403 217 l 131 860 l 131 28 q 122 8 131 17 q 103 0 114 0 l 89 0 q 70 8 78 0 q 63 28 63 17 l 63 917 q 117 976 63 976 q 172 935 154 976 l 439 306 l 692 935 q 747 976 711 976 z "},"N":{"ha":833,"x_min":72,"x_max":744,"o":"m 124 975 q 182 942 161 975 q 675 96 450 497 l 675 944 q 683 964 675 956 q 703 972 690 972 l 717 972 q 737 964 729 972 q 744 944 744 956 l 744 51 q 728 10 744 24 q 683 -3 713 -3 q 635 28 654 -3 l 142 874 l 142 28 q 133 8 142 17 q 114 0 125 0 l 99 0 q 80 8 88 0 q 72 28 72 17 l 72 918 q 124 975 72 975 z "},"O":{"ha":842,"x_min":69,"x_max":746,"o":"m 243 940 q 268 950 243 940 q 331 967 293 961 q 408 972 368 972 q 486 966 447 972 q 574 938 525 960 q 660 880 624 915 q 721 780 696 844 q 746 631 746 715 l 746 349 q 720 194 746 261 q 658 92 694 128 q 572 33 621 56 q 408 -1 494 -1 q 255 29 318 -1 q 156 96 192 60 q 94 198 119 132 q 69 349 69 264 l 69 631 q 95 783 69 718 q 157 883 121 849 q 243 940 193 918 m 538 877 q 518 886 538 877 q 469 899 499 894 q 408 904 439 904 q 346 899 376 904 q 276 877 315 894 q 207 831 236 860 q 158 749 178 803 q 138 625 138 696 l 138 353 q 158 228 138 282 q 208 144 178 174 q 276 96 238 114 q 347 72 315 78 q 408 67 378 67 q 470 72 439 67 q 540 96 501 78 q 608 144 579 114 q 658 228 638 174 q 678 353 678 282 l 678 625 q 657 749 678 696 q 607 831 636 803 q 538 877 578 860 z "},"P":{"ha":692,"x_min":75,"x_max":626,"o":"m 136 972 l 351 972 q 531 919 449 972 q 600 839 574 892 q 626 714 626 786 q 563 530 626 604 q 340 456 499 456 l 249 456 q 228 464 236 456 q 221 483 221 472 l 221 496 q 249 524 221 524 l 324 524 q 519 588 475 524 q 557 715 557 640 q 494 858 557 814 q 344 903 431 903 l 144 903 l 144 28 q 136 8 144 17 q 117 0 128 0 l 103 0 q 83 8 92 0 q 75 28 75 17 l 75 911 q 88 960 75 947 q 136 972 100 972 z "},"Q":{"ha":801,"x_min":69,"x_max":767,"o":"m 331 974 q 350 977 331 974 q 408 981 369 981 q 486 974 447 981 q 574 943 525 967 q 659 883 622 919 q 721 781 696 847 q 746 631 746 715 l 746 349 q 682 121 746 211 l 757 35 q 765 15 765 24 q 744 0 765 0 l 708 0 q 688 10 697 0 l 635 71 q 408 -1 544 -1 q 255 29 318 -1 q 156 96 192 60 q 94 198 119 132 q 69 349 69 264 l 69 631 q 95 785 69 718 q 157 888 121 851 q 242 946 193 924 q 331 974 292 968 m 539 882 q 519 891 539 882 q 469 906 500 900 q 408 911 439 911 q 345 906 376 911 q 275 882 314 900 q 207 834 236 864 q 158 750 178 804 q 138 625 138 696 l 138 353 q 158 228 138 282 q 208 144 178 174 q 276 96 238 114 q 408 67 339 67 q 588 125 518 67 l 432 310 q 417 338 417 326 q 447 351 417 351 l 469 351 q 492 342 482 351 l 633 176 q 678 353 678 247 l 678 625 q 657 750 678 696 q 607 834 636 804 q 539 882 578 864 z "},"R":{"ha":679,"x_min":76,"x_max":692,"o":"m 135 972 l 325 972 q 661 708 661 972 q 596 526 661 606 q 390 446 531 446 l 375 446 l 675 51 q 692 21 692 26 q 672 0 692 0 l 644 0 q 618 11 626 0 l 297 433 q 282 469 282 456 q 331 514 282 514 l 392 514 q 492 533 450 514 q 553 583 533 553 q 592 707 592 643 q 324 903 592 903 l 146 903 l 146 28 q 138 8 146 17 q 118 0 131 0 l 104 0 q 84 8 92 0 q 76 28 76 17 l 76 907 q 88 958 76 944 q 135 972 100 972 z "},"S":{"ha":774,"x_min":72,"x_max":706,"o":"m 118 752 q 118 797 118 752 q 192 908 118 842 q 392 975 265 975 q 606 908 519 975 q 699 707 693 840 q 690 687 699 696 q 671 678 682 678 l 657 678 q 639 685 647 678 q 629 704 631 693 q 558 858 625 810 q 399 906 492 906 q 243 860 299 906 q 188 747 188 814 q 226 639 188 679 q 428 528 281 585 q 661 389 603 458 q 706 238 706 336 q 626 69 706 139 q 399 -1 546 -1 q 192 58 289 -1 q 108 148 140 90 q 72 281 75 206 q 100 310 72 310 l 113 310 q 140 283 138 310 q 171 177 143 222 q 240 110 199 132 q 417 67 321 67 q 576 117 514 67 q 638 244 638 168 q 588 364 638 322 q 500 421 547 397 q 308 503 439 450 q 163 605 208 547 q 118 752 118 663 z "},"T":{"ha":694,"x_min":7,"x_max":679,"o":"m 335 867 l 349 867 q 376 840 376 867 l 376 28 q 369 8 376 17 q 349 0 361 0 l 335 0 q 315 8 322 0 q 307 28 307 17 l 307 840 q 335 867 307 867 m 35 972 l 651 972 q 672 964 664 972 q 679 944 679 956 l 679 929 q 651 904 679 904 l 35 904 q 7 929 7 904 l 7 944 q 15 964 7 956 q 35 972 24 972 z "},"U":{"ha":781,"x_min":54,"x_max":708,"o":"m 667 972 l 681 972 q 700 964 692 972 q 708 944 708 956 l 708 349 q 675 176 708 249 q 589 67 642 103 q 390 -1 492 -1 l 374 -1 q 172 67 272 -1 q 87 176 119 103 q 54 349 54 249 l 54 944 q 62 964 54 956 q 82 972 69 972 l 96 972 q 116 964 108 972 q 124 944 124 956 l 124 349 q 150 208 124 267 q 219 119 176 149 q 376 67 294 69 l 389 67 q 544 121 468 69 q 613 208 586 149 q 639 349 639 267 l 639 944 q 647 964 639 956 q 667 972 654 972 z "},"V":{"ha":765,"x_min":-6,"x_max":743,"o":"m 699 972 l 715 972 q 743 944 743 972 q 742 935 743 939 l 425 36 q 371 -1 413 -1 q 315 38 329 -1 l -4 935 q -6 944 -6 939 q 22 972 -6 972 l 39 972 q 65 954 56 972 l 369 88 l 672 954 q 699 972 681 972 z "},"W":{"ha":1079,"x_min":-26,"x_max":1057,"o":"m 1014 972 l 1029 972 q 1051 963 1044 972 q 1057 948 1057 954 q 1056 938 1057 942 l 807 44 q 749 -1 793 -1 q 693 44 706 -1 l 522 656 l 351 42 q 295 -1 336 -1 q 239 42 254 -1 l -24 936 q -25 949 -25 942 q -19 964 -25 956 q 3 972 -12 972 l 17 972 q 43 953 33 972 l 296 94 l 475 735 q 524 774 486 774 q 571 733 563 774 q 660 415 600 628 q 750 96 721 201 l 988 951 q 998 965 990 958 q 1014 972 1006 972 z "},"X":{"ha":679,"x_min":-6,"x_max":639,"o":"m 581 972 l 596 972 q 620 958 613 972 q 619 931 628 944 l 619 932 l 385 504 q 380 497 383 503 q 374 489 376 492 l 382 478 l 633 40 q 638 26 638 33 q 632 10 638 19 q 610 0 626 0 l 593 0 q 572 8 578 0 l 332 425 q 222 247 318 401 q 76 13 125 92 q 53 0 67 0 l 36 0 q 11 14 18 0 q 13 43 4 28 l 285 478 l 285 476 q 294 492 290 488 q 288 501 289 497 l 0 929 q -4 943 -4 936 q 1 961 -4 950 q 24 972 7 972 l 39 972 q 63 960 53 972 l 335 556 l 558 964 q 581 972 564 972 z "},"Y":{"ha":606,"x_min":-8,"x_max":588,"o":"m 543 972 l 558 972 q 581 962 575 972 q 586 944 586 951 q 582 931 586 938 l 582 932 l 347 504 q 332 483 336 488 l 332 28 q 324 8 332 17 q 304 0 315 0 l 290 0 q 271 8 279 0 q 263 28 263 17 l 263 485 q 250 501 256 492 l -3 931 q -7 944 -7 938 q -1 962 -7 951 q 21 972 4 972 l 38 972 q 61 960 51 972 l 297 554 l 521 964 q 543 972 526 972 z "},"Z":{"ha":767,"x_min":43,"x_max":714,"o":"m 60 51 q 82 103 60 69 l 82 104 l 588 904 l 71 904 q 51 912 60 904 q 43 932 43 919 l 43 944 q 51 964 43 956 q 71 972 60 972 l 613 972 q 671 924 671 972 q 651 874 671 899 l 651 875 l 647 871 l 649 868 l 140 68 l 686 68 q 706 60 697 68 q 714 40 714 53 l 714 28 q 706 8 714 17 q 686 0 697 0 l 115 0 q 60 51 60 0 z "},"[":{"ha":556,"x_min":150,"x_max":424,"o":"m 203 971 l 397 971 q 424 944 424 971 l 424 931 q 397 904 424 904 l 218 904 l 218 67 l 397 67 q 424 40 424 67 l 424 28 q 397 0 424 0 l 204 0 q 151 53 151 0 l 150 915 q 203 971 150 971 z "},"\\":{"ha":426,"x_min":-8,"x_max":411,"o":"m 21 950 l 36 950 q 63 932 53 950 l 408 36 q 410 24 410 31 q 404 9 410 18 q 383 0 399 0 l 369 0 q 343 18 351 0 l -6 914 q -7 926 -7 919 q -1 941 -7 932 q 21 950 6 950 z "},"]":{"ha":560,"x_min":150,"x_max":424,"o":"m 176 971 l 371 971 q 424 915 424 971 l 424 54 q 369 0 424 0 l 176 0 q 150 28 150 0 l 150 40 q 176 67 150 67 l 356 67 l 356 904 l 176 904 q 150 931 150 904 l 150 944 q 176 971 150 971 z "},"^":{"ha":563,"x_min":17,"x_max":546,"o":"m 229 988 q 281 1017 239 1017 q 332 988 322 1017 l 540 400 q 546 378 546 386 q 519 356 546 356 l 503 356 q 482 378 490 356 l 281 926 l 81 378 q 60 356 74 356 l 43 356 q 17 378 17 356 q 22 400 17 386 l 229 988 z "},"_":{"ha":638,"x_min":49,"x_max":581,"o":"m 76 54 l 553 54 q 572 47 564 54 q 581 28 581 39 l 581 14 q 572 -5 581 3 q 553 -12 564 -12 l 76 -12 q 57 -5 65 -12 q 49 14 49 3 l 49 28 q 57 47 49 39 q 76 54 65 54 z "},"`":{"ha":511,"x_min":136,"x_max":371,"o":"m 136 989 q 174 1017 136 1017 q 199 1010 193 1017 q 215 992 206 1004 l 364 803 q 371 787 371 794 q 364 769 371 779 q 335 758 357 758 q 294 782 314 758 l 146 967 q 136 989 136 978 z "},"a":{"ha":700,"x_min":101,"x_max":660,"o":"m 101 468 q 168 638 101 578 q 342 697 235 697 q 514 637 449 697 q 579 468 579 576 l 579 163 q 588 88 579 108 q 624 61 597 68 l 639 57 q 660 39 660 53 l 660 24 q 632 0 660 0 q 539 40 564 0 q 514 164 514 81 l 514 468 q 465 590 514 547 q 342 632 417 632 q 217 590 267 632 q 167 468 167 547 l 167 231 q 208 107 167 149 q 326 65 249 65 q 453 128 403 65 q 480 140 463 140 q 504 119 497 140 q 500 90 508 103 q 328 0 440 0 q 159 60 217 0 q 101 229 101 119 l 101 468 z "},"b":{"ha":640,"x_min":68,"x_max":547,"o":"m 96 1014 l 107 1014 q 126 1006 118 1014 q 135 988 135 999 l 135 628 q 315 697 207 697 q 485 637 424 697 q 547 468 547 576 l 547 226 q 481 57 547 117 q 307 -3 414 -3 q 134 58 200 -3 q 68 226 68 118 l 68 988 q 76 1006 68 999 q 96 1014 85 1014 m 318 631 q 135 546 199 631 l 135 228 q 183 106 135 149 q 307 64 232 64 q 431 106 382 64 q 481 228 481 147 l 481 465 q 436 588 481 546 q 318 631 392 631 z "},"c":{"ha":701,"x_min":97,"x_max":575,"o":"m 97 468 q 164 638 97 578 q 338 697 231 697 q 510 637 444 697 q 575 468 575 576 q 547 442 575 442 l 536 442 q 510 468 510 442 q 461 589 510 547 q 338 631 413 631 q 213 588 263 631 q 164 467 164 546 l 164 228 q 213 106 164 149 q 338 64 263 64 q 460 105 413 64 q 510 222 508 146 q 517 242 510 233 q 536 250 525 250 l 547 250 q 567 242 560 250 q 575 222 575 233 q 507 57 572 117 q 337 -3 442 -3 q 165 58 232 -3 q 97 226 97 118 l 97 468 z "},"d":{"ha":708,"x_min":101,"x_max":581,"o":"m 539 1017 l 556 1017 q 581 990 581 1017 l 581 226 q 515 58 581 118 q 342 -3 449 -3 q 168 57 235 -3 q 101 226 101 117 l 101 468 q 168 635 101 575 q 342 694 235 694 q 437 678 386 694 q 514 640 488 661 l 514 990 q 539 1017 514 1017 m 514 564 q 350 628 433 628 q 217 586 267 628 q 168 465 168 544 l 168 228 q 217 106 168 147 q 342 64 267 64 q 465 106 417 64 q 514 228 514 149 l 514 564 z "},"e":{"ha":681,"x_min":97,"x_max":575,"o":"m 97 468 q 164 638 97 578 q 338 697 231 697 q 510 637 444 697 q 575 468 575 576 l 575 385 q 518 325 575 325 l 218 325 q 198 333 206 325 q 190 353 190 342 l 190 364 q 198 383 190 375 q 218 392 206 392 l 510 392 l 510 467 q 461 588 510 546 q 338 631 413 631 q 213 588 263 631 q 164 467 164 546 l 164 228 q 213 106 164 149 q 337 64 263 64 q 460 105 411 64 q 510 222 510 146 q 517 242 510 233 q 536 250 525 250 l 547 250 q 567 242 560 250 q 575 222 575 233 q 508 56 574 115 q 338 -3 443 -3 q 165 58 232 -3 q 97 226 97 118 l 97 468 z "},"f":{"ha":467,"x_min":36,"x_max":421,"o":"m 219 694 l 367 694 q 385 686 378 694 q 393 667 393 678 l 393 661 q 385 642 393 650 q 367 633 378 633 l 219 633 l 218 26 q 192 0 218 0 l 181 0 q 153 26 153 0 l 154 801 q 208 960 153 904 q 358 1017 263 1017 q 421 989 421 1017 l 421 978 q 413 960 421 968 q 394 951 406 951 l 360 951 q 257 913 294 951 q 219 800 219 874 l 219 694 m 64 694 l 97 694 q 117 686 110 694 q 125 667 125 678 l 125 661 q 117 642 125 650 q 97 633 110 633 l 64 633 q 44 642 51 633 q 36 661 36 650 l 36 667 q 44 686 36 678 q 64 694 51 694 z "},"g":{"ha":719,"x_min":97,"x_max":575,"o":"m 97 467 q 164 636 97 576 q 338 696 231 696 q 510 636 446 696 q 575 467 575 576 l 575 -106 q 513 -285 575 -224 q 345 -347 450 -347 q 176 -289 240 -347 q 111 -125 113 -231 q 138 -100 111 -100 l 149 -100 q 176 -125 176 -100 q 226 -242 179 -201 q 346 -282 272 -282 q 465 -237 419 -282 q 510 -104 510 -193 l 510 50 q 333 -4 435 -4 q 164 56 231 -4 q 97 225 97 115 l 97 467 m 510 467 q 461 588 510 546 q 337 631 413 631 q 213 588 261 631 q 164 465 164 546 l 164 226 q 215 105 164 147 q 335 63 265 63 q 451 85 406 63 q 510 136 496 108 l 510 467 z "},"h":{"ha":661,"x_min":81,"x_max":556,"o":"m 339 697 q 495 636 435 697 q 556 468 556 575 l 556 28 q 529 0 556 0 l 517 0 q 489 28 489 0 l 489 467 q 446 589 489 546 q 330 632 403 632 q 204 579 257 632 q 181 567 192 567 q 154 594 156 567 q 160 615 154 604 q 229 673 178 649 q 339 697 281 697 m 108 1015 l 119 1015 q 139 1008 131 1015 q 147 988 147 1000 l 147 28 q 139 8 147 15 q 119 0 131 0 l 108 0 q 89 8 97 0 q 81 28 81 15 l 81 988 q 89 1008 81 1000 q 108 1015 97 1015 z "},"i":{"ha":283,"x_min":58,"x_max":217,"o":"m 126 696 l 150 696 q 172 689 167 696 q 178 668 178 682 l 178 28 q 169 8 178 15 q 150 0 161 0 l 126 0 q 107 8 115 0 q 99 28 99 15 l 99 668 q 106 691 99 686 q 126 696 114 696 m 72 1005 q 79 1011 72 1005 q 136 1017 86 1017 q 201 1003 186 1017 q 217 949 217 990 l 217 931 q 201 871 217 883 q 136 858 186 858 q 72 871 86 858 q 58 931 58 883 l 58 949 q 72 1005 58 993 m 168 944 q 162 963 168 958 q 137 968 156 968 q 113 964 118 968 q 107 944 107 960 l 107 931 q 113 911 107 915 q 138 907 118 907 q 163 911 157 907 q 168 931 168 915 l 168 944 z "},"j":{"ha":344,"x_min":-36,"x_max":271,"o":"m 1 -282 q 154 -119 154 -282 l 154 667 q 163 687 154 679 q 182 694 171 694 l 193 694 q 213 687 204 694 q 221 667 221 679 l 221 -119 q 3 -347 221 -347 q -10 -347 -3 -347 q -36 -321 -36 -347 l -36 -310 q -28 -290 -36 -297 q -11 -282 -19 -282 q 1 -282 -3 -282 m 126 1005 q 133 1011 126 1005 q 190 1017 140 1017 q 256 1003 240 1017 q 271 949 271 990 l 271 931 q 256 871 271 883 q 190 858 240 858 q 126 871 140 858 q 113 931 113 883 l 113 949 q 126 1005 113 993 m 222 944 q 216 963 222 958 q 191 968 210 968 q 167 964 172 968 q 161 944 161 960 l 161 931 q 167 911 161 915 q 192 907 172 907 q 217 911 211 907 q 222 931 222 915 l 222 944 z "},"k":{"ha":654,"x_min":82,"x_max":574,"o":"m 108 1014 l 121 1014 q 147 988 147 1014 l 147 97 q 329 401 178 144 q 497 686 481 658 q 518 694 503 694 l 549 694 q 567 681 567 694 q 464 497 567 667 l 385 367 l 567 33 q 574 14 574 22 q 556 0 574 0 l 525 0 q 503 14 514 0 l 346 300 q 185 36 201 58 q 158 7 169 14 q 131 0 146 0 q 82 54 82 0 l 82 988 q 108 1014 82 1014 z "},"l":{"ha":408,"x_min":97,"x_max":338,"o":"m 125 1014 l 136 1014 q 163 988 163 1014 l 163 214 q 289 65 163 65 l 311 65 q 330 57 322 65 q 338 39 338 49 l 338 28 q 288 0 338 0 q 144 54 193 0 q 97 213 96 108 l 97 988 q 125 1014 97 1014 z "},"m":{"ha":1082,"x_min":92,"x_max":971,"o":"m 757 697 q 915 638 860 697 q 971 468 971 578 l 971 28 q 944 0 971 0 l 933 0 q 906 28 906 0 l 906 467 q 867 590 906 549 q 752 632 828 632 q 619 569 676 632 q 593 557 604 557 q 567 585 568 557 q 572 607 567 596 q 650 672 601 647 q 757 697 699 697 m 118 693 l 129 693 q 149 685 140 693 q 157 665 157 678 l 157 28 q 149 8 157 15 q 129 0 140 0 l 118 0 q 92 28 92 0 l 92 665 q 118 693 92 693 m 169 607 q 343 697 233 697 q 508 638 453 697 q 564 468 564 578 l 564 28 q 538 0 564 0 l 526 0 q 499 28 499 0 l 499 467 q 460 590 499 549 q 347 632 421 632 q 217 569 272 632 q 190 557 201 557 q 164 585 165 557 q 169 607 164 596 z "},"n":{"ha":665,"x_min":82,"x_max":560,"o":"m 344 697 q 504 642 449 697 q 560 482 560 588 l 560 28 q 533 0 560 0 l 522 0 q 494 28 494 0 l 494 467 q 343 632 494 632 q 208 569 264 632 q 182 557 193 557 q 156 585 157 557 q 161 607 156 596 q 239 672 190 647 q 344 697 288 697 m 110 693 l 121 693 q 140 685 132 693 q 149 665 149 678 l 149 28 q 140 8 149 15 q 121 0 132 0 l 110 0 q 90 8 99 0 q 82 28 82 15 l 82 665 q 90 685 82 678 q 110 693 99 693 z "},"o":{"ha":700,"x_min":97,"x_max":575,"o":"m 97 468 q 164 638 97 578 q 338 697 231 697 q 510 637 444 697 q 575 468 575 576 l 575 226 q 510 58 575 118 q 338 -3 444 -3 q 165 58 232 -3 q 97 226 97 118 l 97 468 m 510 468 q 461 590 510 547 q 338 632 413 632 q 213 590 263 632 q 163 468 163 547 l 163 226 q 213 105 163 147 q 338 63 263 63 q 461 105 413 63 q 510 226 510 147 l 510 468 z "},"p":{"ha":708,"x_min":81,"x_max":558,"o":"m 81 468 q 147 637 81 576 q 319 697 213 697 q 492 638 425 697 q 558 468 558 578 l 558 226 q 492 58 558 119 q 319 -3 425 -3 q 146 54 213 -3 l 146 -321 q 119 -347 146 -347 l 107 -347 q 81 -321 81 -347 l 81 468 m 444 589 q 419 610 444 589 q 319 631 394 631 q 195 588 244 631 q 146 467 146 546 l 146 129 q 313 64 231 64 q 444 107 394 64 q 493 229 493 150 l 493 467 q 444 589 493 547 z "},"q":{"ha":717,"x_min":67,"x_max":546,"o":"m 133 638 q 167 667 133 638 q 307 697 200 697 q 480 637 414 697 q 546 468 546 576 l 546 -321 q 538 -340 546 -332 q 518 -347 529 -347 l 507 -347 q 488 -340 496 -347 q 479 -321 479 -332 l 479 54 q 303 -3 406 -3 q 134 58 201 -3 q 67 226 67 119 l 67 468 q 133 638 67 578 m 431 588 q 406 609 431 588 q 307 631 382 631 q 183 589 232 631 q 133 467 133 547 l 133 229 q 183 107 133 150 q 315 64 232 64 q 456 121 399 64 q 479 129 463 132 l 479 467 q 431 588 479 546 z "},"r":{"ha":404,"x_min":94,"x_max":360,"o":"m 333 697 q 360 669 360 697 l 360 660 q 352 640 360 649 q 333 632 344 632 q 207 592 254 632 q 160 468 160 551 l 160 28 q 151 8 160 15 q 132 0 143 0 l 122 0 q 103 8 111 0 q 94 28 94 15 l 94 468 q 158 640 94 582 q 333 697 222 697 z "},"s":{"ha":632,"x_min":79,"x_max":549,"o":"m 104 513 q 104 552 104 513 q 158 644 104 592 q 317 697 211 697 q 481 645 424 697 q 538 492 538 593 q 530 473 538 481 q 511 465 522 465 l 499 465 q 480 473 488 465 q 472 490 472 481 q 315 631 472 631 q 206 596 243 631 q 169 508 169 561 q 205 424 169 456 q 339 374 240 393 q 493 313 438 354 q 549 188 549 271 q 488 51 549 106 q 320 -4 428 -4 q 146 51 213 -4 q 79 213 79 106 q 107 242 79 242 l 118 242 q 144 214 144 242 q 324 63 144 63 q 444 99 404 63 q 483 190 483 136 q 442 269 483 244 q 297 315 400 293 q 149 386 193 338 q 104 513 104 435 z "},"t":{"ha":467,"x_min":22,"x_max":392,"o":"m 157 1014 l 168 1014 q 194 988 194 1014 l 190 214 q 230 104 192 143 q 331 65 268 65 l 365 65 q 384 57 376 65 q 392 39 392 49 l 392 28 q 329 0 392 0 q 182 56 238 0 q 125 213 126 113 l 129 988 q 157 1014 132 1014 m 50 694 l 83 694 q 103 686 96 694 q 111 667 111 678 l 111 658 q 103 639 111 647 q 83 631 96 631 l 50 631 q 30 639 38 631 q 22 658 22 647 l 22 667 q 30 686 22 678 q 50 694 38 694 m 236 694 l 339 694 q 358 686 350 694 q 365 667 365 678 l 365 658 q 358 639 365 647 q 339 631 350 631 l 236 631 q 217 639 225 631 q 208 658 208 647 l 208 667 q 217 686 208 678 q 236 694 225 694 z "},"u":{"ha":692,"x_min":99,"x_max":657,"o":"m 125 697 l 136 697 q 164 669 164 697 l 164 231 q 205 107 164 149 q 321 65 246 65 q 450 125 396 65 q 476 140 463 140 q 503 110 503 140 q 496 88 503 97 q 418 24 468 49 q 313 0 368 0 q 158 60 217 0 q 99 229 99 121 l 99 669 q 125 697 99 697 m 536 694 l 550 694 q 576 667 576 694 l 576 163 q 585 88 576 108 q 621 61 594 68 l 636 57 q 657 39 657 53 l 657 24 q 629 0 657 0 q 535 40 561 0 q 510 164 510 81 l 510 667 q 536 694 510 694 z "},"v":{"ha":678,"x_min":42,"x_max":610,"o":"m 568 694 l 581 694 q 602 685 596 694 q 608 670 608 676 q 607 658 608 664 l 378 38 q 324 -1 361 -1 q 274 36 286 -1 l 44 658 q 43 670 43 664 q 49 685 43 676 q 71 694 56 694 l 83 694 q 110 676 100 694 l 326 83 l 542 676 q 568 694 550 694 z "},"w":{"ha":813,"x_min":4,"x_max":776,"o":"m 736 694 l 749 694 q 768 685 761 694 q 775 670 775 676 q 763 611 775 664 q 699 347 750 558 q 622 32 649 135 q 571 -3 611 -3 q 515 39 531 -3 l 390 447 q 265 39 301 164 q 210 -3 250 -3 q 158 32 169 -3 l 6 661 q 4 672 4 665 q 10 686 4 678 q 31 694 17 694 l 43 694 q 69 674 65 694 l 211 86 l 347 526 q 390 565 356 565 q 436 528 424 565 q 569 86 481 374 l 713 674 q 736 694 718 694 z "},"x":{"ha":614,"x_min":39,"x_max":539,"o":"m 488 694 l 503 694 q 525 680 518 694 q 525 651 532 665 q 431 507 494 604 q 339 363 368 410 l 339 364 q 329 350 331 351 l 338 336 l 338 338 l 535 43 q 539 29 539 36 q 511 0 539 0 l 497 0 q 474 11 485 0 l 290 290 q 198 151 260 243 q 106 11 136 58 q 82 0 94 0 l 68 0 q 45 10 50 0 q 40 28 40 21 q 44 43 40 35 l 242 339 l 242 338 l 250 350 q 240 364 243 360 l 54 651 q 54 680 47 665 q 76 694 61 694 l 90 694 q 114 683 103 694 l 290 411 l 465 683 q 488 694 476 694 z "},"y":{"ha":706,"x_min":94,"x_max":571,"o":"m 532 694 l 544 694 q 571 667 571 694 l 571 -75 q 508 -257 571 -194 q 336 -319 444 -319 q 169 -262 228 -319 q 107 -97 110 -204 q 133 -71 107 -71 l 146 -71 q 172 -97 172 -71 q 222 -214 175 -174 q 340 -254 268 -254 q 506 -76 506 -254 l 506 667 q 532 694 506 694 m 121 697 l 132 697 q 160 669 160 697 l 160 231 q 201 107 160 149 q 317 65 242 65 q 446 125 392 65 q 472 140 458 140 q 499 110 499 140 q 492 88 499 97 q 414 24 464 49 q 308 0 364 0 q 153 60 213 0 q 94 229 94 121 l 94 669 q 121 697 94 697 z "},"z":{"ha":633,"x_min":75,"x_max":533,"o":"m 103 694 l 471 694 q 526 646 526 694 q 503 593 526 625 l 153 65 l 507 65 q 533 39 533 65 l 533 28 q 507 0 533 0 l 126 0 q 89 14 103 0 q 75 49 75 28 q 99 103 75 69 l 444 629 l 103 629 q 76 656 76 629 l 76 667 q 103 694 76 694 z "},"{":{"ha":471,"x_min":-3,"x_max":433,"o":"m 404 954 q 426 946 419 954 q 432 932 432 938 q 419 897 432 906 q 400 888 407 888 q 210 715 210 883 l 210 676 q 210 660 210 668 q 143 474 210 517 q 203 376 193 442 q 210 274 210 324 l 210 236 q 404 64 210 68 q 424 56 415 64 q 432 38 432 49 l 426 17 q 400 -3 421 -3 q 143 236 143 1 l 143 271 q 143 285 143 278 q 56 429 143 429 l 49 429 q 13 441 29 429 q -3 475 -3 453 q 13 508 -3 497 q 49 519 29 519 l 56 519 q 143 663 143 519 q 143 676 143 669 l 143 715 q 404 954 143 950 z "},"|":{"ha":293,"x_min":106,"x_max":175,"o":"m 132 1014 l 149 1014 q 175 988 175 1014 l 175 -100 q 167 -119 175 -111 q 149 -128 160 -128 l 132 -128 q 113 -119 121 -128 q 106 -100 106 -111 l 106 988 q 132 1014 106 1014 z "},"}":{"ha":471,"x_min":19,"x_max":454,"o":"m 308 715 l 308 676 q 308 663 308 669 q 396 519 308 519 l 404 519 q 438 508 422 519 q 454 475 454 497 q 438 441 454 453 q 404 429 422 429 l 396 429 q 308 285 308 429 q 308 271 308 278 l 308 236 q 47 -3 308 1 q 21 25 21 -3 l 26 44 q 36 58 28 53 q 51 64 44 64 q 243 236 243 68 l 243 274 q 308 474 243 429 q 260 535 276 493 q 243 597 244 578 q 242 635 242 617 q 243 676 242 653 l 243 715 q 47 888 243 883 q 26 896 32 888 q 19 910 19 904 q 26 935 19 915 q 51 954 33 954 q 308 715 308 950 z "},"~":{"ha":833,"x_min":92,"x_max":681,"o":"m 629 706 l 663 706 q 681 682 681 706 q 639 565 681 606 q 539 525 597 525 q 425 555 481 525 q 319 614 369 585 q 238 643 269 643 q 178 621 206 643 q 151 550 151 599 q 131 525 151 525 l 110 525 q 92 550 92 525 q 133 662 92 621 q 235 703 175 703 q 391 644 296 703 q 525 586 486 586 q 617 682 617 586 q 629 706 617 706 z "},"¡":{"ha":308,"x_min":69,"x_max":228,"o":"m 156 -278 l 142 -278 q 115 -251 115 -278 l 115 414 q 142 440 115 440 l 156 440 q 175 433 167 440 q 183 414 183 425 l 183 -251 q 175 -270 183 -262 q 156 -278 167 -278 m 213 553 q 205 547 213 553 q 147 540 197 540 q 83 552 97 540 q 69 608 69 564 l 69 626 q 83 686 69 674 q 147 699 97 699 q 213 686 197 699 q 228 626 228 674 l 228 608 q 213 553 228 567 m 118 613 q 124 593 118 597 q 148 589 129 589 q 173 594 167 589 q 179 613 179 599 l 179 626 q 174 646 179 642 q 149 650 168 650 q 124 646 129 650 q 118 626 118 642 l 118 613 z "},"¢":{"ha":701,"x_min":97,"x_max":575,"o":"m 336 950 l 346 950 q 365 942 357 950 q 374 924 374 935 l 374 696 q 520 627 465 686 q 575 468 575 568 q 547 442 575 442 l 536 442 q 510 468 510 442 q 472 577 510 536 q 374 628 435 618 l 374 65 q 471 115 433 75 q 510 222 508 156 q 517 242 510 233 q 536 250 525 250 l 547 250 q 567 242 560 250 q 575 222 575 233 q 517 67 572 125 q 374 -1 463 8 l 374 -228 q 365 -247 374 -239 q 346 -254 357 -254 l 336 -254 q 317 -247 325 -254 q 308 -228 308 -239 l 308 -1 q 155 67 213 7 q 97 226 97 126 l 97 468 q 155 628 97 569 q 308 696 213 688 l 308 924 q 317 942 308 935 q 336 950 325 950 m 164 228 q 203 115 164 156 q 308 65 243 74 l 308 629 q 203 579 243 621 q 164 467 164 538 l 164 228 z "},"£":{"ha":833,"x_min":39,"x_max":689,"o":"m 403 904 q 370 904 403 904 q 298 873 338 904 q 244 799 258 842 q 231 704 231 757 l 231 69 l 661 71 q 681 63 672 71 q 689 42 689 54 l 689 28 q 661 0 686 3 l 222 1 q 173 14 185 1 q 161 63 161 26 l 160 711 q 219 900 160 828 q 406 972 278 972 q 574 929 488 972 q 614 903 604 914 q 615 879 624 892 l 597 850 q 544 861 590 836 q 403 904 469 904 m 65 526 l 129 526 q 149 518 140 526 q 157 499 157 510 l 157 486 q 149 467 157 475 q 129 460 140 460 l 65 460 q 39 486 39 460 l 39 499 q 47 518 39 510 q 65 526 54 526 m 275 526 l 549 526 q 569 518 561 526 q 576 499 576 510 l 576 486 q 549 460 576 460 l 275 460 q 256 467 264 460 q 247 486 247 475 l 247 499 q 256 518 247 510 q 275 526 264 526 z "},"¤":{"ha":846,"x_min":83,"x_max":763,"o":"m 90 744 q 83 765 83 754 q 95 787 83 775 q 117 799 107 799 q 138 792 128 799 l 242 685 q 422 749 319 749 q 603 686 525 749 l 708 792 q 728 799 715 799 q 752 788 742 799 q 763 765 763 778 q 756 744 763 751 l 649 639 q 711 460 711 561 q 649 279 711 358 l 756 174 q 763 153 763 164 q 751 131 763 143 q 728 119 739 119 q 708 126 718 119 l 603 233 q 424 172 525 172 q 243 233 324 172 l 138 126 q 118 119 128 119 q 90 133 104 119 q 83 154 83 144 q 90 174 83 164 l 197 279 q 135 460 135 358 q 196 639 135 561 l 90 744 m 644 460 q 644 506 644 460 q 579 617 644 551 q 423 682 514 682 q 267 617 332 682 q 203 460 203 553 q 267 304 203 368 q 423 240 331 240 q 580 305 515 240 q 644 460 644 369 z "},"¥":{"ha":606,"x_min":-6,"x_max":578,"o":"m 60 496 l 244 496 l 0 908 q -4 922 -4 915 q 1 940 -4 929 q 24 950 7 950 l 39 950 q 63 938 56 950 l 294 543 l 510 936 q 535 950 517 950 l 550 950 q 572 940 567 950 q 578 924 578 931 q 574 910 578 917 l 343 496 l 522 496 q 550 469 550 496 l 550 457 q 542 438 550 446 q 522 429 535 429 l 326 429 l 326 389 l 522 389 q 542 381 535 389 q 550 361 550 372 l 550 349 q 542 329 550 338 q 522 321 535 321 l 326 321 l 326 28 q 300 0 326 0 l 288 0 q 268 8 276 0 q 260 28 260 15 l 260 321 l 60 321 q 41 329 49 321 q 33 349 33 338 l 33 361 q 41 381 33 372 q 60 389 49 389 l 260 389 l 260 429 l 60 429 q 41 438 49 429 q 33 457 33 446 l 33 469 q 60 496 33 496 z "},"¦":{"ha":278,"x_min":101,"x_max":168,"o":"m 129 950 l 142 950 q 168 924 168 950 l 168 590 q 160 571 168 579 q 142 563 153 563 l 129 563 q 109 571 117 563 q 101 590 101 579 l 101 924 q 129 950 101 950 m 129 392 l 142 392 q 160 383 153 392 q 168 364 168 375 l 168 31 q 142 4 168 4 l 129 4 q 101 31 101 4 l 101 364 q 109 383 101 375 q 129 392 117 392 z "},"§":{"ha":658,"x_min":56,"x_max":603,"o":"m 104 831 q 104 866 104 831 q 166 958 104 900 q 347 1017 228 1017 q 535 957 467 1017 q 603 782 603 897 q 595 763 603 771 q 576 754 588 754 l 564 754 q 536 786 536 754 q 486 908 536 867 q 354 949 436 949 q 224 913 272 949 q 176 819 176 876 q 242 703 176 750 q 354 633 286 671 q 433 590 422 596 q 477 563 443 583 q 522 533 511 543 q 553 503 532 524 q 582 467 575 483 q 603 374 603 414 q 556 244 603 300 q 428 167 508 188 q 541 77 510 121 q 572 -28 572 33 q 500 -178 572 -122 q 320 -233 428 -233 q 134 -172 213 -233 q 56 0 56 -111 q 63 19 56 11 q 82 28 71 28 l 94 28 q 122 -4 122 28 q 181 -123 122 -76 q 317 -169 239 -169 q 451 -133 396 -169 q 507 -31 507 -96 q 444 83 507 38 q 293 165 394 118 q 128 272 192 211 q 65 412 65 333 q 108 549 65 490 q 226 631 150 607 q 132 719 160 676 q 104 831 104 763 m 133 426 q 203 289 133 343 q 338 213 256 250 q 482 260 426 217 q 538 372 538 304 q 478 489 538 446 q 403 533 440 514 l 300 586 q 181 537 229 583 q 133 426 133 490 z "},"¨":{"ha":501,"x_min":54,"x_max":428,"o":"m 285 864 q 297 915 285 904 q 355 926 310 926 q 414 915 400 926 q 428 864 428 903 l 428 847 q 414 794 428 806 q 355 782 400 782 q 297 794 310 782 q 285 847 285 806 l 285 864 m 54 864 q 67 915 54 904 q 124 926 79 926 q 183 915 169 926 q 197 864 197 903 l 197 847 q 183 794 197 806 q 124 782 169 782 q 67 793 79 782 q 54 847 54 804 l 54 864 m 153 861 q 147 878 153 874 q 125 882 142 882 q 103 878 108 882 q 99 861 99 875 l 99 847 q 103 830 99 833 q 126 826 108 826 q 148 830 143 826 q 153 847 153 833 l 153 861 m 383 861 q 378 878 383 874 q 356 882 372 882 q 334 878 339 882 q 329 861 329 875 l 329 847 q 334 830 329 833 q 356 826 339 826 q 378 830 374 826 q 383 847 383 833 l 383 861 z "},"©":{"ha":861,"x_min":28,"x_max":833,"o":"m 138 947 q 193 998 138 947 q 433 1050 249 1050 q 726 944 618 1050 q 833 664 833 838 l 833 386 q 726 106 833 213 q 435 0 618 0 q 140 107 251 0 q 28 386 28 214 l 28 664 q 138 947 28 843 m 211 632 q 272 786 211 732 q 429 840 332 840 q 585 785 526 840 q 644 632 644 731 q 619 608 644 608 l 608 608 q 592 615 599 608 q 585 632 585 622 q 541 741 585 703 q 429 779 497 779 q 317 741 361 779 q 272 631 272 703 l 272 414 q 317 303 272 342 q 429 265 361 265 q 540 302 497 265 q 585 408 583 339 q 608 433 585 433 l 619 433 q 644 408 644 433 q 583 258 642 313 q 428 204 524 204 q 272 260 333 204 q 211 413 211 315 l 211 632 m 669 906 q 621 944 669 906 q 433 983 572 983 q 194 905 294 983 q 94 683 94 826 l 94 367 q 194 145 94 224 q 433 67 294 67 q 669 144 572 67 q 767 367 767 222 l 767 683 q 669 906 767 828 z "},"ª":{"ha":700,"x_min":181,"x_max":568,"o":"m 522 554 q 447 646 447 554 l 447 856 q 419 932 447 904 q 342 960 392 960 q 265 931 293 960 q 238 853 238 901 l 238 718 q 343 604 238 604 q 407 624 375 604 q 418 621 414 629 l 431 589 q 431 575 436 579 q 328 547 389 547 q 224 588 267 547 q 181 704 181 629 l 181 867 q 224 979 181 942 q 343 1017 268 1017 q 504 857 504 1017 l 504 678 q 517 613 504 622 q 550 607 532 600 q 568 604 568 614 l 568 569 q 556 559 568 564 q 522 554 544 554 z "},"«":{"ha":775,"x_min":83,"x_max":719,"o":"m 668 736 q 688 740 676 740 q 708 731 699 740 q 718 706 718 721 q 701 678 718 690 l 389 444 l 701 211 q 719 186 719 199 q 686 147 719 147 q 668 153 675 147 l 349 393 q 321 443 321 414 q 350 494 321 472 l 668 736 m 431 736 q 450 740 439 740 q 471 731 461 740 q 481 706 481 721 q 464 678 481 690 l 151 444 l 464 211 q 482 186 482 199 q 449 147 482 147 q 431 153 438 147 l 111 393 q 83 443 83 414 q 113 494 83 472 l 431 736 z "},"¬":{"ha":667,"x_min":-11,"x_max":683,"o":"m 17 694 l 647 694 q 676 690 672 694 q 681 685 679 686 q 683 678 682 683 q 683 669 683 672 l 683 435 q 657 408 683 408 l 643 408 q 617 435 617 408 l 617 628 l 17 628 q -11 654 -11 628 l -11 667 q 17 694 -11 694 z "},"­":{"ha":488,"x_min":43,"x_max":444,"o":"m 71 481 l 417 481 q 444 454 444 481 l 444 440 q 417 414 444 414 l 71 414 q 43 440 43 414 l 43 454 q 71 481 43 481 z "},"®":{"ha":833,"x_min":28,"x_max":833,"o":"m 138 947 q 193 998 138 947 q 433 1050 249 1050 q 726 944 618 1050 q 833 664 833 838 l 833 386 q 726 106 833 213 q 435 0 618 0 q 140 107 251 0 q 28 386 28 214 l 28 664 q 138 947 28 843 m 669 906 q 621 944 669 906 q 433 983 572 983 q 194 905 294 983 q 94 683 94 826 l 94 367 q 194 145 94 224 q 433 67 294 67 q 669 144 572 67 q 767 367 767 222 l 767 683 q 669 906 767 828 m 289 854 l 443 854 q 593 808 536 854 q 650 669 650 761 q 606 550 650 597 q 547 515 588 531 q 453 500 507 500 l 439 500 l 618 228 q 636 193 636 197 q 614 178 636 178 l 596 178 q 569 189 576 178 l 376 482 q 358 524 358 513 q 394 553 358 553 l 438 553 q 589 667 589 553 q 573 733 589 706 q 531 772 557 761 q 442 794 485 794 l 300 794 l 300 200 q 274 179 300 179 l 267 179 q 240 200 240 179 l 240 806 q 248 847 240 840 q 289 854 256 854 z "},"¯":{"ha":707,"x_min":69,"x_max":638,"o":"m 97 835 l 611 835 q 638 808 638 835 l 638 796 q 611 768 638 768 l 97 768 q 69 796 69 768 l 69 808 q 97 835 69 835 z "},"°":{"ha":608,"x_min":125,"x_max":483,"o":"m 178 1000 q 204 1026 178 1000 q 304 1053 231 1053 q 431 1000 378 1053 q 483 874 483 947 q 431 747 483 800 q 304 694 378 694 q 178 747 231 694 q 125 874 125 800 q 178 1000 125 947 m 383 952 q 367 968 383 952 q 304 983 351 983 q 226 952 257 983 q 194 874 194 921 q 226 795 194 826 q 304 764 257 764 q 383 795 351 764 q 414 874 414 826 q 383 952 414 921 z "},"±":{"ha":508,"x_min":-50,"x_max":547,"o":"m -21 508 l 217 508 l 217 747 q 243 774 217 774 l 254 774 q 283 747 281 771 l 283 508 l 521 508 q 547 482 547 508 l 547 469 q 540 450 547 458 q 521 442 532 442 l 283 442 l 283 204 q 256 176 281 176 l 242 176 q 217 204 217 179 l 217 442 l -21 442 q -41 450 -33 442 q -49 469 -49 458 l -49 482 q -21 508 -49 508 m -22 68 l 519 68 q 546 42 546 68 l 546 29 q 538 10 546 18 q 519 1 531 1 l -22 1 q -42 10 -35 1 q -50 29 -50 18 l -50 42 q -22 68 -50 68 z "},"²":{"ha":694,"x_min":165,"x_max":508,"o":"m 446 1075 q 339 1169 446 1169 q 225 1086 251 1169 q 208 1076 222 1076 l 199 1076 q 178 1089 178 1076 q 182 1111 178 1107 q 242 1191 199 1163 q 351 1219 286 1219 q 458 1178 415 1219 q 501 1074 501 1138 q 396 853 501 988 q 308 747 375 826 l 242 668 l 490 668 q 508 651 508 668 l 508 632 q 490 615 508 615 q 203 615 347 615 q 165 647 165 615 q 215 721 165 663 q 354 888 332 857 q 446 1075 446 1006 z "},"³":{"ha":743,"x_min":185,"x_max":536,"o":"m 210 1114 q 260 1197 217 1161 q 371 1232 303 1232 q 481 1186 439 1232 q 522 1071 522 1140 q 499 990 522 1028 q 431 932 476 951 q 536 783 536 900 q 482 658 536 700 q 360 617 428 617 q 188 750 215 617 q 185 763 185 758 q 193 767 185 767 l 226 768 l 231 768 q 235 758 232 768 q 360 667 258 667 q 451 697 415 667 q 486 783 486 728 q 451 873 486 839 q 342 907 417 907 l 290 907 q 280 909 281 907 q 279 932 279 911 q 292 956 286 954 l 339 956 q 439 988 406 956 q 472 1071 472 1019 q 444 1153 472 1122 q 358 1183 417 1183 q 264 1104 278 1183 q 257 1099 263 1099 l 214 1099 q 210 1114 206 1099 z "},"´":{"ha":497,"x_min":136,"x_max":371,"o":"m 335 1017 q 371 985 371 1017 q 361 967 371 978 l 213 782 q 172 758 193 758 q 143 769 150 758 q 136 787 136 779 q 143 803 136 794 l 292 992 q 299 1000 297 997 q 303 1006 300 1003 q 308 1010 307 1010 q 314 1014 310 1011 q 321 1016 318 1017 q 328 1016 324 1015 q 335 1017 332 1017 z "},"µ":{"ha":658,"x_min":82,"x_max":557,"o":"m 108 694 l 121 694 q 147 667 147 694 l 147 147 q 171 133 160 147 q 318 64 214 64 q 442 106 393 64 q 492 228 492 149 l 492 667 q 519 694 492 694 l 531 694 q 557 667 557 694 l 557 226 q 490 58 557 119 q 319 -3 424 -3 q 147 58 215 -3 l 147 -293 q 121 -319 147 -319 l 108 -319 q 82 -293 82 -319 l 82 667 q 108 694 82 694 z "},"¶":{"ha":833,"x_min":88,"x_max":700,"o":"m 353 972 l 424 972 q 446 944 446 972 l 446 932 q 424 907 446 907 l 356 906 q 154 719 154 900 q 214 583 154 632 q 365 535 274 535 l 424 535 q 444 507 444 535 l 444 497 q 424 469 444 469 l 361 469 q 160 542 233 469 q 88 726 88 614 q 161 906 88 839 q 353 972 235 972 m 529 1014 l 546 1014 q 572 988 572 1014 l 572 -100 q 565 -119 572 -111 q 546 -128 557 -128 l 529 -128 q 510 -119 518 -128 q 503 -100 503 -111 l 503 988 q 529 1014 503 1014 m 657 1014 l 674 1014 q 700 988 700 1014 l 700 -100 q 692 -119 700 -111 q 674 -128 685 -128 l 657 -128 q 638 -119 646 -128 q 631 -100 631 -111 l 631 988 q 657 1014 631 1014 z "},"·":{"ha":317,"x_min":63,"x_max":254,"o":"m 80 477 q 89 484 80 477 q 157 492 97 492 q 235 476 217 492 q 254 410 254 461 l 254 389 q 236 315 254 331 q 157 300 218 300 q 79 315 96 300 q 63 389 63 331 l 63 410 q 80 477 63 463 m 194 403 q 188 426 194 421 q 158 432 181 432 q 128 427 135 432 q 122 403 122 422 l 122 389 q 128 365 122 369 q 158 360 135 360 q 188 365 182 360 q 194 389 194 369 l 194 403 z "},"¸":{"ha":833,"x_min":254,"x_max":508,"o":"m 508 -171 l 508 -229 q 470 -316 508 -285 q 387 -347 432 -347 q 306 -333 342 -347 q 254 -299 271 -318 l 286 -246 q 328 -277 301 -267 q 381 -287 356 -287 q 428 -270 407 -287 q 450 -219 450 -253 l 450 -181 q 428 -131 450 -149 q 367 -112 406 -112 q 315 -117 328 -112 l 315 -115 l 368 42 l 426 40 l 393 -53 q 477 -87 446 -57 q 508 -171 508 -118 z "},"¹":{"ha":532,"x_min":82,"x_max":321,"o":"m 321 1182 l 321 635 q 304 615 321 615 l 281 615 q 264 633 264 615 l 264 1171 l 118 1056 q 96 1057 104 1044 l 86 1069 q 82 1079 82 1074 q 90 1092 82 1085 l 242 1217 q 283 1233 261 1233 q 321 1182 321 1232 z "},"º":{"ha":700,"x_min":188,"x_max":514,"o":"m 188 860 q 233 976 188 936 q 351 1017 278 1017 q 469 975 425 1017 q 514 860 514 933 l 514 694 q 469 580 514 621 q 352 539 425 539 q 233 580 279 539 q 188 694 188 621 l 188 860 m 353 960 q 269 928 296 960 q 243 846 243 897 l 243 708 q 270 627 243 658 q 353 596 297 596 q 454 708 454 596 l 454 846 q 353 960 454 960 z "},"»":{"ha":747,"x_min":42,"x_max":678,"o":"m 281 706 q 281 713 281 706 q 290 731 281 721 q 311 740 300 740 q 331 736 322 740 l 649 494 q 678 443 678 472 q 650 393 678 414 l 331 153 q 307 147 324 147 q 285 161 290 147 q 279 187 279 175 q 297 211 279 199 l 608 444 l 297 678 q 281 706 281 690 m 43 706 q 43 713 43 706 q 53 731 43 721 q 74 740 63 740 q 93 736 85 740 l 411 494 q 440 443 440 472 q 413 393 440 414 l 93 153 q 69 147 86 147 q 47 161 53 147 q 42 187 42 175 q 60 211 42 199 l 371 444 l 60 678 q 43 706 43 690 z "},"¼":{"ha":972,"x_min":29,"x_max":957,"o":"m 268 961 l 268 414 q 251 394 268 394 l 228 394 q 211 413 211 394 l 211 950 l 65 835 q 43 836 51 824 l 33 849 q 29 858 29 853 q 38 871 29 864 l 189 996 q 231 1013 208 1013 q 268 961 268 1011 m 90 0 q 69 21 69 0 q 75 36 69 29 l 864 1007 q 893 1025 878 1025 l 897 1025 q 920 1013 913 1025 q 918 989 928 1000 l 131 18 q 106 0 119 0 l 90 0 m 764 593 q 805 617 781 617 q 842 606 829 617 q 856 576 856 594 l 856 260 l 940 260 q 952 253 947 260 q 957 240 957 247 l 957 231 q 940 207 957 207 l 856 207 l 856 17 q 839 0 856 0 l 819 0 q 801 17 801 0 l 801 207 l 578 207 q 533 236 542 207 q 532 250 532 242 q 539 269 532 258 l 764 593 m 801 260 l 801 560 l 596 260 l 801 260 z "},"½":{"ha":694,"x_min":29,"x_max":976,"o":"m 268 971 l 268 424 q 251 404 268 404 l 228 404 q 211 422 211 404 l 211 960 l 65 844 q 43 846 51 833 l 33 858 q 29 868 29 863 q 38 881 29 874 l 189 1006 q 231 1022 208 1022 q 268 971 268 1021 m 93 0 q 72 21 72 0 q 78 36 72 29 l 867 1007 q 896 1025 881 1025 l 900 1025 q 923 1013 915 1025 q 921 989 931 1000 l 133 18 q 108 0 122 0 l 93 0 m 914 460 q 807 554 914 554 q 693 471 719 554 q 676 461 690 461 l 667 461 q 646 474 646 461 q 650 496 646 492 q 710 576 667 547 q 818 604 753 604 q 926 563 883 604 q 969 458 969 522 q 864 238 969 372 q 776 132 843 211 l 710 53 l 958 53 q 976 36 976 53 l 976 17 q 958 0 976 0 q 672 0 815 0 q 633 32 633 0 q 683 106 633 47 q 822 272 800 242 q 914 460 914 390 z "},"¾":{"ha":972,"x_min":18,"x_max":950,"o":"m 43 899 q 93 981 50 946 q 204 1017 136 1017 q 314 971 272 1017 q 356 856 356 925 q 333 774 356 813 q 264 717 310 736 q 369 568 369 685 q 315 443 369 485 q 193 401 261 401 q 21 535 49 401 q 18 547 18 543 q 26 551 18 551 l 60 553 l 64 553 q 68 543 65 553 q 193 451 92 451 q 284 482 249 451 q 319 568 319 513 q 285 658 319 624 q 175 692 250 692 l 124 692 q 113 694 114 692 q 113 717 113 696 q 125 740 119 739 l 172 740 q 272 772 239 740 q 306 856 306 804 q 278 938 306 907 q 192 968 250 968 q 97 889 111 968 q 90 883 96 883 l 47 883 q 43 899 39 883 m 106 0 q 85 21 85 0 q 90 36 85 29 l 879 1007 q 908 1025 893 1025 l 913 1025 q 935 1013 928 1025 q 933 989 943 1000 l 146 18 q 121 0 135 0 l 106 0 m 757 593 q 798 617 774 617 q 835 606 822 617 q 849 576 849 594 l 849 260 l 933 260 q 945 253 940 260 q 950 240 950 247 l 950 231 q 933 207 950 207 l 849 207 l 849 17 q 832 0 849 0 l 813 0 q 794 17 794 0 l 794 207 l 571 207 q 526 236 535 207 q 525 250 525 242 q 532 269 525 258 l 757 593 m 794 260 l 794 560 l 589 260 l 794 260 z "},"¿":{"ha":614,"x_min":54,"x_max":536,"o":"m 301 -246 q 115 -173 176 -246 q 54 -4 54 -100 q 117 158 54 92 q 283 239 179 225 q 286 238 285 239 l 286 436 q 313 463 286 463 l 325 463 q 353 436 353 463 l 353 231 q 339 188 353 199 q 289 174 325 176 q 169 119 217 167 q 121 -3 121 72 q 167 -128 121 -78 q 301 -179 214 -179 q 469 -79 426 -179 q 494 -62 478 -62 l 507 -62 q 535 -85 535 -62 q 533 -97 535 -90 q 442 -210 506 -174 q 301 -246 379 -246 m 388 565 q 381 559 388 565 q 324 553 374 553 q 258 566 274 553 q 243 621 243 579 l 243 639 q 258 699 243 686 q 324 711 274 711 q 388 699 374 711 q 401 639 401 686 l 401 621 q 388 565 401 576 m 292 625 q 298 606 292 611 q 323 601 304 601 q 347 606 342 601 q 353 625 353 610 l 353 639 q 347 658 353 654 q 322 663 342 663 q 297 658 303 663 q 292 639 292 654 l 292 625 z "},"À":{"ha":817,"x_min":22,"x_max":771,"o":"m 342 936 q 395 974 354 974 q 450 935 436 974 l 769 38 q 771 28 771 33 q 743 0 771 0 l 726 0 q 700 18 708 0 l 397 881 l 93 18 q 67 0 85 0 l 50 0 q 22 28 22 0 q 24 38 22 33 l 342 936 m 276 428 l 517 428 q 536 420 528 428 q 544 400 544 413 l 544 388 q 536 367 544 375 q 517 360 528 360 l 276 360 q 250 388 250 360 l 250 400 q 276 428 250 428 m 307 1267 q 344 1294 307 1294 q 370 1288 364 1294 q 386 1269 376 1282 l 535 1081 q 542 1065 542 1072 q 535 1047 542 1057 q 506 1036 528 1036 q 465 1060 485 1036 l 317 1244 q 307 1267 307 1256 z "},"Á":{"ha":817,"x_min":22,"x_max":771,"o":"m 342 936 q 395 974 354 974 q 450 935 436 974 l 769 38 q 771 28 771 33 q 743 0 771 0 l 726 0 q 700 18 708 0 l 397 881 l 93 18 q 67 0 85 0 l 50 0 q 22 28 22 0 q 24 38 22 33 l 342 936 m 276 428 l 517 428 q 536 420 528 428 q 544 400 544 413 l 544 388 q 536 367 544 375 q 517 360 528 360 l 276 360 q 250 388 250 360 l 250 400 q 276 428 250 428 m 479 1294 q 515 1263 515 1294 q 506 1244 515 1256 l 357 1060 q 316 1036 338 1036 q 288 1047 294 1036 q 281 1065 281 1057 q 288 1081 281 1072 l 436 1269 q 443 1278 442 1275 q 448 1284 444 1281 q 453 1288 451 1288 q 458 1292 454 1289 q 465 1294 463 1294 q 472 1294 468 1293 q 479 1294 476 1294 z "},"Â":{"ha":817,"x_min":22,"x_max":771,"o":"m 342 936 q 395 974 354 974 q 450 935 436 974 l 769 38 q 771 28 771 33 q 743 0 771 0 l 726 0 q 700 18 708 0 l 397 881 l 93 18 q 67 0 85 0 l 50 0 q 22 28 22 0 q 24 38 22 33 l 342 936 m 276 428 l 517 428 q 536 420 528 428 q 544 400 544 413 l 544 388 q 536 367 544 375 q 517 360 528 360 l 276 360 q 250 388 250 360 l 250 400 q 276 428 250 428 m 344 1296 q 396 1322 364 1322 q 447 1296 428 1322 l 615 1085 q 622 1065 622 1076 q 594 1040 622 1040 l 576 1040 q 556 1049 561 1040 l 399 1250 l 396 1253 l 242 1049 q 222 1040 236 1040 l 204 1040 q 176 1065 176 1040 q 183 1085 176 1074 l 344 1296 z "},"Ã":{"ha":817,"x_min":22,"x_max":771,"o":"m 342 936 q 395 974 354 974 q 450 935 436 974 l 769 38 q 771 28 771 33 q 743 0 771 0 l 726 0 q 700 18 708 0 l 397 881 l 93 18 q 67 0 85 0 l 50 0 q 22 28 22 0 q 24 38 22 33 l 342 936 m 276 428 l 517 428 q 536 420 528 428 q 544 400 544 413 l 544 388 q 536 367 544 375 q 517 360 528 360 l 276 360 q 250 388 250 360 l 250 400 q 276 428 250 428 m 585 1233 l 618 1233 q 636 1210 636 1233 q 603 1092 636 1132 q 508 1053 569 1053 q 446 1069 475 1053 q 383 1116 417 1086 q 329 1158 349 1146 q 283 1171 310 1171 q 236 1148 257 1171 q 215 1075 215 1125 q 194 1053 215 1053 l 174 1053 q 156 1081 156 1053 q 191 1192 156 1153 q 288 1231 226 1231 q 400 1181 338 1231 q 426 1160 407 1175 q 451 1139 444 1144 q 506 1114 482 1114 q 572 1208 572 1114 q 572 1217 572 1213 q 585 1233 572 1233 z "},"Ä":{"ha":817,"x_min":22,"x_max":771,"o":"m 342 936 q 395 974 354 974 q 450 935 436 974 l 769 38 q 771 28 771 33 q 743 0 771 0 l 726 0 q 700 18 708 0 l 397 881 l 93 18 q 67 0 85 0 l 50 0 q 22 28 22 0 q 24 38 22 33 l 342 936 m 276 428 l 517 428 q 536 420 528 428 q 544 400 544 413 l 544 388 q 536 367 544 375 q 517 360 528 360 l 276 360 q 250 388 250 360 l 250 400 q 276 428 250 428 m 442 1142 q 454 1193 442 1182 q 512 1204 467 1204 q 571 1192 557 1204 q 585 1142 585 1181 l 585 1125 q 571 1072 585 1083 q 512 1060 557 1060 q 454 1072 467 1060 q 442 1125 442 1083 l 442 1142 m 211 1142 q 224 1193 211 1182 q 281 1204 236 1204 q 340 1192 326 1204 q 354 1142 354 1181 l 354 1125 q 340 1072 354 1083 q 281 1060 326 1060 q 224 1071 236 1060 q 211 1125 211 1082 l 211 1142 m 310 1139 q 304 1156 310 1151 q 282 1160 299 1160 q 260 1156 265 1160 q 256 1139 256 1153 l 256 1125 q 260 1108 256 1111 q 283 1104 265 1104 q 305 1108 300 1104 q 310 1125 310 1111 l 310 1139 m 540 1139 q 535 1156 540 1151 q 513 1160 529 1160 q 491 1156 496 1160 q 486 1139 486 1153 l 486 1125 q 491 1108 486 1111 q 513 1104 496 1104 q 535 1108 531 1104 q 540 1125 540 1111 l 540 1139 z "},"Å":{"ha":817,"x_min":22,"x_max":771,"o":"m 342 936 q 395 974 354 974 q 450 935 436 974 l 769 38 q 771 28 771 33 q 743 0 771 0 l 726 0 q 700 18 708 0 l 397 881 l 93 18 q 67 0 85 0 l 50 0 q 22 28 22 0 q 24 38 22 33 l 342 936 m 276 428 l 517 428 q 536 420 528 428 q 544 400 544 413 l 544 388 q 536 367 544 375 q 517 360 528 360 l 276 360 q 250 388 250 360 l 250 400 q 276 428 250 428 m 261 1178 q 297 1265 261 1235 q 397 1296 333 1296 q 494 1265 460 1296 q 528 1178 528 1235 l 528 1092 q 494 1004 528 1035 q 397 974 460 974 q 297 1004 333 974 q 261 1092 261 1035 l 261 1178 m 469 1168 q 449 1218 469 1200 q 396 1236 428 1236 q 342 1219 364 1236 q 319 1168 319 1201 l 319 1101 q 342 1051 319 1068 q 396 1033 364 1033 q 449 1051 428 1033 q 469 1101 469 1069 l 469 1168 z "},"Æ":{"ha":1511,"x_min":22,"x_max":1263,"o":"m 750 972 q 707 959 719 972 q 694 918 694 946 l 694 56 q 705 15 694 29 q 749 0 715 0 l 1235 0 q 1254 8 1246 0 q 1263 28 1263 17 l 1263 40 q 1254 60 1263 53 q 1235 68 1246 68 l 764 68 l 764 904 l 1235 904 q 1254 912 1246 904 q 1263 932 1263 919 l 1263 944 q 1254 964 1263 956 q 1235 972 1246 972 l 750 972 m 847 539 l 1144 539 q 1165 531 1157 539 q 1172 511 1172 522 l 1172 499 q 1144 471 1172 471 l 847 471 q 819 499 819 471 l 819 511 q 827 531 819 522 q 847 539 835 539 m 342 936 q 395 974 354 974 q 450 935 436 974 l 769 38 q 771 28 771 33 q 743 0 771 0 l 726 0 q 700 18 708 0 l 397 881 l 93 18 q 67 0 85 0 l 50 0 q 22 28 22 0 q 24 38 22 33 l 342 936 m 276 428 l 517 428 q 536 420 528 428 q 544 400 544 413 l 544 388 q 536 367 544 375 q 517 360 528 360 l 276 360 q 250 388 250 360 l 250 400 q 276 428 250 428 z "},"Ç":{"ha":783,"x_min":56,"x_max":731,"o":"m 392 981 q 374 981 392 981 q 317 974 356 981 q 230 945 279 968 q 144 887 181 922 q 81 785 107 851 q 56 631 56 718 l 56 349 q 82 198 56 264 q 147 96 108 132 q 235 36 185 60 q 327 6 286 13 q 424 -1 368 -1 q 556 28 481 -1 q 640 80 604 47 q 703 176 676 113 q 731 325 731 240 q 703 353 731 353 l 692 353 q 672 346 679 353 q 664 315 664 339 q 578 114 664 168 q 497 77 538 88 q 397 67 456 67 q 272 96 339 67 q 199 144 231 114 q 146 228 168 174 q 124 353 124 282 l 124 625 q 144 750 124 696 q 193 834 164 804 q 261 882 222 864 q 331 906 300 900 q 410 911 363 911 q 514 888 458 911 q 581 849 551 872 q 632 781 610 825 q 661 678 654 736 q 689 653 664 653 l 701 653 q 729 683 729 653 q 694 810 722 756 q 631 897 667 865 q 549 948 594 928 q 467 974 504 968 q 392 981 429 981 m 508 -197 l 508 -256 q 470 -342 508 -311 q 387 -374 432 -374 q 306 -359 342 -374 q 254 -325 271 -344 l 286 -272 q 328 -303 301 -293 q 381 -314 356 -314 q 428 -297 407 -314 q 450 -246 450 -279 l 450 -207 q 428 -157 450 -175 q 367 -139 406 -139 q 315 -143 328 -139 l 315 -142 l 368 15 l 426 14 l 393 -79 q 477 -114 446 -83 q 508 -197 508 -144 z "},"È":{"ha":694,"x_min":86,"x_max":654,"o":"m 142 972 l 626 972 q 646 964 638 972 q 654 944 654 956 l 654 932 q 646 912 654 919 q 626 904 638 904 l 156 904 l 156 68 l 626 68 q 646 60 638 68 q 654 40 654 53 l 654 28 q 646 8 654 17 q 626 0 638 0 l 140 0 q 97 15 107 0 q 86 56 86 29 l 86 918 q 99 959 86 946 q 142 972 111 972 m 239 539 l 536 539 q 556 531 549 539 q 564 511 564 522 l 564 499 q 536 471 564 471 l 239 471 q 211 499 211 471 l 211 511 q 219 531 211 522 q 239 539 226 539 m 257 1267 q 294 1294 257 1294 q 320 1288 314 1294 q 336 1269 326 1282 l 485 1081 q 492 1065 492 1072 q 485 1047 492 1057 q 456 1036 478 1036 q 415 1060 435 1036 l 267 1244 q 257 1267 257 1256 z "},"É":{"ha":694,"x_min":86,"x_max":654,"o":"m 142 972 l 626 972 q 646 964 638 972 q 654 944 654 956 l 654 932 q 646 912 654 919 q 626 904 638 904 l 156 904 l 156 68 l 626 68 q 646 60 638 68 q 654 40 654 53 l 654 28 q 646 8 654 17 q 626 0 638 0 l 140 0 q 97 15 107 0 q 86 56 86 29 l 86 918 q 99 959 86 946 q 142 972 111 972 m 239 539 l 536 539 q 556 531 549 539 q 564 511 564 522 l 564 499 q 536 471 564 471 l 239 471 q 211 499 211 471 l 211 511 q 219 531 211 522 q 239 539 226 539 m 429 1294 q 465 1263 465 1294 q 456 1244 465 1256 l 307 1060 q 266 1036 288 1036 q 238 1047 244 1036 q 231 1065 231 1057 q 238 1081 231 1072 l 386 1269 q 393 1278 392 1275 q 398 1284 394 1281 q 403 1288 401 1288 q 408 1292 404 1289 q 415 1294 413 1294 q 422 1294 418 1293 q 429 1294 426 1294 z "},"Ê":{"ha":694,"x_min":86,"x_max":654,"o":"m 142 972 l 626 972 q 646 964 638 972 q 654 944 654 956 l 654 932 q 646 912 654 919 q 626 904 638 904 l 156 904 l 156 68 l 626 68 q 646 60 638 68 q 654 40 654 53 l 654 28 q 646 8 654 17 q 626 0 638 0 l 140 0 q 97 15 107 0 q 86 56 86 29 l 86 918 q 99 959 86 946 q 142 972 111 972 m 239 539 l 536 539 q 556 531 549 539 q 564 511 564 522 l 564 499 q 536 471 564 471 l 239 471 q 211 499 211 471 l 211 511 q 219 531 211 522 q 239 539 226 539 m 294 1296 q 346 1322 314 1322 q 397 1296 378 1322 l 565 1085 q 572 1065 572 1076 q 544 1040 572 1040 l 526 1040 q 506 1049 511 1040 l 349 1250 l 346 1253 l 192 1049 q 172 1040 186 1040 l 154 1040 q 126 1065 126 1040 q 133 1085 126 1074 l 294 1296 z "},"Ë":{"ha":694,"x_min":86,"x_max":654,"o":"m 142 972 l 626 972 q 646 964 638 972 q 654 944 654 956 l 654 932 q 646 912 654 919 q 626 904 638 904 l 156 904 l 156 68 l 626 68 q 646 60 638 68 q 654 40 654 53 l 654 28 q 646 8 654 17 q 626 0 638 0 l 140 0 q 97 15 107 0 q 86 56 86 29 l 86 918 q 99 959 86 946 q 142 972 111 972 m 239 539 l 536 539 q 556 531 549 539 q 564 511 564 522 l 564 499 q 536 471 564 471 l 239 471 q 211 499 211 471 l 211 511 q 219 531 211 522 q 239 539 226 539 m 392 1142 q 404 1193 392 1182 q 462 1204 417 1204 q 521 1192 507 1204 q 535 1142 535 1181 l 535 1125 q 521 1072 535 1083 q 462 1060 507 1060 q 404 1072 417 1060 q 392 1125 392 1083 l 392 1142 m 161 1142 q 174 1193 161 1182 q 231 1204 186 1204 q 290 1192 276 1204 q 304 1142 304 1181 l 304 1125 q 290 1072 304 1083 q 231 1060 276 1060 q 174 1071 186 1060 q 161 1125 161 1082 l 161 1142 m 260 1139 q 254 1156 260 1151 q 232 1160 249 1160 q 210 1156 215 1160 q 206 1139 206 1153 l 206 1125 q 210 1108 206 1111 q 233 1104 215 1104 q 255 1108 250 1104 q 260 1125 260 1111 l 260 1139 m 490 1139 q 485 1156 490 1151 q 463 1160 479 1160 q 441 1156 446 1160 q 436 1139 436 1153 l 436 1125 q 441 1108 436 1111 q 463 1104 446 1104 q 485 1108 481 1104 q 490 1125 490 1111 l 490 1139 z "},"Ì":{"ha":278,"x_min":49,"x_max":283,"o":"m 131 972 l 143 972 q 163 964 154 972 q 171 944 171 956 l 171 28 q 163 8 171 17 q 143 0 154 0 l 131 0 q 110 8 118 0 q 103 28 103 17 l 103 944 q 110 964 103 956 q 131 972 118 972 m 49 1267 q 86 1294 49 1294 q 112 1288 106 1294 q 128 1269 118 1282 l 276 1081 q 283 1065 283 1072 q 276 1047 283 1057 q 248 1036 269 1036 q 207 1060 226 1036 l 58 1244 q 49 1267 49 1256 z "},"Í":{"ha":278,"x_min":22,"x_max":257,"o":"m 131 972 l 143 972 q 163 964 154 972 q 171 944 171 956 l 171 28 q 163 8 171 17 q 143 0 154 0 l 131 0 q 110 8 118 0 q 103 28 103 17 l 103 944 q 110 964 103 956 q 131 972 118 972 m 221 1294 q 257 1263 257 1294 q 247 1244 257 1256 l 99 1060 q 58 1036 79 1036 q 29 1047 36 1036 q 22 1065 22 1057 q 29 1081 22 1072 l 178 1269 q 185 1278 183 1275 q 190 1284 186 1281 q 194 1288 193 1288 q 200 1292 196 1289 q 207 1294 204 1294 q 214 1294 210 1293 q 221 1294 218 1294 z "},"Î":{"ha":278,"x_min":-82,"x_max":364,"o":"m 131 972 l 143 972 q 163 964 154 972 q 171 944 171 956 l 171 28 q 163 8 171 17 q 143 0 154 0 l 131 0 q 110 8 118 0 q 103 28 103 17 l 103 944 q 110 964 103 956 q 131 972 118 972 m 86 1296 q 138 1322 106 1322 q 189 1296 169 1322 l 357 1085 q 364 1065 364 1076 q 336 1040 364 1040 l 318 1040 q 297 1049 303 1040 l 140 1250 l 138 1253 l -17 1049 q -36 1040 -22 1040 l -54 1040 q -82 1065 -82 1040 q -75 1085 -82 1074 l 86 1296 z "},"Ï":{"ha":278,"x_min":-47,"x_max":326,"o":"m 131 972 l 143 972 q 163 964 154 972 q 171 944 171 956 l 171 28 q 163 8 171 17 q 143 0 154 0 l 131 0 q 110 8 118 0 q 103 28 103 17 l 103 944 q 110 964 103 956 q 131 972 118 972 m 183 1142 q 196 1193 183 1182 q 253 1204 208 1204 q 313 1192 299 1204 q 326 1142 326 1181 l 326 1125 q 313 1072 326 1083 q 253 1060 299 1060 q 196 1072 208 1060 q 183 1125 183 1083 l 183 1142 m -47 1142 q -35 1193 -47 1182 q 23 1204 -22 1204 q 82 1192 68 1204 q 96 1142 96 1181 l 96 1125 q 82 1072 96 1083 q 23 1060 68 1060 q -35 1071 -22 1060 q -47 1125 -47 1082 l -47 1142 m 51 1139 q 46 1156 51 1151 q 24 1160 40 1160 q 2 1156 7 1160 q -3 1139 -3 1153 l -3 1125 q 2 1108 -3 1111 q 24 1104 7 1104 q 47 1108 42 1104 q 51 1125 51 1111 l 51 1139 m 282 1139 q 276 1156 282 1151 q 254 1160 271 1160 q 233 1156 238 1160 q 228 1139 228 1153 l 228 1125 q 233 1108 228 1111 q 255 1104 238 1104 q 277 1108 272 1104 q 282 1125 282 1111 l 282 1139 z "},"Ð":{"ha":800,"x_min":-85,"x_max":671,"o":"m 113 972 l 338 972 q 611 872 543 972 q 658 762 646 822 q 671 610 671 701 l 671 343 q 597 83 671 165 q 346 0 522 0 l 114 0 q 58 57 58 0 l 58 917 q 70 960 58 947 q 113 972 82 972 m 338 904 l 128 904 l 128 68 l 346 68 q 540 131 478 68 q 603 335 603 193 l 603 614 q 547 835 603 767 q 338 904 492 904 m -57 519 l 289 519 q 317 493 317 519 l 317 479 q 289 453 317 453 l -57 453 q -85 479 -85 453 l -85 493 q -57 519 -85 519 z "},"Ñ":{"ha":833,"x_min":72,"x_max":744,"o":"m 124 975 q 182 942 161 975 q 675 96 450 497 l 675 944 q 683 964 675 956 q 703 972 690 972 l 717 972 q 737 964 729 972 q 744 944 744 956 l 744 51 q 728 10 744 24 q 683 -3 713 -3 q 635 28 654 -3 l 142 874 l 142 28 q 133 8 142 17 q 114 0 125 0 l 99 0 q 80 8 88 0 q 72 28 72 17 l 72 918 q 124 975 72 975 m 604 1233 l 638 1233 q 656 1210 656 1233 q 622 1092 656 1132 q 528 1053 589 1053 q 465 1069 494 1053 q 402 1116 436 1086 q 349 1158 368 1146 q 303 1171 329 1171 q 256 1148 276 1171 q 235 1075 235 1125 q 214 1053 235 1053 l 193 1053 q 175 1081 175 1053 q 210 1192 175 1153 q 307 1231 246 1231 q 419 1181 357 1231 q 445 1160 426 1175 q 471 1139 464 1144 q 525 1114 501 1114 q 592 1208 592 1114 q 592 1217 592 1213 q 604 1233 592 1233 z "},"Ò":{"ha":842,"x_min":69,"x_max":746,"o":"m 243 940 q 268 950 243 940 q 331 967 293 961 q 408 972 368 972 q 486 966 447 972 q 574 938 525 960 q 660 880 624 915 q 721 780 696 844 q 746 631 746 715 l 746 349 q 720 194 746 261 q 658 92 694 128 q 572 33 621 56 q 408 -1 494 -1 q 255 29 318 -1 q 156 96 192 60 q 94 198 119 132 q 69 349 69 264 l 69 631 q 95 783 69 718 q 157 883 121 849 q 243 940 193 918 m 538 877 q 518 886 538 877 q 469 899 499 894 q 408 904 439 904 q 346 899 376 904 q 276 877 315 894 q 207 831 236 860 q 158 749 178 803 q 138 625 138 696 l 138 353 q 158 228 138 282 q 208 144 178 174 q 276 96 238 114 q 347 72 315 78 q 408 67 378 67 q 470 72 439 67 q 540 96 501 78 q 608 144 579 114 q 658 228 638 174 q 678 353 678 282 l 678 625 q 657 749 678 696 q 607 831 636 803 q 538 877 578 860 m 331 1267 q 368 1294 331 1294 q 394 1288 388 1294 q 410 1269 400 1282 l 558 1081 q 565 1065 565 1072 q 558 1047 565 1057 q 530 1036 551 1036 q 489 1060 508 1036 l 340 1244 q 331 1267 331 1256 z "},"Ó":{"ha":842,"x_min":69,"x_max":746,"o":"m 243 940 q 268 950 243 940 q 331 967 293 961 q 408 972 368 972 q 486 966 447 972 q 574 938 525 960 q 660 880 624 915 q 721 780 696 844 q 746 631 746 715 l 746 349 q 720 194 746 261 q 658 92 694 128 q 572 33 621 56 q 408 -1 494 -1 q 255 29 318 -1 q 156 96 192 60 q 94 198 119 132 q 69 349 69 264 l 69 631 q 95 783 69 718 q 157 883 121 849 q 243 940 193 918 m 538 877 q 518 886 538 877 q 469 899 499 894 q 408 904 439 904 q 346 899 376 904 q 276 877 315 894 q 207 831 236 860 q 158 749 178 803 q 138 625 138 696 l 138 353 q 158 228 138 282 q 208 144 178 174 q 276 96 238 114 q 347 72 315 78 q 408 67 378 67 q 470 72 439 67 q 540 96 501 78 q 608 144 579 114 q 658 228 638 174 q 678 353 678 282 l 678 625 q 657 749 678 696 q 607 831 636 803 q 538 877 578 860 m 503 1294 q 539 1263 539 1294 q 529 1244 539 1256 l 381 1060 q 340 1036 361 1036 q 311 1047 318 1036 q 304 1065 304 1057 q 311 1081 304 1072 l 460 1269 q 467 1278 465 1275 q 472 1284 468 1281 q 476 1288 475 1288 q 482 1292 478 1289 q 489 1294 486 1294 q 496 1294 492 1293 q 503 1294 500 1294 z "},"Ô":{"ha":842,"x_min":69,"x_max":746,"o":"m 243 940 q 268 950 243 940 q 331 967 293 961 q 408 972 368 972 q 486 966 447 972 q 574 938 525 960 q 660 880 624 915 q 721 780 696 844 q 746 631 746 715 l 746 349 q 720 194 746 261 q 658 92 694 128 q 572 33 621 56 q 408 -1 494 -1 q 255 29 318 -1 q 156 96 192 60 q 94 198 119 132 q 69 349 69 264 l 69 631 q 95 783 69 718 q 157 883 121 849 q 243 940 193 918 m 538 877 q 518 886 538 877 q 469 899 499 894 q 408 904 439 904 q 346 899 376 904 q 276 877 315 894 q 207 831 236 860 q 158 749 178 803 q 138 625 138 696 l 138 353 q 158 228 138 282 q 208 144 178 174 q 276 96 238 114 q 347 72 315 78 q 408 67 378 67 q 470 72 439 67 q 540 96 501 78 q 608 144 579 114 q 658 228 638 174 q 678 353 678 282 l 678 625 q 657 749 678 696 q 607 831 636 803 q 538 877 578 860 m 368 1296 q 419 1322 388 1322 q 471 1296 451 1322 l 639 1085 q 646 1065 646 1076 q 618 1040 646 1040 l 600 1040 q 579 1049 585 1040 l 422 1250 l 419 1253 l 265 1049 q 246 1040 260 1040 l 228 1040 q 200 1065 200 1040 q 207 1085 200 1074 l 368 1296 z "},"Õ":{"ha":842,"x_min":69,"x_max":746,"o":"m 243 940 q 268 950 243 940 q 331 967 293 961 q 408 972 368 972 q 486 966 447 972 q 574 938 525 960 q 660 880 624 915 q 721 780 696 844 q 746 631 746 715 l 746 349 q 720 194 746 261 q 658 92 694 128 q 572 33 621 56 q 408 -1 494 -1 q 255 29 318 -1 q 156 96 192 60 q 94 198 119 132 q 69 349 69 264 l 69 631 q 95 783 69 718 q 157 883 121 849 q 243 940 193 918 m 538 877 q 518 886 538 877 q 469 899 499 894 q 408 904 439 904 q 346 899 376 904 q 276 877 315 894 q 207 831 236 860 q 158 749 178 803 q 138 625 138 696 l 138 353 q 158 228 138 282 q 208 144 178 174 q 276 96 238 114 q 347 72 315 78 q 408 67 378 67 q 470 72 439 67 q 540 96 501 78 q 608 144 579 114 q 658 228 638 174 q 678 353 678 282 l 678 625 q 657 749 678 696 q 607 831 636 803 q 538 877 578 860 m 608 1233 l 642 1233 q 660 1210 660 1233 q 626 1092 660 1132 q 532 1053 593 1053 q 469 1069 499 1053 q 406 1116 440 1086 q 353 1158 372 1146 q 307 1171 333 1171 q 260 1148 281 1171 q 239 1075 239 1125 q 218 1053 239 1053 l 197 1053 q 179 1081 179 1053 q 215 1192 179 1153 q 311 1231 250 1231 q 424 1181 361 1231 q 449 1160 431 1175 q 475 1139 468 1144 q 529 1114 506 1114 q 596 1208 596 1114 q 596 1217 596 1213 q 608 1233 596 1233 z "},"Ö":{"ha":842,"x_min":69,"x_max":746,"o":"m 243 940 q 268 950 243 940 q 331 967 293 961 q 408 972 368 972 q 486 966 447 972 q 574 938 525 960 q 660 880 624 915 q 721 780 696 844 q 746 631 746 715 l 746 349 q 720 194 746 261 q 658 92 694 128 q 572 33 621 56 q 408 -1 494 -1 q 255 29 318 -1 q 156 96 192 60 q 94 198 119 132 q 69 349 69 264 l 69 631 q 95 783 69 718 q 157 883 121 849 q 243 940 193 918 m 538 877 q 518 886 538 877 q 469 899 499 894 q 408 904 439 904 q 346 899 376 904 q 276 877 315 894 q 207 831 236 860 q 158 749 178 803 q 138 625 138 696 l 138 353 q 158 228 138 282 q 208 144 178 174 q 276 96 238 114 q 347 72 315 78 q 408 67 378 67 q 470 72 439 67 q 540 96 501 78 q 608 144 579 114 q 658 228 638 174 q 678 353 678 282 l 678 625 q 657 749 678 696 q 607 831 636 803 q 538 877 578 860 m 465 1142 q 478 1193 465 1182 q 535 1204 490 1204 q 594 1192 581 1204 q 608 1142 608 1181 l 608 1125 q 594 1072 608 1083 q 535 1060 581 1060 q 478 1072 490 1060 q 465 1125 465 1083 l 465 1142 m 235 1142 q 247 1193 235 1182 q 305 1204 260 1204 q 364 1192 350 1204 q 378 1142 378 1181 l 378 1125 q 364 1072 378 1083 q 305 1060 350 1060 q 247 1071 260 1060 q 235 1125 235 1082 l 235 1142 m 333 1139 q 328 1156 333 1151 q 306 1160 322 1160 q 284 1156 289 1160 q 279 1139 279 1153 l 279 1125 q 284 1108 279 1111 q 306 1104 289 1104 q 328 1108 324 1104 q 333 1125 333 1111 l 333 1139 m 564 1139 q 558 1156 564 1151 q 536 1160 553 1160 q 515 1156 519 1160 q 510 1139 510 1153 l 510 1125 q 515 1108 510 1111 q 537 1104 519 1104 q 559 1108 554 1104 q 564 1125 564 1111 l 564 1139 z "},"×":{"ha":585,"x_min":68,"x_max":518,"o":"m 461 718 q 480 728 471 728 q 503 714 489 728 q 517 690 517 700 q 508 671 517 681 l 340 503 l 508 335 q 517 314 517 325 q 499 286 517 304 q 480 279 489 279 q 461 288 471 279 l 293 456 l 125 288 q 104 278 114 278 q 81 292 94 278 q 68 316 68 307 q 78 335 68 325 l 246 503 l 76 672 q 68 692 68 682 q 85 718 68 701 q 106 726 94 726 l 124 719 l 293 550 l 461 718 z "},"Ø":{"ha":842,"x_min":69,"x_max":746,"o":"m 243 940 q 268 950 243 940 q 331 967 293 961 q 408 972 368 972 q 486 966 447 972 q 574 938 525 960 q 660 880 624 915 q 721 780 696 844 q 746 631 746 715 l 746 349 q 720 194 746 261 q 658 92 694 128 q 572 33 621 56 q 408 -1 494 -1 q 255 29 318 -1 q 156 96 192 60 q 94 198 119 132 q 69 349 69 264 l 69 631 q 95 783 69 718 q 157 883 121 849 q 243 940 193 918 m 538 877 q 518 886 538 877 q 469 899 499 894 q 408 904 439 904 q 346 899 376 904 q 276 877 315 894 q 207 831 236 860 q 158 749 178 803 q 138 625 138 696 l 138 353 q 158 228 138 282 q 208 144 178 174 q 276 96 238 114 q 347 72 315 78 q 408 67 378 67 q 470 72 439 67 q 540 96 501 78 q 608 144 579 114 q 658 228 638 174 q 678 353 678 282 l 678 625 q 657 749 678 696 q 607 831 636 803 q 538 877 578 860 m 585 971 q 608 947 608 971 q 606 935 608 942 l 243 18 q 222 0 232 0 l 206 0 q 183 9 190 0 q 176 24 176 18 q 179 36 176 31 l 540 953 q 567 971 550 971 l 585 971 z "},"Ù":{"ha":781,"x_min":54,"x_max":708,"o":"m 667 972 l 681 972 q 700 964 692 972 q 708 944 708 956 l 708 349 q 675 176 708 249 q 589 67 642 103 q 390 -1 492 -1 l 374 -1 q 172 67 272 -1 q 87 176 119 103 q 54 349 54 249 l 54 944 q 62 964 54 956 q 82 972 69 972 l 96 972 q 116 964 108 972 q 124 944 124 956 l 124 349 q 150 208 124 267 q 219 119 176 149 q 376 67 294 69 l 389 67 q 544 121 468 69 q 613 208 586 149 q 639 349 639 267 l 639 944 q 647 964 639 956 q 667 972 654 972 m 282 1267 q 319 1294 282 1294 q 345 1288 339 1294 q 361 1269 351 1282 l 510 1081 q 517 1065 517 1072 q 510 1047 517 1057 q 481 1036 503 1036 q 440 1060 460 1036 l 292 1244 q 282 1267 282 1256 z "},"Ú":{"ha":781,"x_min":54,"x_max":708,"o":"m 667 972 l 681 972 q 700 964 692 972 q 708 944 708 956 l 708 349 q 675 176 708 249 q 589 67 642 103 q 390 -1 492 -1 l 374 -1 q 172 67 272 -1 q 87 176 119 103 q 54 349 54 249 l 54 944 q 62 964 54 956 q 82 972 69 972 l 96 972 q 116 964 108 972 q 124 944 124 956 l 124 349 q 150 208 124 267 q 219 119 176 149 q 376 67 294 69 l 389 67 q 544 121 468 69 q 613 208 586 149 q 639 349 639 267 l 639 944 q 647 964 639 956 q 667 972 654 972 m 454 1294 q 490 1263 490 1294 q 481 1244 490 1256 l 332 1060 q 291 1036 313 1036 q 263 1047 269 1036 q 256 1065 256 1057 q 263 1081 256 1072 l 411 1269 q 418 1278 417 1275 q 423 1284 419 1281 q 428 1288 426 1288 q 433 1292 429 1289 q 440 1294 438 1294 q 447 1294 443 1293 q 454 1294 451 1294 z "},"Û":{"ha":781,"x_min":54,"x_max":708,"o":"m 667 972 l 681 972 q 700 964 692 972 q 708 944 708 956 l 708 349 q 675 176 708 249 q 589 67 642 103 q 390 -1 492 -1 l 374 -1 q 172 67 272 -1 q 87 176 119 103 q 54 349 54 249 l 54 944 q 62 964 54 956 q 82 972 69 972 l 96 972 q 116 964 108 972 q 124 944 124 956 l 124 349 q 150 208 124 267 q 219 119 176 149 q 376 67 294 69 l 389 67 q 544 121 468 69 q 613 208 586 149 q 639 349 639 267 l 639 944 q 647 964 639 956 q 667 972 654 972 m 319 1296 q 371 1322 339 1322 q 422 1296 403 1322 l 590 1085 q 597 1065 597 1076 q 569 1040 597 1040 l 551 1040 q 531 1049 536 1040 l 374 1250 l 371 1253 l 217 1049 q 197 1040 211 1040 l 179 1040 q 151 1065 151 1040 q 158 1085 151 1074 l 319 1296 z "},"Ü":{"ha":781,"x_min":54,"x_max":708,"o":"m 667 972 l 681 972 q 700 964 692 972 q 708 944 708 956 l 708 349 q 675 176 708 249 q 589 67 642 103 q 390 -1 492 -1 l 374 -1 q 172 67 272 -1 q 87 176 119 103 q 54 349 54 249 l 54 944 q 62 964 54 956 q 82 972 69 972 l 96 972 q 116 964 108 972 q 124 944 124 956 l 124 349 q 150 208 124 267 q 219 119 176 149 q 376 67 294 69 l 389 67 q 544 121 468 69 q 613 208 586 149 q 639 349 639 267 l 639 944 q 647 964 639 956 q 667 972 654 972 m 417 1142 q 429 1193 417 1182 q 487 1204 442 1204 q 546 1192 532 1204 q 560 1142 560 1181 l 560 1125 q 546 1072 560 1083 q 487 1060 532 1060 q 429 1072 442 1060 q 417 1125 417 1083 l 417 1142 m 186 1142 q 199 1193 186 1182 q 256 1204 211 1204 q 315 1192 301 1204 q 329 1142 329 1181 l 329 1125 q 315 1072 329 1083 q 256 1060 301 1060 q 199 1071 211 1060 q 186 1125 186 1082 l 186 1142 m 285 1139 q 279 1156 285 1151 q 257 1160 274 1160 q 235 1156 240 1160 q 231 1139 231 1153 l 231 1125 q 235 1108 231 1111 q 258 1104 240 1104 q 280 1108 275 1104 q 285 1125 285 1111 l 285 1139 m 515 1139 q 510 1156 515 1151 q 488 1160 504 1160 q 466 1156 471 1160 q 461 1139 461 1153 l 461 1125 q 466 1108 461 1111 q 488 1104 471 1104 q 510 1108 506 1104 q 515 1125 515 1111 l 515 1139 z "},"Ý":{"ha":606,"x_min":-8,"x_max":588,"o":"m 543 972 l 558 972 q 581 962 575 972 q 586 944 586 951 q 582 931 586 938 l 582 932 l 347 504 q 332 483 336 488 l 332 28 q 324 8 332 17 q 304 0 315 0 l 290 0 q 271 8 279 0 q 263 28 263 17 l 263 485 q 250 501 256 492 l -3 931 q -7 944 -7 938 q -1 962 -7 951 q 21 972 4 972 l 38 972 q 61 960 51 972 l 297 554 l 521 964 q 543 972 526 972 m 385 1294 q 421 1263 421 1294 q 411 1244 421 1256 l 263 1060 q 222 1036 243 1036 q 193 1047 200 1036 q 186 1065 186 1057 q 193 1081 186 1072 l 342 1269 q 349 1278 347 1275 q 353 1284 350 1281 q 358 1288 357 1288 q 364 1292 360 1289 q 371 1294 368 1294 q 378 1294 374 1293 q 385 1294 382 1294 z "},"Þ":{"ha":718,"x_min":104,"x_max":642,"o":"m 244 819 l 363 819 q 544 769 461 819 q 615 690 588 743 q 642 565 642 638 q 572 376 642 449 q 374 303 503 303 l 250 303 q 230 311 238 303 q 222 331 222 319 l 222 343 q 250 371 222 371 l 361 371 q 572 560 572 371 q 508 705 572 658 q 360 751 443 751 l 244 751 q 224 760 232 751 q 217 779 217 768 l 217 792 q 244 819 217 819 m 132 1017 l 146 1017 q 165 1008 157 1017 q 174 989 174 1000 l 174 28 q 165 8 174 17 q 146 0 157 0 l 132 0 q 113 8 121 0 q 104 28 104 17 l 104 989 q 113 1008 104 1000 q 132 1017 121 1017 z "},"ß":{"ha":717,"x_min":83,"x_max":661,"o":"m 478 831 q 415 667 478 757 q 358 579 363 593 q 354 557 354 565 q 440 461 354 497 q 588 383 517 436 q 661 222 661 329 q 593 57 661 114 q 393 0 525 0 l 269 0 q 249 8 257 0 q 242 28 242 17 l 242 40 q 269 68 242 68 l 381 68 q 535 104 479 68 q 592 213 592 140 q 536 336 592 294 q 415 397 494 368 q 400 403 406 401 q 310 462 339 426 q 282 550 282 497 q 299 611 282 583 q 333 664 315 639 q 403 828 403 768 q 365 917 403 888 q 271 947 326 947 q 184 913 215 947 q 153 828 153 879 l 153 19 q 144 0 153 8 q 125 -8 136 -8 l 111 -8 q 92 0 100 -8 q 83 19 83 8 l 86 778 l 86 843 q 144 975 86 933 q 276 1017 203 1017 q 414 974 350 1017 q 478 831 478 931 z "},"à":{"ha":700,"x_min":101,"x_max":660,"o":"m 101 468 q 168 638 101 578 q 342 697 235 697 q 514 637 449 697 q 579 468 579 576 l 579 163 q 588 88 579 108 q 624 61 597 68 l 639 57 q 660 39 660 53 l 660 24 q 632 0 660 0 q 539 40 564 0 q 514 164 514 81 l 514 468 q 465 590 514 547 q 342 632 417 632 q 217 590 267 632 q 167 468 167 547 l 167 231 q 208 107 167 149 q 326 65 249 65 q 453 128 403 65 q 480 140 463 140 q 504 119 497 140 q 500 90 508 103 q 328 0 440 0 q 159 60 217 0 q 101 229 101 119 l 101 468 m 260 989 q 297 1017 260 1017 q 323 1010 317 1017 q 339 992 329 1004 l 488 803 q 494 787 494 794 q 488 769 494 779 q 459 758 481 758 q 418 782 438 758 l 269 967 q 260 989 260 978 z "},"á":{"ha":700,"x_min":101,"x_max":660,"o":"m 101 468 q 168 638 101 578 q 342 697 235 697 q 514 637 449 697 q 579 468 579 576 l 579 163 q 588 88 579 108 q 624 61 597 68 l 639 57 q 660 39 660 53 l 660 24 q 632 0 660 0 q 539 40 564 0 q 514 164 514 81 l 514 468 q 465 590 514 547 q 342 632 417 632 q 217 590 267 632 q 167 468 167 547 l 167 231 q 208 107 167 149 q 326 65 249 65 q 453 128 403 65 q 480 140 463 140 q 504 119 497 140 q 500 90 508 103 q 328 0 440 0 q 159 60 217 0 q 101 229 101 119 l 101 468 m 432 1017 q 468 985 468 1017 q 458 967 468 978 l 310 782 q 269 758 290 758 q 240 769 247 758 q 233 787 233 779 q 240 803 233 794 l 389 992 q 396 1000 394 997 q 401 1006 397 1003 q 406 1010 404 1010 q 411 1014 407 1011 q 418 1016 415 1017 q 425 1016 421 1015 q 432 1017 429 1017 z "},"â":{"ha":700,"x_min":101,"x_max":660,"o":"m 101 468 q 168 638 101 578 q 342 697 235 697 q 514 637 449 697 q 579 468 579 576 l 579 163 q 588 88 579 108 q 624 61 597 68 l 639 57 q 660 39 660 53 l 660 24 q 632 0 660 0 q 539 40 564 0 q 514 164 514 81 l 514 468 q 465 590 514 547 q 342 632 417 632 q 217 590 267 632 q 167 468 167 547 l 167 231 q 208 107 167 149 q 326 65 249 65 q 453 128 403 65 q 480 140 463 140 q 504 119 497 140 q 500 90 508 103 q 328 0 440 0 q 159 60 217 0 q 101 229 101 119 l 101 468 m 297 1018 q 349 1044 317 1044 q 400 1018 381 1044 l 568 807 q 575 788 575 799 q 547 763 575 763 l 529 763 q 508 771 514 763 l 351 972 l 349 975 l 194 771 q 175 763 189 763 l 157 763 q 129 788 129 763 q 136 807 129 796 l 297 1018 z "},"ã":{"ha":700,"x_min":101,"x_max":660,"o":"m 101 468 q 168 638 101 578 q 342 697 235 697 q 514 637 449 697 q 579 468 579 576 l 579 163 q 588 88 579 108 q 624 61 597 68 l 639 57 q 660 39 660 53 l 660 24 q 632 0 660 0 q 539 40 564 0 q 514 164 514 81 l 514 468 q 465 590 514 547 q 342 632 417 632 q 217 590 267 632 q 167 468 167 547 l 167 231 q 208 107 167 149 q 326 65 249 65 q 453 128 403 65 q 480 140 463 140 q 504 119 497 140 q 500 90 508 103 q 328 0 440 0 q 159 60 217 0 q 101 229 101 119 l 101 468 m 538 956 l 571 956 q 589 932 589 956 q 556 815 589 854 q 461 775 522 775 q 399 792 428 775 q 335 838 369 808 q 282 881 301 868 q 236 893 263 893 q 189 870 210 893 q 168 797 168 847 q 147 775 168 775 l 126 775 q 108 803 108 775 q 144 914 108 875 q 240 953 179 953 q 353 903 290 953 q 378 882 360 897 q 404 861 397 867 q 458 836 435 836 q 525 931 525 836 q 525 939 525 935 q 538 956 525 956 z "},"ä":{"ha":700,"x_min":101,"x_max":660,"o":"m 101 468 q 168 638 101 578 q 342 697 235 697 q 514 637 449 697 q 579 468 579 576 l 579 163 q 588 88 579 108 q 624 61 597 68 l 639 57 q 660 39 660 53 l 660 24 q 632 0 660 0 q 539 40 564 0 q 514 164 514 81 l 514 468 q 465 590 514 547 q 342 632 417 632 q 217 590 267 632 q 167 468 167 547 l 167 231 q 208 107 167 149 q 326 65 249 65 q 453 128 403 65 q 480 140 463 140 q 504 119 497 140 q 500 90 508 103 q 328 0 440 0 q 159 60 217 0 q 101 229 101 119 l 101 468 m 394 864 q 407 915 394 904 q 465 926 419 926 q 524 915 510 926 q 538 864 538 903 l 538 847 q 524 794 538 806 q 465 782 510 782 q 407 794 419 782 q 394 847 394 806 l 394 864 m 164 864 q 176 915 164 904 q 234 926 189 926 q 293 915 279 926 q 307 864 307 903 l 307 847 q 293 794 307 806 q 234 782 279 782 q 176 793 189 782 q 164 847 164 804 l 164 864 m 263 861 q 257 878 263 874 q 235 882 251 882 q 213 878 218 882 q 208 861 208 875 l 208 847 q 213 830 208 833 q 235 826 218 826 q 258 830 253 826 q 263 847 263 833 l 263 861 m 493 861 q 488 878 493 874 q 465 882 482 882 q 444 878 449 882 q 439 861 439 875 l 439 847 q 444 830 439 833 q 466 826 449 826 q 488 830 483 826 q 493 847 493 833 l 493 861 z "},"å":{"ha":700,"x_min":101,"x_max":660,"o":"m 101 468 q 168 638 101 578 q 342 697 235 697 q 514 637 449 697 q 579 468 579 576 l 579 163 q 588 88 579 108 q 624 61 597 68 l 639 57 q 660 39 660 53 l 660 24 q 632 0 660 0 q 539 40 564 0 q 514 164 514 81 l 514 468 q 465 590 514 547 q 342 632 417 632 q 217 590 267 632 q 167 468 167 547 l 167 231 q 208 107 167 149 q 326 65 249 65 q 453 128 403 65 q 480 140 463 140 q 504 119 497 140 q 500 90 508 103 q 328 0 440 0 q 159 60 217 0 q 101 229 101 119 l 101 468 m 214 900 q 250 988 214 957 q 349 1018 286 1018 q 447 988 413 1018 q 481 900 481 957 l 481 814 q 447 726 481 757 q 349 696 413 696 q 250 726 286 696 q 214 814 214 757 l 214 900 m 422 890 q 401 940 422 922 q 349 958 381 958 q 294 941 317 958 q 272 890 272 924 l 272 824 q 294 773 272 790 q 349 756 317 756 q 401 774 381 756 q 422 824 422 792 l 422 890 z "},"æ":{"ha":1057,"x_min":83,"x_max":974,"o":"m 325 697 q 528 596 468 697 q 738 697 592 697 q 908 637 843 697 q 974 468 974 576 l 974 385 q 917 325 974 325 l 617 325 q 597 333 604 325 q 589 353 589 342 l 589 364 q 597 383 589 375 q 617 392 604 392 l 908 392 l 908 467 q 860 588 908 546 q 736 631 811 631 q 612 588 661 631 q 563 467 563 546 l 563 228 q 612 106 563 149 q 735 64 661 64 q 859 105 810 64 q 908 222 908 146 q 916 242 908 233 q 935 250 924 250 l 946 250 q 966 242 958 250 q 974 222 974 233 q 907 56 972 115 q 736 -3 842 -3 q 563 58 631 -3 q 496 226 496 118 l 496 468 q 447 590 496 547 q 324 632 399 632 q 199 590 249 632 q 149 468 149 547 l 149 231 q 190 107 149 149 q 308 65 231 65 q 435 128 385 65 q 462 140 444 140 q 486 119 479 140 q 482 90 490 103 q 310 0 422 0 q 141 60 199 0 q 83 229 83 119 l 83 468 q 150 638 83 578 q 325 697 217 697 z "},"ç":{"ha":701,"x_min":97,"x_max":575,"o":"m 97 468 q 164 638 97 578 q 338 697 231 697 q 510 637 444 697 q 575 468 575 576 q 547 442 575 442 l 536 442 q 510 468 510 442 q 461 589 510 547 q 338 631 413 631 q 213 588 263 631 q 164 467 164 546 l 164 228 q 213 106 164 149 q 338 64 263 64 q 460 105 413 64 q 510 222 508 146 q 517 242 510 233 q 536 250 525 250 l 547 250 q 567 242 560 250 q 575 222 575 233 q 507 57 572 117 q 337 -3 442 -3 q 165 58 232 -3 q 97 226 97 118 l 97 468 m 468 -197 l 468 -256 q 430 -342 468 -311 q 347 -374 392 -374 q 266 -359 301 -374 q 214 -325 231 -344 l 246 -272 q 288 -303 261 -293 q 341 -314 315 -314 q 388 -297 367 -314 q 410 -246 410 -279 l 410 -207 q 388 -157 410 -175 q 326 -139 365 -139 q 275 -143 288 -139 l 275 -142 l 328 15 l 386 14 l 353 -79 q 437 -114 406 -83 q 468 -197 468 -144 z "},"è":{"ha":681,"x_min":97,"x_max":575,"o":"m 97 468 q 164 638 97 578 q 338 697 231 697 q 510 637 444 697 q 575 468 575 576 l 575 385 q 518 325 575 325 l 218 325 q 198 333 206 325 q 190 353 190 342 l 190 364 q 198 383 190 375 q 218 392 206 392 l 510 392 l 510 467 q 461 588 510 546 q 338 631 413 631 q 213 588 263 631 q 164 467 164 546 l 164 228 q 213 106 164 149 q 337 64 263 64 q 460 105 411 64 q 510 222 510 146 q 517 242 510 233 q 536 250 525 250 l 547 250 q 567 242 560 250 q 575 222 575 233 q 508 56 574 115 q 338 -3 443 -3 q 165 58 232 -3 q 97 226 97 118 l 97 468 m 250 989 q 288 1017 250 1017 q 313 1010 307 1017 q 329 992 319 1004 l 478 803 q 485 787 485 794 q 478 769 485 779 q 449 758 471 758 q 408 782 428 758 l 260 967 q 250 989 250 978 z "},"é":{"ha":681,"x_min":97,"x_max":575,"o":"m 97 468 q 164 638 97 578 q 338 697 231 697 q 510 637 444 697 q 575 468 575 576 l 575 385 q 518 325 575 325 l 218 325 q 198 333 206 325 q 190 353 190 342 l 190 364 q 198 383 190 375 q 218 392 206 392 l 510 392 l 510 467 q 461 588 510 546 q 338 631 413 631 q 213 588 263 631 q 164 467 164 546 l 164 228 q 213 106 164 149 q 337 64 263 64 q 460 105 411 64 q 510 222 510 146 q 517 242 510 233 q 536 250 525 250 l 547 250 q 567 242 560 250 q 575 222 575 233 q 508 56 574 115 q 338 -3 443 -3 q 165 58 232 -3 q 97 226 97 118 l 97 468 m 422 1017 q 458 985 458 1017 q 449 967 458 978 l 300 782 q 259 758 281 758 q 231 769 238 758 q 224 787 224 779 q 231 803 224 794 l 379 992 q 386 1000 385 997 q 391 1006 388 1003 q 396 1010 394 1010 q 401 1014 397 1011 q 408 1016 406 1017 q 415 1016 411 1015 q 422 1017 419 1017 z "},"ê":{"ha":681,"x_min":97,"x_max":575,"o":"m 97 468 q 164 638 97 578 q 338 697 231 697 q 510 637 444 697 q 575 468 575 576 l 575 385 q 518 325 575 325 l 218 325 q 198 333 206 325 q 190 353 190 342 l 190 364 q 198 383 190 375 q 218 392 206 392 l 510 392 l 510 467 q 461 588 510 546 q 338 631 413 631 q 213 588 263 631 q 164 467 164 546 l 164 228 q 213 106 164 149 q 337 64 263 64 q 460 105 411 64 q 510 222 510 146 q 517 242 510 233 q 536 250 525 250 l 547 250 q 567 242 560 250 q 575 222 575 233 q 508 56 574 115 q 338 -3 443 -3 q 165 58 232 -3 q 97 226 97 118 l 97 468 m 288 1018 q 339 1044 307 1044 q 390 1018 371 1044 l 558 807 q 565 788 565 799 q 538 763 565 763 l 519 763 q 499 771 504 763 l 342 972 l 339 975 l 185 771 q 165 763 179 763 l 147 763 q 119 788 119 763 q 126 807 119 796 l 288 1018 z "},"ë":{"ha":681,"x_min":97,"x_max":575,"o":"m 97 468 q 164 638 97 578 q 338 697 231 697 q 510 637 444 697 q 575 468 575 576 l 575 385 q 518 325 575 325 l 218 325 q 198 333 206 325 q 190 353 190 342 l 190 364 q 198 383 190 375 q 218 392 206 392 l 510 392 l 510 467 q 461 588 510 546 q 338 631 413 631 q 213 588 263 631 q 164 467 164 546 l 164 228 q 213 106 164 149 q 337 64 263 64 q 460 105 411 64 q 510 222 510 146 q 517 242 510 233 q 536 250 525 250 l 547 250 q 567 242 560 250 q 575 222 575 233 q 508 56 574 115 q 338 -3 443 -3 q 165 58 232 -3 q 97 226 97 118 l 97 468 m 385 864 q 397 915 385 904 q 455 926 410 926 q 514 915 500 926 q 528 864 528 903 l 528 847 q 514 794 528 806 q 455 782 500 782 q 397 794 410 782 q 385 847 385 806 l 385 864 m 154 864 q 167 915 154 904 q 224 926 179 926 q 283 915 269 926 q 297 864 297 903 l 297 847 q 283 794 297 806 q 224 782 269 782 q 167 793 179 782 q 154 847 154 804 l 154 864 m 253 861 q 247 878 253 874 q 225 882 242 882 q 203 878 208 882 q 199 861 199 875 l 199 847 q 203 830 199 833 q 226 826 208 826 q 248 830 243 826 q 253 847 253 833 l 253 861 m 483 861 q 478 878 483 874 q 456 882 472 882 q 434 878 439 882 q 429 861 429 875 l 429 847 q 434 830 429 833 q 456 826 439 826 q 478 830 474 826 q 483 847 483 833 l 483 861 z "},"ì":{"ha":233,"x_min":25,"x_max":260,"o":"m 111 696 l 122 696 q 142 688 133 696 q 150 668 150 681 l 150 28 q 142 8 150 15 q 122 0 133 0 l 111 0 q 92 8 100 0 q 83 28 83 15 l 83 668 q 92 688 83 681 q 111 696 100 696 m 25 989 q 63 1017 25 1017 q 88 1010 82 1017 q 104 992 94 1004 l 253 803 q 260 787 260 794 q 253 769 260 779 q 224 758 246 758 q 183 782 203 758 l 35 967 q 25 989 25 978 z "},"í":{"ha":233,"x_min":-1,"x_max":233,"o":"m 111 696 l 122 696 q 142 688 133 696 q 150 668 150 681 l 150 28 q 142 8 150 15 q 122 0 133 0 l 111 0 q 92 8 100 0 q 83 28 83 15 l 83 668 q 92 688 83 681 q 111 696 100 696 m 197 1017 q 233 985 233 1017 q 224 967 233 978 l 75 782 q 34 758 56 758 q 6 769 13 758 q -1 787 -1 779 q 6 803 -1 794 l 154 992 q 161 1000 160 997 q 166 1006 163 1003 q 171 1010 169 1010 q 176 1014 172 1011 q 183 1016 181 1017 q 190 1016 186 1015 q 197 1017 194 1017 z "},"î":{"ha":233,"x_min":-106,"x_max":340,"o":"m 111 696 l 122 696 q 142 688 133 696 q 150 668 150 681 l 150 28 q 142 8 150 15 q 122 0 133 0 l 111 0 q 92 8 100 0 q 83 28 83 15 l 83 668 q 92 688 83 681 q 111 696 100 696 m 63 1018 q 114 1044 82 1044 q 165 1018 146 1044 l 333 807 q 340 788 340 799 q 313 763 340 763 l 294 763 q 274 771 279 763 l 117 972 l 114 975 l -40 771 q -60 763 -46 763 l -78 763 q -106 788 -106 763 q -99 807 -106 796 l 63 1018 z "},"ï":{"ha":233,"x_min":-71,"x_max":303,"o":"m 111 696 l 122 696 q 142 688 133 696 q 150 668 150 681 l 150 28 q 142 8 150 15 q 122 0 133 0 l 111 0 q 92 8 100 0 q 83 28 83 15 l 83 668 q 92 688 83 681 q 111 696 100 696 m 160 864 q 172 915 160 904 q 230 926 185 926 q 289 915 275 926 q 303 864 303 903 l 303 847 q 289 794 303 806 q 230 782 275 782 q 172 794 185 782 q 160 847 160 806 l 160 864 m -71 864 q -58 915 -71 904 q -1 926 -46 926 q 58 915 44 926 q 72 864 72 903 l 72 847 q 58 794 72 806 q -1 782 44 782 q -58 793 -46 782 q -71 847 -71 804 l -71 864 m 28 861 q 22 878 28 874 q 0 882 17 882 q -22 878 -17 882 q -26 861 -26 875 l -26 847 q -22 830 -26 833 q 1 826 -17 826 q 23 830 18 826 q 28 847 28 833 l 28 861 m 258 861 q 253 878 258 874 q 231 882 247 882 q 209 878 214 882 q 204 861 204 875 l 204 847 q 209 830 204 833 q 231 826 214 826 q 253 830 249 826 q 258 847 258 833 l 258 861 z "},"ð":{"ha":833,"x_min":129,"x_max":608,"o":"m 567 1017 l 583 1017 q 608 990 608 1017 l 608 226 q 542 58 608 118 q 369 -3 476 -3 q 196 57 263 -3 q 129 226 129 117 l 129 468 q 196 635 129 575 q 369 694 263 694 q 465 678 414 694 q 542 640 515 661 l 542 990 q 567 1017 542 1017 m 542 564 q 378 628 461 628 q 245 586 294 628 q 196 465 196 544 l 196 228 q 245 106 196 147 q 369 64 294 64 q 493 106 444 64 q 542 228 542 149 l 542 564 z "},"ñ":{"ha":665,"x_min":82,"x_max":572,"o":"m 344 697 q 504 642 449 697 q 560 482 560 588 l 560 28 q 533 0 560 0 l 522 0 q 494 28 494 0 l 494 467 q 343 632 494 632 q 208 569 264 632 q 182 557 193 557 q 156 585 157 557 q 161 607 156 596 q 239 672 190 647 q 344 697 288 697 m 110 693 l 121 693 q 140 685 132 693 q 149 665 149 678 l 149 28 q 140 8 149 15 q 121 0 132 0 l 110 0 q 90 8 99 0 q 82 28 82 15 l 82 665 q 90 685 82 678 q 110 693 99 693 m 521 956 l 554 956 q 572 932 572 956 q 539 815 572 854 q 444 775 506 775 q 382 792 411 775 q 319 838 353 808 q 265 881 285 868 q 219 893 246 893 q 172 870 193 893 q 151 797 151 847 q 131 775 151 775 l 110 775 q 92 803 92 775 q 127 914 92 875 q 224 953 163 953 q 336 903 274 953 q 362 882 343 897 q 388 861 381 867 q 442 836 418 836 q 508 931 508 836 q 508 939 508 935 q 521 956 508 956 z "},"ò":{"ha":700,"x_min":97,"x_max":575,"o":"m 97 468 q 164 638 97 578 q 338 697 231 697 q 510 637 444 697 q 575 468 575 576 l 575 226 q 510 58 575 118 q 338 -3 444 -3 q 165 58 232 -3 q 97 226 97 118 l 97 468 m 510 468 q 461 590 510 547 q 338 632 413 632 q 213 590 263 632 q 163 468 163 547 l 163 226 q 213 105 163 147 q 338 63 263 63 q 461 105 413 63 q 510 226 510 147 l 510 468 m 260 989 q 297 1017 260 1017 q 323 1010 317 1017 q 339 992 329 1004 l 488 803 q 494 787 494 794 q 488 769 494 779 q 459 758 481 758 q 418 782 438 758 l 269 967 q 260 989 260 978 z "},"ó":{"ha":700,"x_min":97,"x_max":575,"o":"m 97 468 q 164 638 97 578 q 338 697 231 697 q 510 637 444 697 q 575 468 575 576 l 575 226 q 510 58 575 118 q 338 -3 444 -3 q 165 58 232 -3 q 97 226 97 118 l 97 468 m 510 468 q 461 590 510 547 q 338 632 413 632 q 213 590 263 632 q 163 468 163 547 l 163 226 q 213 105 163 147 q 338 63 263 63 q 461 105 413 63 q 510 226 510 147 l 510 468 m 432 1017 q 468 985 468 1017 q 458 967 468 978 l 310 782 q 269 758 290 758 q 240 769 247 758 q 233 787 233 779 q 240 803 233 794 l 389 992 q 396 1000 394 997 q 401 1006 397 1003 q 406 1010 404 1010 q 411 1014 407 1011 q 418 1016 415 1017 q 425 1016 421 1015 q 432 1017 429 1017 z "},"ô":{"ha":700,"x_min":97,"x_max":575,"o":"m 97 468 q 164 638 97 578 q 338 697 231 697 q 510 637 444 697 q 575 468 575 576 l 575 226 q 510 58 575 118 q 338 -3 444 -3 q 165 58 232 -3 q 97 226 97 118 l 97 468 m 510 468 q 461 590 510 547 q 338 632 413 632 q 213 590 263 632 q 163 468 163 547 l 163 226 q 213 105 163 147 q 338 63 263 63 q 461 105 413 63 q 510 226 510 147 l 510 468 m 297 1018 q 349 1044 317 1044 q 400 1018 381 1044 l 568 807 q 575 788 575 799 q 547 763 575 763 l 529 763 q 508 771 514 763 l 351 972 l 349 975 l 194 771 q 175 763 189 763 l 157 763 q 129 788 129 763 q 136 807 129 796 l 297 1018 z "},"õ":{"ha":700,"x_min":97,"x_max":589,"o":"m 97 468 q 164 638 97 578 q 338 697 231 697 q 510 637 444 697 q 575 468 575 576 l 575 226 q 510 58 575 118 q 338 -3 444 -3 q 165 58 232 -3 q 97 226 97 118 l 97 468 m 510 468 q 461 590 510 547 q 338 632 413 632 q 213 590 263 632 q 163 468 163 547 l 163 226 q 213 105 163 147 q 338 63 263 63 q 461 105 413 63 q 510 226 510 147 l 510 468 m 538 956 l 571 956 q 589 932 589 956 q 556 815 589 854 q 461 775 522 775 q 399 792 428 775 q 335 838 369 808 q 282 881 301 868 q 236 893 263 893 q 189 870 210 893 q 168 797 168 847 q 147 775 168 775 l 126 775 q 108 803 108 775 q 144 914 108 875 q 240 953 179 953 q 353 903 290 953 q 378 882 360 897 q 404 861 397 867 q 458 836 435 836 q 525 931 525 836 q 525 939 525 935 q 538 956 525 956 z "},"ö":{"ha":700,"x_min":97,"x_max":575,"o":"m 97 468 q 164 638 97 578 q 338 697 231 697 q 510 637 444 697 q 575 468 575 576 l 575 226 q 510 58 575 118 q 338 -3 444 -3 q 165 58 232 -3 q 97 226 97 118 l 97 468 m 510 468 q 461 590 510 547 q 338 632 413 632 q 213 590 263 632 q 163 468 163 547 l 163 226 q 213 105 163 147 q 338 63 263 63 q 461 105 413 63 q 510 226 510 147 l 510 468 m 394 864 q 407 915 394 904 q 465 926 419 926 q 524 915 510 926 q 538 864 538 903 l 538 847 q 524 794 538 806 q 465 782 510 782 q 407 794 419 782 q 394 847 394 806 l 394 864 m 164 864 q 176 915 164 904 q 234 926 189 926 q 293 915 279 926 q 307 864 307 903 l 307 847 q 293 794 307 806 q 234 782 279 782 q 176 793 189 782 q 164 847 164 804 l 164 864 m 263 861 q 257 878 263 874 q 235 882 251 882 q 213 878 218 882 q 208 861 208 875 l 208 847 q 213 830 208 833 q 235 826 218 826 q 258 830 253 826 q 263 847 263 833 l 263 861 m 493 861 q 488 878 493 874 q 465 882 482 882 q 444 878 449 882 q 439 861 439 875 l 439 847 q 444 830 439 833 q 466 826 449 826 q 488 830 483 826 q 493 847 493 833 l 493 861 z "},"÷":{"ha":749,"x_min":76,"x_max":672,"o":"m 104 440 l 646 440 q 672 414 672 440 l 672 401 q 665 382 672 390 q 646 374 657 374 l 104 374 q 84 382 92 374 q 76 401 76 390 l 76 414 q 104 440 76 440 m 301 685 q 308 691 301 685 q 365 697 315 697 q 431 684 415 697 q 446 629 446 671 l 446 611 q 431 551 446 564 q 365 539 415 539 q 301 551 315 539 q 288 611 288 564 l 288 629 q 301 685 288 674 m 301 227 q 308 233 301 227 q 365 239 315 239 q 431 226 415 239 q 446 171 446 213 l 446 153 q 431 93 446 106 q 365 81 415 81 q 301 93 315 81 q 288 153 288 106 l 288 171 q 301 227 288 215 m 397 167 q 391 185 397 181 q 366 190 385 190 q 342 186 347 190 q 336 167 336 182 l 336 153 q 342 133 336 138 q 367 129 347 129 q 392 133 386 129 q 397 153 397 138 l 397 167 m 397 625 q 391 644 397 639 q 366 649 385 649 q 342 644 347 649 q 336 625 336 640 l 336 611 q 342 592 336 596 q 367 588 347 588 q 392 592 386 588 q 397 611 397 596 l 397 625 z "},"ø":{"ha":671,"x_min":83,"x_max":589,"o":"m 544 694 l 563 694 q 583 686 578 694 q 588 672 588 678 q 583 658 588 665 l 151 18 q 131 0 140 0 l 114 0 q 90 9 97 0 q 83 24 83 18 q 88 36 83 31 l 518 676 q 544 694 528 694 m 100 468 q 167 638 100 578 q 340 697 233 697 q 513 637 447 697 q 578 468 578 576 l 578 226 q 513 58 578 118 q 341 -3 447 -3 q 167 58 235 -3 q 100 226 100 118 l 100 468 m 513 468 q 464 590 513 547 q 340 632 415 632 q 215 590 265 632 q 165 468 165 547 l 165 226 q 215 105 165 147 q 340 63 265 63 q 464 105 415 63 q 513 226 513 147 l 513 468 z "},"ù":{"ha":692,"x_min":99,"x_max":657,"o":"m 125 697 l 136 697 q 164 669 164 697 l 164 231 q 205 107 164 149 q 321 65 246 65 q 450 125 396 65 q 476 140 463 140 q 503 110 503 140 q 496 88 503 97 q 418 24 468 49 q 313 0 368 0 q 158 60 217 0 q 99 229 99 121 l 99 669 q 125 697 99 697 m 536 694 l 550 694 q 576 667 576 694 l 576 163 q 585 88 576 108 q 621 61 594 68 l 636 57 q 657 39 657 53 l 657 24 q 629 0 657 0 q 535 40 561 0 q 510 164 510 81 l 510 667 q 536 694 510 694 m 242 989 q 279 1017 242 1017 q 305 1010 299 1017 q 321 992 311 1004 l 469 803 q 476 787 476 794 q 469 769 476 779 q 441 758 463 758 q 400 782 419 758 l 251 967 q 242 989 242 978 z "},"ú":{"ha":692,"x_min":99,"x_max":657,"o":"m 125 697 l 136 697 q 164 669 164 697 l 164 231 q 205 107 164 149 q 321 65 246 65 q 450 125 396 65 q 476 140 463 140 q 503 110 503 140 q 496 88 503 97 q 418 24 468 49 q 313 0 368 0 q 158 60 217 0 q 99 229 99 121 l 99 669 q 125 697 99 697 m 536 694 l 550 694 q 576 667 576 694 l 576 163 q 585 88 576 108 q 621 61 594 68 l 636 57 q 657 39 657 53 l 657 24 q 629 0 657 0 q 535 40 561 0 q 510 164 510 81 l 510 667 q 536 694 510 694 m 414 1017 q 450 985 450 1017 q 440 967 450 978 l 292 782 q 251 758 272 758 q 222 769 229 758 q 215 787 215 779 q 222 803 215 794 l 371 992 q 378 1000 376 997 q 383 1006 379 1003 q 388 1010 386 1010 q 393 1014 389 1011 q 400 1016 397 1017 q 407 1016 403 1015 q 414 1017 411 1017 z "},"û":{"ha":692,"x_min":99,"x_max":657,"o":"m 125 697 l 136 697 q 164 669 164 697 l 164 231 q 205 107 164 149 q 321 65 246 65 q 450 125 396 65 q 476 140 463 140 q 503 110 503 140 q 496 88 503 97 q 418 24 468 49 q 313 0 368 0 q 158 60 217 0 q 99 229 99 121 l 99 669 q 125 697 99 697 m 536 694 l 550 694 q 576 667 576 694 l 576 163 q 585 88 576 108 q 621 61 594 68 l 636 57 q 657 39 657 53 l 657 24 q 629 0 657 0 q 535 40 561 0 q 510 164 510 81 l 510 667 q 536 694 510 694 m 279 1018 q 331 1044 299 1044 q 382 1018 363 1044 l 550 807 q 557 788 557 799 q 529 763 557 763 l 511 763 q 490 771 496 763 l 333 972 l 331 975 l 176 771 q 157 763 171 763 l 139 763 q 111 788 111 763 q 118 807 111 796 l 279 1018 z "},"ü":{"ha":692,"x_min":99,"x_max":657,"o":"m 125 697 l 136 697 q 164 669 164 697 l 164 231 q 205 107 164 149 q 321 65 246 65 q 450 125 396 65 q 476 140 463 140 q 503 110 503 140 q 496 88 503 97 q 418 24 468 49 q 313 0 368 0 q 158 60 217 0 q 99 229 99 121 l 99 669 q 125 697 99 697 m 536 694 l 550 694 q 576 667 576 694 l 576 163 q 585 88 576 108 q 621 61 594 68 l 636 57 q 657 39 657 53 l 657 24 q 629 0 657 0 q 535 40 561 0 q 510 164 510 81 l 510 667 q 536 694 510 694 m 376 864 q 389 915 376 904 q 447 926 401 926 q 506 915 492 926 q 519 864 519 903 l 519 847 q 506 794 519 806 q 447 782 492 782 q 389 794 401 782 q 376 847 376 806 l 376 864 m 146 864 q 158 915 146 904 q 216 926 171 926 q 275 915 261 926 q 289 864 289 903 l 289 847 q 275 794 289 806 q 216 782 261 782 q 158 793 171 782 q 146 847 146 804 l 146 864 m 244 861 q 239 878 244 874 q 217 882 233 882 q 195 878 200 882 q 190 861 190 875 l 190 847 q 195 830 190 833 q 217 826 200 826 q 240 830 235 826 q 244 847 244 833 l 244 861 m 475 861 q 469 878 475 874 q 447 882 464 882 q 426 878 431 882 q 421 861 421 875 l 421 847 q 426 830 421 833 q 448 826 431 826 q 470 830 465 826 q 475 847 475 833 l 475 861 z "},"ý":{"ha":706,"x_min":94,"x_max":571,"o":"m 532 694 l 544 694 q 571 667 571 694 l 571 -75 q 508 -257 571 -194 q 336 -319 444 -319 q 169 -262 228 -319 q 107 -97 110 -204 q 133 -71 107 -71 l 146 -71 q 172 -97 172 -71 q 222 -214 175 -174 q 340 -254 268 -254 q 506 -76 506 -254 l 506 667 q 532 694 506 694 m 121 697 l 132 697 q 160 669 160 697 l 160 231 q 201 107 160 149 q 317 65 242 65 q 446 125 392 65 q 472 140 458 140 q 499 110 499 140 q 492 88 499 97 q 414 24 464 49 q 308 0 364 0 q 153 60 213 0 q 94 229 94 121 l 94 669 q 121 697 94 697 m 435 1017 q 471 985 471 1017 q 461 967 471 978 l 313 782 q 272 758 293 758 q 243 769 250 758 q 236 787 236 779 q 243 803 236 794 l 392 992 q 399 1000 397 997 q 403 1006 400 1003 q 408 1010 407 1010 q 414 1014 410 1011 q 421 1016 418 1017 q 428 1016 424 1015 q 435 1017 432 1017 z "},"þ":{"ha":833,"x_min":81,"x_max":558,"o":"m 111 1014 l 122 1014 q 149 988 149 1014 l 147 638 q 318 697 211 697 q 492 638 425 697 q 558 468 558 578 l 558 226 q 492 58 558 119 q 327 -3 425 -3 q 171 32 229 -3 l 171 104 q 316 64 238 64 q 444 107 394 64 q 493 229 493 150 l 493 467 q 444 589 493 547 q 322 631 394 631 q 200 592 249 631 q 146 482 151 554 l 146 -321 q 119 -347 146 -347 l 107 -347 q 81 -321 81 -347 l 81 488 l 83 988 q 111 1014 86 1014 z "},"ÿ":{"ha":706,"x_min":94,"x_max":571,"o":"m 532 694 l 544 694 q 571 667 571 694 l 571 -75 q 508 -257 571 -194 q 336 -319 444 -319 q 169 -262 228 -319 q 107 -97 110 -204 q 133 -71 107 -71 l 146 -71 q 172 -97 172 -71 q 222 -214 175 -174 q 340 -254 268 -254 q 506 -76 506 -254 l 506 667 q 532 694 506 694 m 121 697 l 132 697 q 160 669 160 697 l 160 231 q 201 107 160 149 q 317 65 242 65 q 446 125 392 65 q 472 140 458 140 q 499 110 499 140 q 492 88 499 97 q 414 24 464 49 q 308 0 364 0 q 153 60 213 0 q 94 229 94 121 l 94 669 q 121 697 94 697 m 397 864 q 410 915 397 904 q 467 926 422 926 q 526 915 513 926 q 540 864 540 903 l 540 847 q 526 794 540 806 q 467 782 513 782 q 410 794 422 782 q 397 847 397 806 l 397 864 m 167 864 q 179 915 167 904 q 237 926 192 926 q 296 915 282 926 q 310 864 310 903 l 310 847 q 296 794 310 806 q 237 782 282 782 q 179 793 192 782 q 167 847 167 804 l 167 864 m 265 861 q 260 878 265 874 q 238 882 254 882 q 216 878 221 882 q 211 861 211 875 l 211 847 q 216 830 211 833 q 238 826 221 826 q 260 830 256 826 q 265 847 265 833 l 265 861 m 496 861 q 490 878 496 874 q 468 882 485 882 q 447 878 451 882 q 442 861 442 875 l 442 847 q 447 830 442 833 q 469 826 451 826 q 491 830 486 826 q 496 847 496 833 l 496 861 z "},"ı":{"ha":233,"x_min":83,"x_max":150,"o":"m 111 696 l 122 696 q 142 688 133 696 q 150 668 150 681 l 150 28 q 142 8 150 15 q 122 0 133 0 l 111 0 q 92 8 100 0 q 83 28 83 15 l 83 668 q 92 688 83 681 q 111 696 100 696 z "},"Ł":{"ha":833,"x_min":-50,"x_max":672,"o":"m 140 972 l 154 972 q 174 964 165 972 q 182 944 182 956 l 182 68 l 646 68 q 672 40 672 68 l 672 28 q 665 8 672 17 q 646 0 657 0 l 169 0 q 113 60 113 0 l 113 944 q 121 964 113 956 q 140 972 129 972 m 379 696 q 404 675 397 696 q 407 661 407 669 q 388 639 407 644 l 251 572 q 219 590 224 567 l 217 594 q 233 629 210 618 l 368 694 q 379 696 374 696 m 60 547 q 85 526 78 547 q 88 513 88 521 q 68 490 88 496 l -12 443 q -22 442 -18 442 q -44 461 -42 442 q -49 479 -49 468 q -31 500 -49 490 l 49 546 q 60 547 54 547 z "},"ł":{"ha":435,"x_min":17,"x_max":393,"o":"m 181 1014 l 192 1014 q 218 988 218 1014 l 218 647 l 329 694 q 350 694 340 699 q 369 664 369 685 q 353 638 369 643 l 218 581 l 218 214 q 344 65 218 65 l 367 65 q 385 57 378 65 q 393 39 393 49 l 393 28 q 343 0 393 0 q 200 54 249 0 q 153 213 151 108 l 153 988 q 181 1014 153 1014 m 75 588 q 92 590 82 590 q 109 574 101 590 q 117 551 117 558 q 100 532 117 539 l 60 515 q 40 513 51 513 q 19 533 26 513 q 17 551 17 540 q 35 571 17 563 l 75 588 z "},"Œ":{"ha":1536,"x_min":69,"x_max":1244,"o":"m 732 972 l 1217 972 q 1236 964 1228 972 q 1244 944 1244 956 l 1244 932 q 1236 912 1244 919 q 1217 904 1228 904 l 746 904 l 746 68 l 1217 68 q 1236 60 1228 68 q 1244 40 1244 53 l 1244 28 q 1236 8 1244 17 q 1217 0 1228 0 l 731 0 q 687 15 697 0 q 676 56 676 29 l 676 918 q 689 959 676 946 q 732 972 701 972 m 829 539 l 1126 539 q 1147 531 1139 539 q 1154 511 1154 522 l 1154 499 q 1126 471 1154 471 l 829 471 q 801 499 801 471 l 801 511 q 809 531 801 522 q 829 539 817 539 m 243 940 q 268 950 243 940 q 331 967 293 961 q 408 972 368 972 q 486 966 447 972 q 574 938 525 960 q 660 880 624 915 q 721 780 696 844 q 746 631 746 715 l 746 349 q 720 194 746 261 q 658 92 694 128 q 572 33 621 56 q 408 -1 494 -1 q 255 29 318 -1 q 156 96 192 60 q 94 198 119 132 q 69 349 69 264 l 69 631 q 95 783 69 718 q 157 883 121 849 q 243 940 193 918 m 538 877 q 518 886 538 877 q 469 899 499 894 q 408 904 439 904 q 346 899 376 904 q 276 877 315 894 q 207 831 236 860 q 158 749 178 803 q 138 625 138 696 l 138 353 q 158 228 138 282 q 208 144 178 174 q 276 96 238 114 q 347 72 315 78 q 408 67 378 67 q 470 72 439 67 q 540 96 501 78 q 608 144 579 114 q 658 228 638 174 q 678 353 678 282 l 678 625 q 657 749 678 696 q 607 831 636 803 q 538 877 578 860 z "},"œ":{"ha":1058,"x_min":83,"x_max":975,"o":"m 497 468 q 564 638 497 578 q 738 697 631 697 q 910 637 844 697 q 975 468 975 576 l 975 385 q 918 325 975 325 l 618 325 q 598 333 606 325 q 590 353 590 342 l 590 364 q 598 383 590 375 q 618 392 606 392 l 910 392 l 910 467 q 861 588 910 546 q 738 631 813 631 q 613 588 663 631 q 564 467 564 546 l 564 228 q 613 106 564 149 q 737 64 663 64 q 860 105 811 64 q 910 222 910 146 q 917 242 910 233 q 936 250 925 250 l 947 250 q 967 242 960 250 q 975 222 975 233 q 908 56 974 115 q 738 -3 843 -3 q 565 58 632 -3 q 497 226 497 118 l 497 468 m 83 468 q 150 638 83 578 q 324 697 217 697 q 496 637 431 697 q 561 468 561 576 l 561 226 q 496 58 561 118 q 324 -3 431 -3 q 151 58 218 -3 q 83 226 83 118 l 83 468 m 496 468 q 447 590 496 547 q 324 632 399 632 q 199 590 249 632 q 149 468 149 547 l 149 226 q 199 105 149 147 q 324 63 249 63 q 447 105 399 63 q 496 226 496 147 l 496 468 z "},"Š":{"ha":774,"x_min":72,"x_max":706,"o":"m 118 752 q 118 797 118 752 q 192 908 118 842 q 392 975 265 975 q 606 908 519 975 q 699 707 693 840 q 690 687 699 696 q 671 678 682 678 l 657 678 q 639 685 647 678 q 629 704 631 693 q 558 858 625 810 q 399 906 492 906 q 243 860 299 906 q 188 747 188 814 q 226 639 188 679 q 428 528 281 585 q 661 389 603 458 q 706 238 706 336 q 626 69 706 139 q 399 -1 546 -1 q 192 58 289 -1 q 108 148 140 90 q 72 281 75 206 q 100 310 72 310 l 113 310 q 140 283 138 310 q 171 177 143 222 q 240 110 199 132 q 417 67 321 67 q 576 117 514 67 q 638 244 638 168 q 588 364 638 322 q 500 421 547 397 q 308 503 439 450 q 163 605 208 547 q 118 752 118 663 m 389 1100 q 528 1224 508 1208 q 567 1240 549 1240 q 592 1224 585 1240 q 594 1210 594 1218 q 586 1196 594 1203 l 438 1050 q 431 1044 436 1049 q 422 1036 425 1039 q 414 1031 419 1033 q 388 1024 404 1024 l 385 1024 q 355 1031 363 1024 q 342 1044 347 1039 q 335 1050 336 1049 l 186 1196 q 178 1210 178 1203 q 181 1224 178 1218 q 206 1240 188 1240 q 244 1224 224 1240 q 383 1100 264 1208 l 386 1097 l 389 1100 z "},"š":{"ha":632,"x_min":79,"x_max":549,"o":"m 104 513 q 104 552 104 513 q 158 644 104 592 q 317 697 211 697 q 481 645 424 697 q 538 492 538 593 q 530 473 538 481 q 511 465 522 465 l 499 465 q 480 473 488 465 q 472 490 472 481 q 315 631 472 631 q 206 596 243 631 q 169 508 169 561 q 205 424 169 456 q 339 374 240 393 q 493 313 438 354 q 549 188 549 271 q 488 51 549 106 q 320 -4 428 -4 q 146 51 213 -4 q 79 213 79 106 q 107 242 79 242 l 118 242 q 144 214 144 242 q 324 63 144 63 q 444 99 404 63 q 483 190 483 136 q 442 269 483 244 q 297 315 400 293 q 149 386 193 338 q 104 513 104 435 m 318 822 q 458 947 438 931 q 496 963 478 963 q 521 946 514 963 q 524 933 524 940 q 515 918 524 925 l 367 772 q 360 766 365 771 q 351 758 354 761 q 343 753 349 756 q 317 746 333 746 l 314 746 q 284 753 292 746 q 271 766 276 761 q 264 772 265 771 l 115 918 q 107 933 107 925 q 110 946 107 940 q 135 963 117 963 q 173 947 153 963 q 313 822 193 931 l 315 819 l 318 822 z "},"Ÿ":{"ha":606,"x_min":-8,"x_max":588,"o":"m 543 972 l 558 972 q 581 962 575 972 q 586 944 586 951 q 582 931 586 938 l 582 932 l 347 504 q 332 483 336 488 l 332 28 q 324 8 332 17 q 304 0 315 0 l 290 0 q 271 8 279 0 q 263 28 263 17 l 263 485 q 250 501 256 492 l -3 931 q -7 944 -7 938 q -1 962 -7 951 q 21 972 4 972 l 38 972 q 61 960 51 972 l 297 554 l 521 964 q 543 972 526 972 m 347 1142 q 360 1193 347 1182 q 417 1204 372 1204 q 476 1192 463 1204 q 490 1142 490 1181 l 490 1125 q 476 1072 490 1083 q 417 1060 463 1060 q 360 1072 372 1060 q 347 1125 347 1083 l 347 1142 m 117 1142 q 129 1193 117 1182 q 187 1204 142 1204 q 246 1192 232 1204 q 260 1142 260 1181 l 260 1125 q 246 1072 260 1083 q 187 1060 232 1060 q 129 1071 142 1060 q 117 1125 117 1082 l 117 1142 m 215 1139 q 210 1156 215 1151 q 188 1160 204 1160 q 166 1156 171 1160 q 161 1139 161 1153 l 161 1125 q 166 1108 161 1111 q 188 1104 171 1104 q 210 1108 206 1104 q 215 1125 215 1111 l 215 1139 m 446 1139 q 440 1156 446 1151 q 418 1160 435 1160 q 397 1156 401 1160 q 392 1139 392 1153 l 392 1125 q 397 1108 392 1111 q 419 1104 401 1104 q 441 1108 436 1104 q 446 1125 446 1111 l 446 1139 z "},"Ž":{"ha":767,"x_min":43,"x_max":714,"o":"m 60 51 q 82 103 60 69 l 82 104 l 588 904 l 71 904 q 51 912 60 904 q 43 932 43 919 l 43 944 q 51 964 43 956 q 71 972 60 972 l 613 972 q 671 924 671 972 q 651 874 671 899 l 651 875 l 647 871 l 649 868 l 140 68 l 686 68 q 706 60 697 68 q 714 40 714 53 l 714 28 q 706 8 714 17 q 686 0 697 0 l 115 0 q 60 51 60 0 m 385 1100 q 524 1224 504 1208 q 563 1240 544 1240 q 588 1224 581 1240 q 590 1210 590 1218 q 582 1196 590 1203 l 433 1050 q 426 1044 432 1049 q 418 1036 421 1039 q 410 1031 415 1033 q 383 1024 400 1024 l 381 1024 q 351 1031 358 1024 q 338 1044 343 1039 q 331 1050 332 1049 l 182 1196 q 174 1210 174 1203 q 176 1224 174 1218 q 201 1240 183 1240 q 240 1224 219 1240 q 379 1100 260 1208 l 382 1097 l 385 1100 z "},"ž":{"ha":633,"x_min":75,"x_max":533,"o":"m 103 694 l 471 694 q 526 646 526 694 q 503 593 526 625 l 153 65 l 507 65 q 533 39 533 65 l 533 28 q 507 0 533 0 l 126 0 q 89 14 103 0 q 75 49 75 28 q 99 103 75 69 l 444 629 l 103 629 q 76 656 76 629 l 76 667 q 103 694 76 694 m 318 822 q 458 947 438 931 q 496 963 478 963 q 521 946 514 963 q 524 933 524 940 q 515 918 524 925 l 367 772 q 360 766 365 771 q 351 758 354 761 q 343 753 349 756 q 317 746 333 746 l 314 746 q 284 753 292 746 q 271 766 276 761 q 264 772 265 771 l 115 918 q 107 933 107 925 q 110 946 107 940 q 135 963 117 963 q 173 947 153 963 q 313 822 193 931 l 315 819 l 318 822 z "},"ƒ":{"ha":588,"x_min":69,"x_max":539,"o":"m 88 526 l 168 526 q 175 525 172 526 l 190 725 q 243 907 200 844 q 404 974 289 974 q 483 966 438 974 q 533 953 528 958 q 539 931 539 947 l 539 899 q 521 889 539 883 q 403 907 467 907 q 305 863 340 907 q 261 704 269 819 l 199 -240 q 156 -265 197 -265 q 126 -260 136 -265 q 117 -240 115 -256 l 169 460 l 88 460 q 69 486 69 460 l 69 499 q 88 526 69 526 m 294 526 l 479 526 q 496 499 496 526 l 496 486 q 479 460 496 460 l 294 460 q 278 486 278 460 l 278 499 q 294 526 278 526 z "},"ˆ":{"ha":613,"x_min":83,"x_max":529,"o":"m 251 1018 q 303 1044 271 1044 q 354 1018 335 1044 l 522 807 q 529 788 529 799 q 501 763 529 763 l 483 763 q 463 771 468 763 l 306 972 l 303 975 l 149 771 q 129 763 143 763 l 111 763 q 83 788 83 763 q 90 807 83 796 l 251 1018 z "},"ˇ":{"ha":833,"x_min":206,"x_max":622,"o":"m 417 822 q 556 947 536 931 q 594 963 576 963 q 619 946 613 963 q 622 933 622 940 q 614 918 622 925 l 465 772 q 458 766 464 771 q 450 758 453 761 q 442 753 447 756 q 415 746 432 746 l 413 746 q 383 753 390 746 q 369 766 375 761 q 363 772 364 771 l 214 918 q 206 933 206 925 q 208 946 206 940 q 233 963 215 963 q 272 947 251 963 q 411 822 292 931 l 414 819 l 417 822 z "},"˘":{"ha":833,"x_min":233,"x_max":626,"o":"m 625 938 q 544 806 625 858 q 442 768 488 768 q 362 780 396 768 q 281 840 328 792 q 235 938 235 889 q 236 943 235 942 l 279 963 q 285 964 282 964 q 290 958 289 964 q 344 878 306 908 q 431 849 383 849 q 516 878 478 849 q 569 958 554 908 q 574 964 571 964 q 581 963 578 964 l 624 943 q 625 938 625 942 z "},"˙":{"ha":833,"x_min":319,"x_max":476,"o":"m 319 865 q 333 922 319 910 q 397 933 347 933 q 461 920 446 933 q 476 865 476 907 l 476 847 q 461 788 476 800 q 397 775 446 775 q 333 788 347 775 q 319 847 319 800 l 319 865 z "},"˚":{"ha":833,"x_min":257,"x_max":524,"o":"m 257 900 q 293 988 257 957 q 392 1018 329 1018 q 490 988 456 1018 q 524 900 524 957 l 524 814 q 490 726 524 757 q 392 696 456 696 q 293 726 329 696 q 257 814 257 757 l 257 900 m 465 890 q 444 940 465 922 q 392 958 424 958 q 338 941 360 958 q 315 890 315 924 l 315 824 q 338 773 315 790 q 392 756 360 756 q 444 774 424 756 q 465 824 465 792 l 465 890 z "},"˛":{"ha":517,"x_min":138,"x_max":358,"o":"m 286 -175 q 354 -161 321 -175 q 358 -187 358 -161 q 356 -214 358 -212 q 285 -228 328 -228 q 172 -194 207 -228 q 138 -119 138 -161 q 159 -40 138 -76 q 201 15 181 -4 q 243 50 221 33 q 274 67 265 67 q 292 56 282 67 q 296 40 303 46 q 204 -101 204 -44 q 286 -175 204 -175 z "},"˜":{"ha":833,"x_min":147,"x_max":628,"o":"m 576 956 l 610 956 q 628 932 628 956 q 594 815 628 854 q 500 775 561 775 q 438 792 467 775 q 374 838 408 808 q 321 881 340 868 q 275 893 301 893 q 228 870 249 893 q 207 797 207 847 q 186 775 207 775 l 165 775 q 147 803 147 775 q 183 914 147 875 q 279 953 218 953 q 392 903 329 953 q 417 882 399 897 q 443 861 436 867 q 497 836 474 836 q 564 931 564 836 q 564 939 564 935 q 576 956 564 956 z "},"˝":{"ha":833,"x_min":107,"x_max":590,"o":"m 565 1058 q 590 1033 590 1058 q 581 1010 590 1021 l 376 786 q 333 768 358 768 l 331 768 q 308 784 313 768 q 315 815 303 800 l 492 1044 q 556 1058 497 1049 l 565 1058 m 132 768 q 108 793 108 768 q 117 815 108 804 l 293 1044 q 357 1058 299 1049 l 367 1058 q 392 1033 392 1058 q 382 1010 392 1021 l 178 786 q 135 768 160 768 l 132 768 z "},"π":{"ha":833,"x_min":64,"x_max":739,"o":"m 513 608 l 524 608 q 543 601 535 608 q 551 581 551 593 l 551 163 q 571 82 551 103 q 626 58 590 61 q 668 53 663 56 q 674 39 674 50 l 674 24 q 663 3 674 8 q 632 0 656 0 q 518 38 550 0 q 486 164 486 75 l 486 581 q 513 608 486 608 m 253 610 l 264 610 q 283 602 275 610 q 292 582 292 594 l 292 28 q 283 8 292 15 q 264 0 275 0 l 253 0 q 226 28 226 0 l 226 582 q 253 610 226 610 m 85 671 q 64 703 65 671 q 88 736 63 736 l 711 736 q 739 703 739 736 q 714 671 739 671 q 711 671 713 671 l 88 671 q 85 671 86 671 z "},"–":{"ha":317,"x_min":28,"x_max":289,"o":"m 54 536 l 261 536 q 281 528 272 536 q 289 511 289 521 l 289 497 q 281 478 289 486 q 261 471 272 471 l 54 471 q 28 497 28 471 l 28 511 q 35 529 28 522 q 54 536 43 536 z "},"—":{"ha":633,"x_min":47,"x_max":576,"o":"m 74 536 l 550 536 q 569 529 561 536 q 576 511 576 522 l 576 497 q 550 471 576 471 l 74 471 q 47 497 47 471 l 47 511 q 55 529 47 522 q 74 536 63 536 z "},"‘":{"ha":328,"x_min":49,"x_max":265,"o":"m 214 1017 l 250 1017 q 258 997 267 1014 l 178 817 l 225 817 q 265 776 265 817 l 265 647 q 258 612 265 621 q 228 603 250 603 l 86 603 q 54 621 67 603 q 49 643 49 632 q 58 679 49 654 l 197 997 q 214 1017 204 1017 m 172 764 q 158 771 158 764 l 117 676 q 114 665 114 668 q 125 658 114 658 l 197 658 q 210 681 210 672 l 210 754 q 207 763 210 761 q 192 764 204 764 l 172 764 z "},"’":{"ha":328,"x_min":63,"x_max":279,"o":"m 100 1017 l 242 1017 q 274 999 261 1017 q 279 976 279 988 q 269 940 279 965 l 131 622 q 114 603 124 603 l 78 603 q 69 622 61 606 l 149 803 l 103 803 q 63 843 63 803 l 63 972 q 70 1008 63 999 q 100 1017 78 1017 m 156 856 q 169 847 167 856 l 211 943 q 214 954 214 951 q 203 961 214 961 l 131 961 q 119 958 121 961 q 118 947 118 956 l 118 865 q 121 857 118 858 q 136 856 124 856 l 156 856 z "},"‚":{"ha":92,"x_min":3,"x_max":149,"o":"m 108 193 l 126 193 q 149 167 153 193 q 69 -171 125 61 q 43 -189 65 -189 l 26 -189 q 3 -162 -1 -189 l 82 175 q 108 193 88 193 z "},"“":{"ha":0,"x_min":49,"x_max":514,"o":"m 463 1017 l 499 1017 q 507 997 515 1014 l 426 817 l 474 817 q 514 776 514 817 l 514 647 q 506 612 514 621 q 476 603 499 603 l 335 603 q 303 621 315 603 q 297 643 297 632 q 307 679 297 654 l 446 997 q 463 1017 453 1017 m 421 764 q 407 771 407 764 l 365 676 q 363 665 363 668 q 374 658 363 658 l 446 658 q 458 681 458 672 l 458 754 q 456 763 458 761 q 440 764 453 764 l 421 764 m 214 1017 l 250 1017 q 258 997 267 1014 l 178 817 l 225 817 q 265 776 265 817 l 265 647 q 258 612 265 621 q 228 603 250 603 l 86 603 q 54 621 67 603 q 49 643 49 632 q 58 679 49 654 l 197 997 q 214 1017 204 1017 m 172 764 q 158 771 158 764 l 117 676 q 114 665 114 668 q 125 658 114 658 l 197 658 q 210 681 210 672 l 210 754 q 207 763 210 761 q 192 764 204 764 l 172 764 z "},"”":{"ha":0,"x_min":63,"x_max":518,"o":"m 339 1017 l 481 1017 q 513 999 500 1017 q 518 976 518 988 q 508 940 518 965 l 369 622 q 353 603 363 603 l 317 603 q 308 622 300 606 l 388 803 l 342 803 q 301 843 301 803 l 301 972 q 309 1008 301 999 q 339 1017 317 1017 m 394 856 q 408 847 406 856 l 450 943 q 453 954 453 951 q 442 961 453 961 l 369 961 q 358 958 360 961 q 357 947 357 956 l 357 865 q 360 857 357 858 q 375 856 363 856 l 394 856 m 100 1017 l 242 1017 q 274 999 261 1017 q 279 976 279 988 q 269 940 279 965 l 131 622 q 114 603 124 603 l 78 603 q 69 622 61 606 l 149 803 l 103 803 q 63 843 63 803 l 63 972 q 70 1008 63 999 q 100 1017 78 1017 m 156 856 q 169 847 167 856 l 211 943 q 214 954 214 951 q 203 961 214 961 l 131 961 q 119 958 121 961 q 118 947 118 956 l 118 865 q 121 857 118 858 q 136 856 124 856 l 156 856 z "},"„":{"ha":304,"x_min":14,"x_max":288,"o":"m 247 193 l 265 193 q 288 167 292 193 q 208 -171 264 61 q 182 -189 204 -189 l 165 -189 q 142 -162 138 -189 l 221 175 q 247 193 226 193 m 119 193 l 138 193 q 160 167 164 193 q 81 -171 136 61 q 54 -189 76 -189 l 38 -189 q 14 -162 10 -189 l 93 175 q 119 193 99 193 z "},"†":{"ha":614,"x_min":83,"x_max":531,"o":"m 111 656 l 272 656 l 272 946 q 299 972 272 972 l 315 972 q 342 946 342 972 l 342 656 l 504 656 q 523 649 515 656 q 531 631 531 642 l 531 613 q 504 586 531 586 l 342 586 l 342 -142 q 334 -161 342 -153 q 315 -169 326 -169 l 299 -169 q 280 -161 288 -169 q 272 -142 272 -153 l 272 586 l 111 586 q 90 594 99 586 q 83 613 82 601 l 83 631 q 91 648 82 640 q 111 656 100 656 z "},"‡":{"ha":614,"x_min":83,"x_max":531,"o":"m 111 656 l 272 656 l 272 946 q 299 972 272 972 l 315 972 q 342 946 342 972 l 342 656 l 504 656 q 523 649 515 656 q 531 631 531 642 l 531 613 q 504 586 531 586 l 342 586 l 342 310 l 504 310 q 523 303 515 310 q 531 285 531 296 l 531 267 q 504 240 531 240 l 342 240 l 342 -142 q 334 -161 342 -153 q 315 -169 326 -169 l 299 -169 q 280 -161 288 -169 q 272 -142 272 -153 l 272 240 l 111 240 q 90 248 99 240 q 83 267 82 256 l 83 286 q 92 303 83 296 q 111 310 100 310 l 272 310 l 272 586 l 111 586 q 90 594 99 586 q 83 613 82 601 l 83 632 q 92 649 83 642 q 111 656 100 656 z "},"•":{"ha":833,"x_min":232,"x_max":626,"o":"m 290 539 q 318 568 290 539 q 429 597 347 597 q 569 539 511 597 q 626 400 626 481 q 569 261 626 319 q 429 203 511 203 q 290 261 347 203 q 232 400 232 319 q 290 539 232 481 m 515 486 q 498 503 515 486 q 429 521 481 521 q 343 486 378 521 q 308 400 308 451 q 343 314 308 349 q 429 279 378 279 q 515 314 481 279 q 550 400 550 349 q 515 486 550 451 z "},"…":{"ha":733,"x_min":56,"x_max":678,"o":"m 301 142 q 308 148 301 142 q 365 154 315 154 q 431 141 415 154 q 446 86 446 128 l 446 68 q 431 8 446 21 q 365 -4 415 -4 q 301 8 315 -4 q 288 68 288 21 l 288 86 q 301 142 288 131 m 397 82 q 391 101 397 96 q 366 106 385 106 q 342 101 347 106 q 336 82 336 97 l 336 68 q 342 49 336 53 q 367 44 347 44 q 392 49 386 44 q 397 68 397 53 l 397 82 m 533 142 q 540 148 533 142 q 597 154 547 154 q 663 141 647 154 q 678 86 678 128 l 678 68 q 663 8 678 21 q 597 -4 647 -4 q 533 8 547 -4 q 519 68 519 21 l 519 86 q 533 142 519 131 m 629 82 q 623 101 629 96 q 598 106 617 106 q 574 101 579 106 q 568 82 568 97 l 568 68 q 574 49 568 53 q 599 44 579 44 q 624 49 618 44 q 629 68 629 53 l 629 82 m 69 142 q 76 148 69 142 q 133 154 83 154 q 199 141 183 154 q 214 86 214 128 l 214 68 q 199 8 214 21 q 133 -4 183 -4 q 69 8 83 -4 q 56 68 56 21 l 56 86 q 69 142 56 131 m 165 82 q 159 101 165 96 q 134 106 153 106 q 110 101 115 106 q 104 82 104 97 l 104 68 q 110 49 104 53 q 135 44 115 44 q 160 49 154 44 q 165 68 165 53 l 165 82 z "},"‰":{"ha":1163,"x_min":69,"x_max":1093,"o":"m 515 1017 l 532 1017 q 554 1008 547 1017 q 558 985 561 999 l 376 -6 q 350 -28 372 -28 l 336 -28 q 315 -19 322 -28 q 308 4 307 -10 l 488 994 q 515 1017 492 1017 m 493 289 q 634 432 493 432 q 775 289 775 432 l 775 143 q 634 0 775 0 q 493 143 493 0 l 493 289 m 708 297 q 634 365 708 365 q 560 297 560 365 l 560 135 q 634 67 560 67 q 708 135 708 67 l 708 297 m 69 829 q 210 972 69 972 q 351 829 351 972 l 351 683 q 210 540 351 540 q 69 683 69 540 l 69 829 m 285 838 q 210 906 285 906 q 136 838 136 906 l 136 675 q 210 607 136 607 q 285 675 285 607 l 285 838 m 811 289 q 952 432 811 432 q 1093 289 1093 432 l 1093 143 q 952 0 1093 0 q 811 143 811 0 l 811 289 m 1026 297 q 952 365 1026 365 q 878 297 878 365 l 878 135 q 952 67 878 67 q 1026 135 1026 67 l 1026 297 z "},"‹":{"ha":482,"x_min":82,"x_max":481,"o":"m 429 736 l 446 740 l 450 740 l 453 739 l 456 739 q 471 728 468 733 l 478 714 l 478 713 q 479 704 479 710 l 479 700 l 472 686 q 465 681 467 681 q 463 678 465 678 l 150 444 l 468 207 q 471 204 468 204 l 479 189 l 481 181 q 480 169 481 175 q 474 160 479 164 q 469 156 469 156 q 454 147 469 151 l 447 147 q 429 153 431 147 l 110 393 l 101 399 l 93 408 q 88 415 93 410 q 83 428 83 419 l 82 438 l 82 444 q 90 474 82 464 q 111 494 99 483 l 429 736 z "},"›":{"ha":482,"x_min":0,"x_max":399,"o":"m 1 706 q 1 713 1 706 q 11 731 1 721 q 32 740 21 740 q 51 736 43 740 l 369 494 q 399 443 399 472 q 371 393 399 414 l 51 153 q 28 147 44 147 q 6 161 11 147 q 0 187 0 175 q 18 211 0 199 l 329 444 l 18 678 q 1 706 1 690 z "},"⁄":{"ha":833,"x_min":-10,"x_max":844,"o":"m 11 0 q -10 21 -10 0 q -4 36 -10 29 l 785 1007 q 814 1025 799 1025 l 818 1025 q 839 1016 833 1025 q 844 1001 844 1007 q 839 989 844 994 l 51 18 q 26 0 40 0 l 11 0 z "},"€":{"ha":911,"x_min":25,"x_max":769,"o":"m 51 582 l 110 582 l 110 629 q 135 781 110 715 q 196 881 160 846 q 281 938 232 915 q 440 972 354 972 q 583 944 519 972 q 684 884 647 915 q 745 800 721 853 q 769 681 769 747 q 743 651 769 651 l 731 651 q 712 659 721 651 q 703 676 703 667 q 674 790 703 742 q 600 861 644 838 q 440 904 515 904 q 244 831 319 904 q 197 748 217 801 q 178 625 178 694 l 178 582 l 563 582 q 583 574 575 582 q 590 554 590 565 l 590 542 q 563 515 590 515 l 178 515 l 178 449 l 563 449 q 590 422 590 449 l 590 408 q 563 382 590 382 l 178 382 l 178 346 q 206 199 178 260 q 281 113 235 139 q 440 65 361 65 q 686 215 625 65 q 706 332 706 265 q 714 350 706 342 q 732 358 722 358 l 743 358 q 769 332 769 358 q 745 191 769 253 q 684 94 721 129 q 600 36 647 58 q 440 -1 522 -1 q 293 28 356 -1 q 194 94 231 58 q 134 193 158 129 q 110 340 110 257 l 110 382 l 51 382 q 25 408 25 382 l 25 422 q 51 449 25 449 l 110 449 l 110 515 l 51 515 q 25 542 25 515 l 25 554 q 33 574 25 565 q 51 582 40 582 z "},"™":{"ha":1597,"x_min":7,"x_max":1497,"o":"m 335 867 l 349 867 q 376 840 376 867 l 376 28 q 369 8 376 17 q 349 0 361 0 l 335 0 q 315 8 322 0 q 307 28 307 17 l 307 840 q 335 867 307 867 m 35 972 l 651 972 q 672 964 664 972 q 679 944 679 956 l 679 929 q 651 904 679 904 l 35 904 q 7 929 7 904 l 7 944 q 15 964 7 956 q 35 972 24 972 m 1442 976 q 1481 962 1464 976 q 1497 917 1497 947 l 1497 28 q 1490 8 1497 17 q 1469 0 1482 0 l 1457 0 q 1437 8 1444 0 q 1429 28 1429 17 l 1429 854 l 1188 257 q 1138 217 1172 221 q 1081 256 1097 217 l 825 860 l 825 28 q 817 8 825 17 q 797 0 808 0 l 783 0 q 765 8 772 0 q 757 28 757 17 l 757 917 q 811 976 757 976 q 867 935 849 976 l 1133 306 l 1386 935 q 1442 976 1406 976 z "},"∏":{"ha":833,"x_min":6,"x_max":869,"o":"m 33 1017 l 843 1017 q 862 1010 854 1017 q 869 992 869 1003 l 869 974 q 843 947 869 947 l 714 947 l 714 -100 q 706 -119 714 -111 q 688 -128 699 -128 l 671 -128 q 652 -119 660 -128 q 644 -100 644 -111 l 644 947 l 214 947 l 214 -100 q 206 -119 214 -111 q 188 -128 199 -128 l 171 -128 q 152 -119 160 -128 q 144 -100 144 -111 l 144 947 l 33 947 q 13 955 21 947 q 6 974 4 963 l 6 992 q 13 1009 4 1001 q 33 1017 22 1017 z "},"∑":{"ha":694,"x_min":11,"x_max":683,"o":"m 63 890 q 70 896 63 890 q 88 903 76 903 q 107 894 99 903 l 525 488 q 532 468 532 478 q 524 450 532 458 l 107 47 q 88 39 99 39 q 63 52 76 39 q 50 76 50 65 q 58 96 50 88 l 446 469 l 58 846 q 50 865 50 854 q 63 890 50 876 m 39 0 l 656 0 q 676 -8 668 0 q 683 -28 683 -17 l 683 -43 q 656 -68 683 -68 l 39 -68 q 11 -43 11 -68 l 11 -28 q 19 -8 11 -17 q 39 0 28 0 m 39 1010 l 656 1010 q 676 1001 668 1010 q 683 982 683 993 l 683 967 q 656 942 683 942 l 39 942 q 11 967 11 942 l 11 982 q 19 1001 11 993 q 39 1010 28 1010 z "},"−":{"ha":638,"x_min":21,"x_max":617,"o":"m 49 536 l 590 536 q 617 510 617 536 l 617 497 q 609 478 617 486 q 590 469 601 469 l 49 469 q 28 478 36 469 q 21 497 21 486 l 21 510 q 49 536 21 536 z "},"√":{"ha":833,"x_min":-35,"x_max":943,"o":"m 900 1153 q 942 1128 942 1140 q 938 1110 942 1119 l 417 -112 q 404 -119 414 -119 l 388 -119 q 372 -112 375 -119 l 160 390 l 6 303 q -8 300 -3 297 q -24 322 -14 303 q -33 344 -33 342 q -31 350 -33 347 l 190 479 q 208 478 204 488 l 399 29 l 876 1135 q 893 1154 885 1154 q 900 1153 896 1154 z "},"∞":{"ha":825,"x_min":35,"x_max":790,"o":"m 578 694 l 626 694 q 745 649 700 694 q 790 526 790 604 q 745 400 790 447 q 626 353 700 353 l 578 353 q 505 367 525 353 q 478 386 485 382 q 460 406 472 390 q 444 426 447 421 q 425 450 440 431 l 407 475 q 335 384 369 415 q 247 353 300 353 l 199 353 q 80 398 125 353 q 35 522 35 443 q 80 647 35 600 q 199 694 125 694 l 247 694 q 317 676 286 694 q 365 639 349 658 q 410 578 381 619 q 487 665 449 635 q 578 694 525 694 m 244 642 l 201 642 q 120 610 150 642 q 90 522 90 578 q 119 435 90 465 q 201 404 149 404 l 244 404 q 319 447 286 404 q 374 522 344 476 q 360 544 371 526 q 344 568 349 561 q 328 590 339 575 q 309 611 317 604 q 290 626 301 618 q 244 642 269 642 m 624 643 l 581 643 q 444 532 522 643 q 471 494 453 522 q 501 450 489 465 q 535 420 513 435 q 581 406 557 406 l 624 406 q 705 438 675 406 q 735 526 735 469 q 706 613 735 582 q 624 643 676 643 z "},"∫":{"ha":542,"x_min":1,"x_max":539,"o":"m 19 99 q 26 105 19 99 q 83 111 33 111 q 149 98 133 111 q 163 43 164 85 l 161 25 q 157 -10 161 6 l 168 -10 q 242 1 207 -10 q 310 50 278 11 q 343 150 343 89 q 318 281 343 211 q 243 460 293 350 q 149 753 149 667 q 150 776 149 769 q 224 920 163 867 q 390 974 285 974 q 514 956 456 974 l 519 951 q 539 893 539 940 l 539 875 q 522 815 538 828 q 456 803 506 803 q 393 815 406 803 q 381 867 381 826 q 381 875 381 871 l 381 893 q 383 921 381 904 q 208 776 226 915 q 207 744 207 769 q 222 670 207 718 q 247 596 236 622 q 288 509 271 543 q 322 438 306 475 q 344 390 339 401 q 361 348 349 379 q 378 301 374 317 q 390 258 383 285 q 401 185 401 218 q 399 125 401 153 q 326 -10 390 42 q 161 -62 263 -62 q 78 -54 122 -62 q 31 -43 35 -46 q 8 -24 14 -37 q 3 4 3 -11 q 3 25 3 19 l 4 43 q 19 99 6 88 m 114 39 q 108 58 114 53 q 83 63 101 63 q 58 58 64 63 q 53 39 53 54 l 51 25 q 56 6 51 11 l 78 1 l 81 1 q 107 6 101 1 q 113 25 113 10 l 114 39 m 458 913 q 435 908 440 913 q 429 889 429 904 l 429 869 q 435 855 429 858 q 459 851 440 851 q 483 856 478 851 q 490 875 489 860 l 490 889 q 483 907 490 903 l 464 913 l 458 913 z "},"≈":{"ha":833,"x_min":92,"x_max":681,"o":"m 629 706 l 663 706 q 681 682 681 706 q 639 565 681 606 q 539 525 597 525 q 425 555 481 525 q 319 614 369 585 q 238 643 269 643 q 178 621 206 643 q 151 550 151 599 q 131 525 151 525 l 110 525 q 92 550 92 525 q 133 662 92 621 q 235 703 175 703 q 391 644 296 703 q 525 586 486 586 q 617 682 617 586 q 629 706 617 706 m 629 469 l 663 469 q 681 446 681 469 q 639 329 681 369 q 539 289 597 289 q 425 319 481 289 q 319 378 369 349 q 238 407 269 407 q 178 385 206 407 q 151 314 151 363 q 131 289 151 289 l 110 289 q 92 314 92 289 q 133 426 92 385 q 235 467 175 467 q 391 408 296 467 q 525 350 486 350 q 617 446 617 350 q 629 469 617 469 z "},"≠":{"ha":804,"x_min":104,"x_max":700,"o":"m 132 619 l 674 619 q 700 593 700 619 l 700 581 q 674 553 700 553 l 132 553 q 104 581 104 553 l 104 593 q 132 619 104 619 m 132 447 l 674 447 q 700 421 700 447 l 700 408 q 692 389 700 397 q 674 381 685 381 l 132 381 q 112 389 119 381 q 104 408 104 397 l 104 421 q 132 447 104 447 m 588 971 q 611 947 611 971 q 608 935 611 942 l 246 18 q 225 0 235 0 l 208 0 q 186 9 193 0 q 179 24 179 18 q 182 36 179 31 l 543 953 q 569 971 553 971 l 588 971 z "},"≤":{"ha":794,"x_min":69,"x_max":725,"o":"m 667 700 q 682 704 674 704 q 697 700 690 704 q 717 669 717 694 q 697 636 717 643 l 149 444 l 700 261 q 717 244 713 257 q 717 215 722 231 q 692 193 707 193 q 667 197 678 193 l 97 393 q 69 444 69 404 q 99 494 69 483 l 667 700 m 106 97 l 697 97 q 725 64 725 97 q 697 31 725 31 l 106 31 q 79 64 79 31 q 106 97 79 97 z "},"≥":{"ha":794,"x_min":69,"x_max":725,"o":"m 696 494 q 725 444 725 483 q 697 393 725 404 l 128 197 q 102 193 117 193 q 78 215 88 193 q 77 244 72 231 q 94 261 82 257 l 646 444 l 97 636 q 78 669 78 643 q 97 700 78 694 q 113 704 104 704 q 128 700 121 704 l 696 494 m 97 97 l 689 97 q 715 64 715 97 q 689 31 715 31 l 97 31 q 69 64 69 31 q 97 97 69 97 z "},"◊":{"ha":956,"x_min":99,"x_max":871,"o":"m 451 731 q 484 746 467 746 q 522 728 501 746 l 854 396 q 869 359 869 376 q 854 325 869 342 l 525 -15 q 490 -32 508 -32 q 454 -15 472 -32 l 118 321 q 100 359 100 342 q 115 392 100 376 l 451 731 m 485 676 l 168 358 l 490 38 l 803 360 l 485 676 z "},"ﬁ":{"ha":750,"x_min":36,"x_max":683,"o":"m 219 694 l 367 694 q 385 686 378 694 q 393 667 393 678 l 393 661 q 385 642 393 650 q 367 633 378 633 l 219 633 l 218 26 q 192 0 218 0 l 181 0 q 153 26 153 0 l 154 801 q 208 960 153 904 q 358 1017 263 1017 q 421 989 421 1017 l 421 978 q 413 960 421 968 q 394 951 406 951 l 360 951 q 257 913 294 951 q 219 800 219 874 l 219 694 m 64 694 l 97 694 q 117 686 110 694 q 125 667 125 678 l 125 661 q 117 642 125 650 q 97 633 110 633 l 64 633 q 44 642 51 633 q 36 661 36 650 l 36 667 q 44 686 36 678 q 64 694 51 694 m 593 696 l 617 696 q 639 689 633 696 q 644 668 644 682 l 644 28 q 636 8 644 15 q 617 0 628 0 l 593 0 q 574 8 582 0 q 565 28 565 15 l 565 668 q 573 691 565 686 q 593 696 581 696 m 539 1005 q 546 1011 539 1005 q 603 1017 553 1017 q 668 1003 653 1017 q 683 949 683 990 l 683 931 q 668 871 683 883 q 603 858 653 858 q 539 871 553 858 q 525 931 525 883 l 525 949 q 539 1005 525 993 m 635 944 q 628 963 635 958 q 603 968 622 968 q 579 964 585 968 q 574 944 574 960 l 574 931 q 579 911 574 915 q 604 907 585 907 q 629 911 624 907 q 635 931 635 915 l 635 944 z "},"ﬂ":{"ha":875,"x_min":36,"x_max":804,"o":"m 219 694 l 367 694 q 385 686 378 694 q 393 667 393 678 l 393 661 q 385 642 393 650 q 367 633 378 633 l 219 633 l 218 26 q 192 0 218 0 l 181 0 q 153 26 153 0 l 154 801 q 208 960 153 904 q 358 1017 263 1017 q 421 989 421 1017 l 421 978 q 413 960 421 968 q 394 951 406 951 l 360 951 q 257 913 294 951 q 219 800 219 874 l 219 694 m 64 694 l 97 694 q 117 686 110 694 q 125 667 125 678 l 125 661 q 117 642 125 650 q 97 633 110 633 l 64 633 q 44 642 51 633 q 36 661 36 650 l 36 667 q 44 686 36 678 q 64 694 51 694 m 592 1014 l 603 1014 q 629 988 629 1014 l 629 214 q 756 65 629 65 l 778 65 q 797 57 789 65 q 804 39 804 49 l 804 28 q 754 0 804 0 q 611 54 660 0 q 564 213 563 108 l 564 988 q 592 1014 564 1014 z "}}}
